<svg xmlns="http://www.w3.org/2000/svg" width="500" height="360">
  <path fill="#7B6855" stroke="#7B6855" stroke-width="4" stroke-miterlimit="10" d="M65.661 121.25c1.067-1.015 3.605-2.868 7.617-5.561 5.028-3.3 9.725-6.017 14.092-8.15.254-.152.508-.28.762-.381.152-.051.28-.101.381-.152.355-1.067 1.143-3.074 2.362-6.018.684-1.697 1.497-3.703 2.438-6.018.938-2.305 2.003-4.92 3.199-7.847 5.942-14.472 9.929-24.552 11.959-30.24l-.076-.076c.794-1.337 1.543-2.607 2.248-3.809-.753-.896-1.452-1.733-2.095-2.514-1.523-1.879-2.743-3.428-3.657-4.647-1.269-1.168-2.488-2.26-3.656-3.275-.711-.203-1.421-.406-2.132-.609-10.106-2.743-19.272-2.768-27.499-.077-5.891 2.387-12.365 5.993-19.424 10.816-.813.559-1.575 1.092-2.285 1.6-.305.254-.61.533-.914.838-2.235 1.828-4.799 4.087-7.694 6.78-.559.507-1.091 1.015-1.599 1.523-5.789 5.738-10.03 12.213-12.721 19.425-2.335 6.144-3.503 12.821-3.503 20.032 0 1.421.203 4.901.609 10.437.457 6.549.889 10.738 1.295 12.568.507 2.183 1.65 5.025 3.428 8.531 1.93 1.319 4.671 3.123 8.227 5.408 5.121 3.311 8.828 5.887 11.121 7.732-.006-.036-.006-.071 0-.116 1.422-4.569 3.225-8.657 5.409-12.262 3.145-5.229 7.182-9.875 12.108-13.938z"/>
  <path fill="#FFF" stroke="#FFF" stroke-width="4" stroke-miterlimit="10" d="M437.69 194.223c-.559-2.018-1.104-3.982-1.642-5.902-2.601-9.182-5.076-17.319-7.427-24.41-.702-2.067-1.398-4.045-2.095-5.944-2.622-7.269-5.124-13.26-7.502-17.975-1.373-2.743-2.873-5.51-4.496-8.305-.606-.404-1.219-.812-1.826-1.217-2.285-1.727-4.188-3.125-5.713-4.189-.399-.297-.77-.577-1.104-.839-2.044-1.494-3.175-2.307-3.389-2.437-6.043-2.336-11.2-4.469-15.464-6.399-8.178-3.708-12.266-6.45-12.266-8.226 0-.762.127-1.422.381-1.981.963-2.133 3.682-3.123 8.148-2.97 2.234.101 4.672.456 7.314 1.065-1.625-2.083-3.353-4.52-5.182-7.313-.052-.103-.103-.177-.152-.228-.608-.915-1.219-1.854-1.825-2.819-2.946-4.57-6.147-9.928-9.601-16.073-.201-.355-.406-.71-.608-1.066-.64-1.225-1.25-2.394-1.827-3.504-2.675-5.109-4.782-9.121-6.323-12.035-.356-.406-.685-.787-.989-1.143-.763-.863-1.522-1.777-2.285-2.742-4.051-4.232-7.783-7.748-11.196-10.55-.438-.351-.869-.693-1.294-1.028-5.893-4.52-12.342-8.227-19.352-11.121-1.218-.508-9.953-3.021-26.203-7.542-4.418-.457-8.43-.864-12.035-1.218-6.446.253-14.602.381-24.448.381-5.588.507-12.036.762-19.35.762-2.74 0-5.484-.28-8.228-.838-1.419.05-2.892.077-4.415.077-11.021 0-20.034-.127-27.042-.381-3.606.354-7.617.762-12.036 1.218-1.169.305-2.312.635-3.428.99-14.068 3.911-21.659 6.094-22.778 6.551-1.217.507-2.386 1.041-3.502 1.599l-13.788 8.074c-.711.458-1.397.939-2.057 1.448-.427.334-.858.677-1.295 1.028-3.414 2.802-7.146 6.319-11.198 10.55-.762.965-1.523 1.879-2.285 2.742-.304.355-.634.736-.99 1.143-1.54 2.913-3.647 6.912-6.322 11.997-.577 1.134-1.187 2.314-1.829 3.542-.203.355-.406.711-.609 1.066-2.165 3.851-4.234 7.395-6.208 10.626-1.161 1.925-2.291 3.74-3.389 5.447-.61.966-1.219 1.904-1.829 2.819-.05.051-.102.125-.152.228-1.828 2.792-3.554 5.229-5.18 7.313 2.641-.61 5.079-.964 7.313-1.065 4.469-.153 7.186.836 8.15 2.97.254.56.381 1.22.381 1.981 0 1.776-4.087 4.519-12.264 8.226-4.266 1.93-9.42 4.063-15.463 6.399-.254.151-1.752 1.244-4.495 3.276-1.523 1.065-3.428 2.462-5.713 4.189-.609.405-1.218.813-1.828 1.217-1.625 2.794-3.123 5.562-4.494 8.305-2.378 4.715-4.879 10.706-7.503 17.975-.694 1.898-1.393 3.877-2.095 5.944-2.348 7.084-4.823 15.21-7.427 24.376-.534 1.935-1.08 3.912-1.637 5.938-.305 1.271-.635 2.541-.99 3.81-7.973 29.809-11.959 52.536-11.959 68.176 0 10.261 2.513 18.64 7.541 25.138 5.079 6.554 13.33 12.085 24.756 16.604 5.993 2.336 13.407 4.598 22.242 6.781 7.161 1.219 12.899 2.182 17.216 2.893 2.183.357 7.896 1.019 17.139 1.982 6.145.607 13.813 1.37 23.003 2.283.814.104 1.626.18 2.438.229 6.298.609 11.807 1.143 16.53 1.598 13.56 1.271 20.516 1.934 20.871 1.982H238.035c.762.201 1.574.354 2.437.459 3.606-.258 7.543-.51 11.806-.766 4.418-.256 9.19-.482 14.32-.686h26.661c3.604-1.117 8.911-1.117 15.923 0 6.601-.611 16.45-1.549 29.553-2.818 23.106-2.232 36.488-3.654 40.146-4.268 4.313-.711 10.055-1.674 17.214-2.893 8.837-2.186 16.248-4.445 22.241-6.781 11.426-4.521 19.68-10.053 24.756-16.605 5.028-6.498 7.543-14.877 7.543-25.137 0-15.639-3.985-38.367-11.959-68.176-.352-1.266-.682-2.536-.986-3.807zm-266.072 15.16c-4.469 6.398-11.248 9.598-20.338 9.598-.793 0-1.568-.023-2.323-.076-8.846-.553-15.257-4.359-19.233-11.426-2.387-7.82-3.581-11.957-3.581-12.416 0-7.668 2.641-13.736 7.922-18.205 4.483-3.844 10.019-5.825 16.605-5.941h.609c6.856.151 12.593 2.133 17.214 5.941 5.231 4.467 7.847 10.458 7.847 17.977 0 5.229-1.574 10.079-4.722 14.548zm119.972 87.828c-4.267 2.029-9.218 3.047-14.854 3.047-11.68 0-20.313-3.275-25.898-9.828 0 .051-.027.078-.078.078v.229l-.074-.074c-.051 0-.101.021-.149.074v-.229l-.077-.078c-5.585 6.553-14.221 9.828-25.899 9.828-5.636 0-10.587-1.018-14.854-3.047-4.57-2.133-6.855-4.799-6.855-7.998 0-1.068.229-2.031.684-2.895.967-1.625 2.643-2.438 5.029-2.438 1.271 0 5.153.584 11.655 1.75 6.549 1.119 10.462 1.679 11.729 1.679 6.299 0 10.943-3.403 13.94-10.209.101-4.418.33-7.998.684-10.738-.708-.053-1.396-.077-2.056-.077-6.6-.964-11.578-3.197-14.928-6.703-2.44-2.588-3.734-5.129-3.887-7.617v-.455c0-2.743.533-5.258 1.601-7.543v-.073c.051-.054.102-.104.152-.154 1.217-2.487 3.098-4.672 5.636-6.549 3.252-2.387 7.084-3.961 11.503-4.724 1.523-.256 3.098-.437 4.723-.534h.303c1.271-.052 2.49-.052 3.656 0 1.474.101 2.896.278 4.268.534.764.152 1.548.354 2.359.607V233c2.031.608 3.908 1.422 5.639 2.437 1.116.66 2.105 1.373 2.971 2.135.201.201.407.404.609.609 2.538 2.536 3.811 5.635 3.811 9.293 0 .454-.027.938-.078 1.444-.305 3.656-1.903 7.187-4.797 10.59-1.068 1.269-2.211 2.359-3.429 3.272-2.083 1.574-4.368 2.666-6.854 3.275v.077c-1.019.15-1.602.229-1.752.229h-1.222c.308 2.74.511 6.32.61 10.738 2.994 6.805 7.641 10.209 13.938 10.209 1.27 0 5.182-.561 11.729-1.68 6.502-1.166 10.385-1.75 11.655-1.75 2.387 0 4.062.813 5.026 2.438.456.863.687 1.826.687 2.896-.001 3.2-2.286 5.866-6.856 7.999zm79.142-89.732c-4.314 7.668-11.5 11.502-21.557 11.502-9.09 0-15.869-3.197-20.341-9.598-3.146-4.469-4.722-9.318-4.722-14.549 0-7.518 2.613-13.51 7.847-17.977 4.621-3.809 10.358-5.79 17.216-5.941 6.855 0 12.594 1.979 17.215 5.941 5.28 4.467 7.924 10.538 7.924 18.206 0 .458-1.195 4.593-3.582 12.416z"/>
  <path fill="#7B6855" stroke="#7B6855" stroke-width="4" stroke-miterlimit="10" d="M458.712 61.912c-3.351-3.099-6.219-5.637-8.604-7.618-.714-.508-1.476-1.041-2.285-1.6-2.744-1.879-5.41-3.58-7.999-5.104-4.016-2.336-7.822-4.24-11.426-5.713-8.229-2.691-17.396-2.666-27.5.077l-2.133.609c-1.166 1.016-2.389 2.107-3.658 3.275-.912 1.219-2.129 2.768-3.652 4.647-.658.797-1.385 1.647-2.172 2.552.365.667.73 1.339 1.104 2.019.357.507.762 1.244 1.221 2.209.863 2.387 2.08 5.535 3.656 9.445 1.523 4.418 2.311 6.678 2.359 6.779.913 2.438 1.881 4.545 2.896 6.323.912 2.286 1.902 4.723 2.969 7.312 3.563 8.646 5.976 14.586 7.236 17.826.336.887.59 1.571.762 2.056.102.051.229.101.382.152.256.101.509.229.762.381 4.367 2.133 9.066 4.85 14.092 8.15 4.016 2.693 6.554 4.546 7.617 5.561 4.928 4.063 8.965 8.709 12.113 13.94 1.625 2.742 3.07 5.764 4.341 9.063.193 1.229.435 2.434.724 3.618 2.249-1.869 6.069-4.548 11.467-8.036 3.556-2.285 6.296-4.088 8.227-5.408 1.776-3.505 2.919-6.348 3.428-8.531.405-1.83.836-6.02 1.295-12.568.404-5.536.609-9.016.609-10.437 0-15.59-5.409-28.742-16.226-39.457-.513-.507-1.046-1.015-1.605-1.522z"/>
  <path fill="#7C6854" d="M410.725 104.95c3.758-14.068 6.651-22.346 8.687-24.833 5.229-6.601 12.035-11.171 20.414-13.711.506-.153 1.039-.304 1.599-.457 4.57-1.27 10.866-2.107 18.893-2.513 10.814 10.715 16.226 23.867 16.226 39.457 0 1.421-.205 4.901-.609 10.437-.459 6.549-.89 10.738-1.295 12.568-.509 2.183-1.649 5.025-3.428 8.531-1.931 1.319-4.671 3.123-8.227 5.408-5.396 3.487-9.218 6.167-11.467 8.036-.289-1.185-.528-2.39-.724-3.618-1.271-3.3-2.716-6.322-4.341-9.063-3.148-5.231-7.188-9.877-12.113-13.94-1.063-1.015-3.604-2.868-7.617-5.561-5.023-3.3-9.725-6.017-14.092-8.15-.253-.152-.506-.28-.762-.381-.152-.051-.28-.101-.382-.152-.174-.487-.426-1.171-.762-2.058zm4.341 126.218c.103 2.184.15 4.418.15 6.703 0 1.473-.607 3.859-1.828 7.162-1.826 4.873-4.394 9.344-7.691 13.404-10.26 12.439-25.619 18.662-46.084 18.662-22.953 0-39.711-14.094-50.274-42.275-3.354-8.988-5.864-18.891-7.543-29.707-1.065-6.756-1.598-11.707-1.598-14.854 0-2.896.125-5.662.381-8.305 1.371-16.758 7.235-28.465 17.594-35.116 8.736-5.588 18.993-6.855 30.776-3.809 1.3.325 2.617.706 3.96 1.143 1.571.506 3.172 1.089 4.8 1.75 15.588 6.35 28.768 17.393 39.532 33.136 1.333 1.974 2.601 3.979 3.809 6.017 1.44 2.445 2.785 4.936 4.038 7.467 5.79 11.987 9.113 24.86 9.978 38.622zm-90.951-36.334c0 5.23 1.574 10.08 4.722 14.549 4.47 6.398 11.251 9.598 20.341 9.598 10.055 0 17.24-3.834 21.555-11.502 2.389-7.82 3.584-11.957 3.584-12.416 0-7.668-2.644-13.736-7.924-18.205-4.621-3.963-10.357-5.941-17.215-5.941-6.855.151-12.595 2.133-17.216 5.941-5.232 4.466-7.847 10.458-7.847 17.976zm-135.74 47.686c-.202.404-.406.813-.61 1.217-.101.154-.177.33-.229.535l-8.76 14.016c-.762.914-1.523 1.805-2.285 2.666-.405.459-.813.914-1.217 1.373-.254.199-.483.402-.687.607-.609.607-1.193 1.193-1.751 1.75-.204.154-.381.309-.534.457l-8.607 6.02c-.355.199-.711.393-1.066.568-1.552-2.213-2.745-4.002-3.58-5.367-5.231-8.734-8.329-18.334-9.293-28.793-.445-4.527-.711-10.752-.8-18.664.755.053 1.53.076 2.323.076 9.091 0 15.869-3.197 20.338-9.598 3.148-4.469 4.722-9.318 4.722-14.549 0-7.518-2.616-13.51-7.847-17.977-4.621-3.809-10.357-5.79-17.214-5.941h-.609c.211-2.747.618-5.437 1.219-8.076.914-4.013 1.371-7.414 1.371-10.208 0-.455-.178-2.666-.533-6.626-.117-1.33-.219-2.55-.305-3.657l.609-.152c.152-.051.305-.076.458-.076 11.223-2.641 21.048-1.27 29.478 4.113 11.985 7.719 17.978 22.193 17.978 43.417 0 3.148-.533 8.102-1.601 14.854-1.675 10.82-4.189 20.724-7.54 29.709-1.117 2.895-2.26 5.663-3.428 8.306zM93.312 94.971c-4.604-.616-9.961-2.598-16.073-5.942-2.895-1.625-8.836-5.458-17.824-11.501-4.875-3.199-7.694-7.033-8.456-11.502-.304-2.438-.533-4.291-.685-5.561-.254-2.032-.686-3.809-1.295-5.332.304-.305.609-.584.914-.838.71-.508 1.472-1.041 2.285-1.6 7.059-4.824 13.533-8.429 19.424-10.816 8.227-2.691 17.393-2.666 27.499.077.711.203 1.421.406 2.132.609 1.168 1.016 2.387 2.107 3.656 3.275.915 1.219 2.134 2.768 3.657 4.647.643.78 1.342 1.618 2.095 2.514-.705 1.201-1.453 2.471-2.248 3.809l.076.076c-2.031 5.688-6.018 15.768-11.959 30.24-1.195 2.924-2.26 5.54-3.198 7.845z"/>
  <path fill="#57493B" stroke="#56483A" stroke-linecap="round" stroke-linejoin="round" stroke-miterlimit="10" d="M410.725 104.95c-1.263-3.24-3.676-9.181-7.238-17.826-1.063-2.589-2.055-5.025-2.969-7.312-1.015-1.778-1.98-3.885-2.896-6.323-.052-.101-.836-2.361-2.358-6.779-1.578-3.91-2.795-7.059-3.658-9.445-.457-.965-.86-1.702-1.219-2.209-.373-.679-.738-1.352-1.104-2.019.788-.905 1.514-1.755 2.172-2.552 1.522-1.879 2.739-3.428 3.653-4.647 1.271-1.168 2.49-2.26 3.656-3.275.711-.203 1.422-.406 2.135-.609 10.104-2.743 19.271-2.768 27.499-.077 3.604 1.473 7.41 3.377 11.426 5.713 2.589 1.523 5.255 3.225 7.999 5.104.812.559 1.571 1.092 2.285 1.6 2.386 1.98 5.254 4.519 8.604 7.618.561.507 1.092 1.015 1.602 1.523-8.023.406-14.319 1.244-18.892 2.513-.56.153-1.093.304-1.599.457-8.379 2.54-15.186 7.11-20.414 13.711-2.033 2.488-4.929 10.766-8.684 24.834zM48.979 55.132c.609 1.523 1.041 3.3 1.295 5.332.152 1.27.381 3.123.685 5.561.762 4.469 3.58 8.303 8.456 11.502 8.988 6.042 14.93 9.876 17.824 11.501 6.111 3.345 11.469 5.326 16.073 5.942-.941 2.315-1.754 4.32-2.438 6.018-1.219 2.944-2.006 4.951-2.362 6.018-.101.051-.229.101-.381.152-.254.101-.507.229-.762.381-4.367 2.133-9.064 4.85-14.092 8.15-4.012 2.693-6.55 4.546-7.617 5.561-4.925 4.063-8.963 8.709-12.111 13.94-2.184 3.605-3.986 7.693-5.409 12.262-.006.044-.006.08 0 .116-2.293-1.845-6-4.421-11.121-7.732-3.555-2.285-6.297-4.088-8.227-5.408-1.778-3.505-2.92-6.348-3.428-8.531-.406-1.83-.838-6.02-1.295-12.568-.406-5.536-.609-9.016-.609-10.437 0-7.211 1.168-13.888 3.503-20.032 2.691-7.212 6.932-13.687 12.721-19.425.508-.508 1.041-1.016 1.599-1.523 2.898-2.692 5.462-4.952 7.696-6.78zM150.67 170.916c-6.587.116-12.122 2.098-16.605 5.941-5.281 4.467-7.922 10.538-7.922 18.206 0 .459 1.193 4.595 3.581 12.416 3.976 7.063 10.387 10.873 19.233 11.426.089 7.912.355 14.136.8 18.664.965 10.459 4.063 20.058 9.293 28.793.834 1.365 2.028 3.154 3.58 5.367-.457.231-.914.448-1.372.649-.101.049-.177.101-.228.149-.204.052-.381.13-.534.229-.101 0-.202.022-.303.076-.305.151-.61.276-.914.381-.661.254-1.321.507-1.981.763l-.077.034c-.082.025-.159.05-.229.078-.173.058-.351.106-.533.152-.2.063-.403.127-.609.188l-.99.307c-.326.087-.657.177-.99.267l-.267.039c-1.317.342-2.663.621-4.037.838-1.779.272-3.594.449-5.447.533-.863.051-1.727.073-2.589.073-20.465 0-35.827-6.219-46.084-18.661-3.301-4.063-5.866-8.531-7.694-13.404-1.219-3.303-1.828-5.688-1.828-7.162 0-16.147 3.326-31.131 9.978-44.942 1.222-2.553 2.555-5.065 3.999-7.539 1.249-2.137 2.582-4.244 3.999-6.322 5.84-8.582 12.416-15.741 19.729-21.482 4.671-3.758 9.648-6.906 14.929-9.444l.077-.077c.266-.128.532-.256.8-.381 1.315-.619 2.648-1.202 3.999-1.75 1.289-.512 2.559-.982 3.809-1.41 1.369-.467 2.714-.887 4.037-1.256.102-.052.203-.077.305-.077l.837-.229c.086 1.107.188 2.327.305 3.657.354 3.96.533 6.171.533 6.626 0 2.794-.457 6.195-1.371 10.208-.601 2.639-1.008 5.329-1.219 8.076z"/>
  <path fill="#FFF" d="M203.762 325.699c-2.184-1.371-4.925-2.795-8.228-4.27-10.765-4.82-16.859-8.1-18.281-9.822-2.64-3.148-4.874-6.984-6.703-11.506-1.93-5.434-3.428-9.596-4.494-12.488-.304-.863-.61-1.703-.914-2.516 1.269-1.574 2.818-3.557 4.646-5.941 6.145-8.123 10.106-13.381 11.883-15.768 1.473-1.979 3.074-6.271 4.799-12.871.813-3.048 1.446-5.713 1.904-7.998 1.168-2.645 2.311-5.41 3.428-8.307 3.35-8.984 5.864-18.889 7.54-29.709 1.068-6.754 1.601-11.705 1.601-14.854 0-21.225-5.993-35.697-17.978-43.417-8.43-5.383-18.255-6.754-29.478-4.113-.61-5.333-.61-8.76 0-10.284.66-1.523 3.681-5.866 9.064-13.025 4.367-5.79 6.551-10.333 6.551-13.635 0-2.132-.583-4.036-1.753-5.713-.342-.394-1.587-1.714-3.731-3.962-.082-.077-.158-.153-.229-.228-3.809-3.962-5.713-9.04-5.713-15.234 0-7.135 1.537-13.953 4.609-20.453 4.213-8.833 11.285-17.073 21.214-24.717 3.554-2.488 6.651-4.672 9.294-6.551 1.116-.355 2.258-.685 3.428-.99 4.418-.457 8.43-.864 12.036-1.218 7.008.253 16.021.381 27.042.381 1.523 0 2.996-.026 4.415-.077 2.743.559 5.487.838 8.228.838 7.313 0 13.762-.254 19.35-.762 9.849 0 18.002-.127 24.45-.381 3.605.354 7.617.762 12.035 1.218 16.25 4.52 24.983 7.033 26.201 7.542 7.012 2.895 13.459 6.601 19.352 11.121.425.334.855.677 1.294 1.028 3.413 2.802 7.147 6.318 11.196 10.55.763.965 1.522 1.879 2.285 2.742.307.355.635.736.989 1.143 1.541 2.915 3.648 6.926 6.323 12.035.577 1.11 1.188 2.279 1.827 3.504.2.355.405.711.608 1.066 3.451 6.145 6.652 11.502 9.601 16.073-.257-.355-.485-.686-.688-.989-3.859.101-7.236.685-10.133 1.751-3.707 1.32-5.559 3.047-5.559 5.179 0 2.54 2.537 4.597 7.617 6.171.151.051.304.101.455.152-.252.56-.381 1.22-.381 1.981 0 1.776 4.088 4.519 12.266 8.226 4.264 1.93 9.421 4.063 15.464 6.399.214.129 1.345.943 3.389 2.437.337.262.705.542 1.104.839 1.522 1.065 3.428 2.462 5.713 4.189.609.405 1.22.813 1.826 1.217 1.625 2.794 3.125 5.562 4.496 8.305 2.378 4.715 4.88 10.706 7.502 17.975.694 1.898 1.393 3.877 2.095 5.944 2.351 7.09 4.826 15.228 7.427 24.411.538 1.918 1.083 3.886 1.641 5.902.305 1.271.635 2.541.989 3.809 7.974 29.81 11.959 52.537 11.959 68.177 0 10.26-2.515 18.64-7.543 25.137-5.076 6.554-13.33 12.086-24.756 16.605-5.993 2.336-13.405 4.598-22.241 6.78-7.16 1.22-12.898 2.183-17.214 2.894-3.657.611-17.038 2.033-40.146 4.268-13.104 1.271-22.953 2.207-29.553 2.818-7.013-1.117-12.316-1.117-15.923 0H266.6c-5.129.201-9.901.43-14.32.686-4.264.256-8.2.508-11.807.766-.862-.105-1.675-.258-2.437-.459l-34.274-.001zm96.817-143.738c-.103.506-.205 1.041-.308 1.598-.763 5.332-1.217 11.25-1.369 17.75 0 4.57 1.853 13.279 5.56 26.127 1.933 6.654 4.14 13.992 6.63 22.016.051.256.606 2.74 1.676 7.465 1.674 5.436 4.111 10.385 7.312 14.854 10.157 14.067 26.206 21.101 48.146 21.101 19.854 0 33.946-8.731 42.274-26.203 4.569-9.547 6.854-19.271 6.854-29.174 0-1.574-.356-3.048-1.067-4.418-.354-.763-.763-1.396-1.218-1.904-.865-13.762-4.188-26.635-9.979-38.618-1.253-2.533-2.598-5.021-4.038-7.468-1.208-2.037-2.476-4.043-3.809-6.017-10.767-15.743-23.944-26.787-39.532-33.136-1.628-.661-3.229-1.244-4.8-1.75-1.343-.437-2.66-.818-3.96-1.143-11.783-3.047-22.04-1.779-30.776 3.809-10.361 6.646-16.225 18.353-17.596 35.111zm35.343 22.394c-2.031-2.945-3.047-6.117-3.047-9.521 0-4.824 1.702-8.709 5.104-11.656 2.996-2.486 6.73-3.782 11.199-3.883 4.416 0 8.15 1.295 11.197 3.883 3.451 2.947 5.18 6.906 5.18 11.885 0 .305-.787 2.996-2.361 8.076-2.795 4.975-7.467 7.461-14.016 7.461-5.944 0-10.362-2.079-13.256-6.245zm-63.07 44.561c.049-.508.076-.99.076-1.445 0-3.658-1.271-6.756-3.809-9.293v-.229c0-.102-.202-.23-.61-.381-.862-.762-1.854-1.477-2.97-2.135-1.729-1.016-3.605-1.826-5.639-2.438-.711-1.373-2.186-2.389-4.416-3.047-6.399-1.83-9.624-2.744-9.676-2.744-2.336-1.166-4.085-2.666-5.255-4.494-2.082-3.4-3.249-5.256-3.505-5.563-6.094-4.268-10.536-4.291-13.33-.074-1.776 2.59-2.666 5.918-2.666 9.979 0 4.823-.404 10.307-1.217 16.454-.813 6.146-1.22 9.242-1.22 9.293 0 3.451 1.118 5.687 3.353 6.703.304.558.661 1.144 1.065 1.75 1.776 2.644 3.859 4.697 6.246 6.17 1.118.714 2.945 3.099 5.483 7.16.307.459.586.89.839 1.297-2.743 1.472-6.777 2.209-12.11 2.209h-.535c-1.419-.459-3.07-.991-4.951-1.603-1.166-.454-2.208-.887-3.121-1.295.404.203.862.408 1.371.611-.609.1-1.22.149-1.83.149-1.573 0-3.427-.582-5.561-1.752-2.181-1.218-5.026-1.826-8.531-1.826-2.896 0-4.952 1.496-6.168 4.492-.56 1.522-.863 3.073-.917 4.647 0 8.683 3.226 14.93 9.676 18.737 4.722 2.74 11.831 4.416 21.328 5.025 5.636.15 10.334.332 14.093.531 1.523-.506 2.791-.762 3.809-.762 1.368 0 6.043.33 14.015.99 7.972.662 14.093.992 18.358.992 13.152 0 23.385-3.859 30.695-11.578.608-.511 1.092-1.041 1.447-1.603 4.521-5.332 6.778-10.308 6.778-14.929 0-3.504-1.042-6.424-3.121-8.76-2.593-2.845-5.487-1.627-8.687 3.653-.609 1.371-1.192 2.644-1.754 3.81-.455.205-.863.381-1.217.535-2.541 1.166-6.195 1.75-10.971 1.75-12.744 0-20.793-1.854-24.146-5.56 0-.916.027-1.627.077-2.134-.05-.102-.077-.204-.077-.307 0-.507-.021-.938-.074-1.295 2.183-.763 4.494-3.099 6.932-7.009 2.537-4.11 3.81-6.805 3.81-8.073.004-2.469-.451-4.676-1.367-6.608zm-18.435-9.293c0-1.98 1.726-2.463 5.181-1.445 3.4 1.064 5.104 2.791 5.104 5.178 0 .711-.022 1.092-.074 1.145-.104.104-.205.277-.308.535-.051 0-.15.125-.305.381-.306.252-.838.381-1.601.381-.151 0-1.547-1.092-4.188-3.273-2.538-2.14-3.809-3.103-3.809-2.902zm-104.128-60.29c.331-.027.66-.039.99-.039 4.469.102 8.201 1.396 11.198 3.883 3.402 2.947 5.103 6.832 5.103 11.656 0 3.403-1.015 6.576-3.047 9.521-2.896 4.166-7.313 6.244-13.254 6.244-.809 0-1.583-.035-2.323-.111-5.344-.531-9.242-2.982-11.693-7.35-1.574-5.08-2.361-7.773-2.361-8.076 0-4.979 1.727-8.938 5.18-11.885 2.817-2.391 6.219-3.673 10.207-3.843zm51.646 103.786l.152-.535c.101 0 .253-.051.458-.152l-.077.078c-.152.102-.304.229-.458.381l-.075.228z"/>
  <path fill="#EEEAE6" stroke="#EDEAE5" stroke-linecap="round" stroke-linejoin="round" stroke-miterlimit="10" d="M375.15 106.396c-.151-.051-.303-.101-.455-.152-5.079-1.574-7.617-3.631-7.617-6.171 0-2.132 1.852-3.859 5.559-5.179 2.896-1.066 6.272-1.65 10.133-1.751.201.304.433.634.688.989.604.966 1.217 1.904 1.826 2.819.051.051.102.125.151.228 1.83 2.792 3.557 5.229 5.182 7.313-2.645-.61-5.08-.964-7.314-1.065-4.471-.154-7.188.836-8.153 2.969zM152.422 142.35l-.837.229c-.102 0-.203.025-.305.077-1.323.369-2.668.789-4.037 1.256-1.25.428-2.52.898-3.809 1.41-1.351.548-2.684 1.131-3.999 1.75-.268.125-.534.253-.8.381l-.077.077c-5.281 2.538-10.258 5.686-14.929 9.444-7.313 5.741-13.889 12.9-19.729 21.482-1.417 2.079-2.75 4.187-3.999 6.323-1.444 2.473-2.777 4.986-3.999 7.539-6.652 13.813-9.978 28.795-9.978 44.941 0 1.475.609 3.859 1.828 7.162 1.828 4.873 4.393 9.344 7.694 13.404 10.258 12.441 25.619 18.66 46.084 18.66.863 0 1.727-.021 2.589-.072 1.853-.084 3.668-.262 5.447-.533 1.374-.217 2.72-.496 4.037-.838l.267-.039c.333-.09.664-.18.99-.268l.99-.307c.206-.063.409-.125.609-.188.182-.047.36-.098.533-.152.07-.027.146-.053.229-.076l.077-.035c.66-.256 1.32-.51 1.981-.764.303-.104.608-.229.914-.381.101-.055.202-.076.303-.076.153-.102.331-.18.534-.229.051-.051.126-.104.228-.15.458-.201.915-.418 1.372-.65.355-.178.711-.369 1.066-.568l8.607-6.02c.153-.148.33-.303.534-.457.558-.557 1.143-1.143 1.751-1.75.204-.205.433-.408.687-.607.405-.46.813-.914 1.217-1.373.762-.861 1.523-1.752 2.285-2.666l8.76-14.016c.052-.205.128-.381.229-.535.204-.402.408-.813.61-1.217-.458 2.285-1.092 4.951-1.904 7.998-1.726 6.602-3.327 10.895-4.799 12.871-1.776 2.387-5.738 7.646-11.883 15.77-1.828 2.387-3.377 4.365-4.646 5.939.303.813.61 1.652.914 2.517 1.066 2.896 2.564 7.058 4.494 12.489 1.829 4.521 4.063 8.355 6.703 11.506 1.422 1.725 7.516 5.002 18.281 9.822 3.303 1.475 6.043 2.896 8.228 4.27h-2.666c-.354-.051-7.311-.711-20.871-1.982-4.724-.455-10.232-.986-16.53-1.598-.813-.051-1.625-.127-2.438-.229-9.19-.913-16.858-1.676-23.003-2.283-9.243-.967-14.956-1.625-17.139-1.982-4.317-.711-10.055-1.674-17.216-2.893-8.835-2.186-16.25-4.445-22.242-6.781-11.426-4.521-19.678-10.054-24.756-16.604-5.027-6.498-7.541-14.877-7.541-25.138 0-15.64 3.986-38.367 11.959-68.176.355-1.269.685-2.537.99-3.81.557-2.025 1.103-4.004 1.637-5.938 2.604-9.166 5.079-17.292 7.427-24.376.702-2.067 1.401-4.045 2.095-5.944 2.625-7.269 5.125-13.26 7.503-17.975 1.371-2.743 2.869-5.51 4.494-8.305.61-.404 1.219-.812 1.828-1.217 2.285-1.727 4.189-3.125 5.713-4.189 2.742-2.032 4.24-3.125 4.495-3.276 6.042-2.336 11.197-4.469 15.463-6.399 8.176-3.708 12.264-6.45 12.264-8.226 0-.762-.126-1.422-.381-1.981-.965-2.133-3.681-3.123-8.15-2.97-2.234.101-4.672.456-7.313 1.065 1.625-2.083 3.352-4.52 5.18-7.313.05-.103.102-.177.152-.228.609-.915 1.218-1.854 1.829-2.819 1.099-1.707 2.229-3.521 3.389-5.447 1.974-3.231 4.043-6.775 6.208-10.626.203-.355.406-.71.609-1.066.642-1.229 1.251-2.409 1.829-3.542 2.675-5.085 4.782-9.084 6.322-11.997.355-.406.686-.787.99-1.143.762-.863 1.523-1.777 2.285-2.742 4.052-4.231 7.784-7.748 11.198-10.55.437-.351.868-.693 1.295-1.028.66-.508 1.346-.99 2.057-1.448l13.788-8.074c1.116-.559 2.285-1.092 3.502-1.599 1.119-.458 8.709-2.641 22.778-6.551-2.643 1.879-5.74 4.063-9.294 6.551-9.929 7.644-17 15.884-21.214 24.717-3.072 6.5-4.609 13.318-4.609 20.453 0 6.195 1.904 11.272 5.713 15.234.071.075.147.15.229.228 2.144 2.248 3.389 3.568 3.731 3.962 1.169 1.677 1.753 3.581 1.753 5.713 0 3.302-2.184 7.845-6.551 13.635-5.383 7.159-8.404 11.502-9.064 13.025-.61 1.523-.61 4.951 0 10.284-.153 0-.305.025-.458.076l-.611.152zm148.157 39.611c-.256 2.641-.381 5.406-.381 8.303 0 3.146.532 8.098 1.598 14.854 1.679 10.815 4.188 20.719 7.543 29.707 10.563 28.184 27.321 42.274 50.274 42.274 20.465 0 35.824-6.222 46.084-18.662 3.3-4.062 5.865-8.53 7.691-13.403 1.221-3.304 1.828-5.688 1.828-7.162 0-2.285-.05-4.521-.15-6.703.455.508.863 1.144 1.218 1.904.711 1.37 1.067 2.844 1.067 4.418 0 9.901-2.285 19.627-6.854 29.174-8.328 17.472-22.42 26.203-42.276 26.203-21.938 0-37.984-7.031-48.144-21.101-3.198-4.47-5.636-9.42-7.312-14.854-1.068-4.724-1.625-7.209-1.676-7.465-2.49-8.021-4.697-15.359-6.63-22.015-3.707-12.849-5.56-21.558-5.56-26.127.151-6.5.606-12.418 1.369-17.75.106-.554.211-1.089.311-1.595zM259.9 232.998v.074c-.813-.254-1.6-.455-2.359-.607-1.371-.256-2.794-.436-4.268-.535-1.166-.051-2.388-.051-3.656 0h-.303c-1.625.1-3.199.279-4.723.535-4.419.762-8.251 2.336-11.503 4.723-2.538 1.877-4.419 4.063-5.636 6.549-.051.053-.102.104-.152.154v.074c-1.067 2.285-1.601 4.799-1.601 7.543v.455c.152 2.488 1.446 5.029 3.887 7.617 3.35 3.506 8.328 5.74 14.928 6.703.66 0 1.348.025 2.056.078-.354 2.74-.583 6.32-.684 10.738-2.997 6.805-7.642 10.209-13.94 10.209-1.268 0-5.181-.561-11.729-1.68-6.502-1.166-10.385-1.75-11.655-1.75-2.386 0-4.062.813-5.029 2.438-.455.863-.684 1.826-.684 2.896 0 3.199 2.285 5.865 6.855 7.998 4.267 2.029 9.218 3.047 14.854 3.047 11.679 0 20.314-3.274 25.899-9.827l.077.077v.229c.051-.053.101-.075.151-.075l.072.075v-.229c.053 0 .078-.026.078-.077 5.585 6.553 14.221 9.827 25.896 9.827 5.638 0 10.588-1.018 14.854-3.047 4.569-2.133 6.854-4.799 6.854-7.998 0-1.067-.229-2.03-.686-2.896-.967-1.625-2.643-2.438-5.027-2.438-1.271 0-5.152.584-11.654 1.75-6.549 1.119-10.463 1.68-11.729 1.68-6.3 0-10.942-3.404-13.938-10.209-.102-4.418-.305-7.998-.61-10.738h1.22c.152 0 .735-.078 1.754-.229v-.077c2.486-.608 4.771-1.701 6.854-3.274 1.217-.914 2.358-2.007 3.429-3.273 2.893-3.403 4.492-6.934 4.797-10.59.916 1.933 1.371 4.14 1.371 6.627 0 1.271-1.271 3.963-3.81 8.074-2.437 3.909-4.749 6.246-6.931 7.008.051.356.073.789.073 1.295 0 .103.027.205.077.308-.05.506-.077 1.217-.077 2.133 3.354 3.705 11.402 5.56 24.146 5.56 4.774 0 8.43-.584 10.971-1.75.354-.153.763-.33 1.218-.534.561-1.166 1.144-2.438 1.754-3.81 3.196-5.281 6.094-6.498 8.686-3.654 2.079 2.337 3.121 5.257 3.121 8.761 0 4.621-2.26 9.597-6.778 14.929-.356.561-.839 1.092-1.448 1.602-7.312 7.719-17.543 11.578-30.695 11.578-4.268 0-10.389-.33-18.357-.992-7.972-.66-12.646-.989-14.015-.989-1.018 0-2.285.257-3.809.763-3.759-.201-8.457-.381-14.093-.533-9.497-.609-16.606-2.285-21.328-5.025-6.451-3.809-9.676-10.057-9.676-18.736.054-1.574.357-3.125.917-4.648 1.217-2.995 3.273-4.491 6.168-4.491 3.505 0 6.35.608 8.531 1.825 2.133 1.171 3.987 1.752 5.561 1.752.61 0 1.221-.051 1.83-.149-.509-.203-.967-.407-1.371-.61.913.407 1.955.84 3.121 1.295 1.881.608 3.532 1.144 4.951 1.603h.535c5.333 0 9.367-.737 12.11-2.209-.253-.407-.532-.838-.839-1.297-2.538-4.063-4.365-6.447-5.483-7.16-2.387-1.474-4.47-3.526-6.246-6.17-.404-.606-.762-1.192-1.065-1.75-2.234-1.019-3.353-3.252-3.353-6.703 0-.051.407-3.147 1.22-9.293.813-6.147 1.217-11.631 1.217-16.455 0-4.062.89-7.389 2.666-9.979 2.794-4.215 7.236-4.189 13.33.076.256.305 1.423 2.157 3.505 5.563 1.17 1.826 2.919 3.326 5.255 4.492.054 0 3.276.914 9.675 2.744 2.233.642 3.705 1.656 4.416 3.029zm9.219 5.18c-.202-.205-.408-.408-.61-.609.408.15.61.279.61.383v.226zm-67.184 44.941l.074-.229c.155-.152.307-.279.458-.383l.077-.076c-.205.102-.357.15-.458.15l-.151.538z"/>
  <path fill="#181818" d="M460.313 63.436c-.511-.508-1.041-1.016-1.603-1.523-3.351-3.099-6.219-5.637-8.604-7.618-.714-.508-1.476-1.041-2.285-1.6-2.744-1.879-5.41-3.58-7.999-5.104-4.016-2.336-7.822-4.24-11.426-5.713-8.229-2.691-17.396-2.666-27.501.077l-2.133.609c-1.166 1.016-2.388 2.107-3.658 3.275-.912 1.219-2.129 2.768-3.651 4.647-.658.797-1.386 1.647-2.172 2.552.364.667.729 1.339 1.104 2.019.356.507.762 1.244 1.221 2.209.861 2.387 2.08 5.535 3.656 9.445 1.522 4.418 2.309 6.678 2.358 6.779.913 2.438 1.881 4.545 2.896 6.323.912 2.286 1.903 4.723 2.969 7.312 3.563 8.646 5.977 14.586 7.236 17.826.336.887.59 1.571.762 2.056.103.051.229.101.383.152.256.101.509.229.762.381 4.367 2.133 9.066 4.85 14.092 8.15 4.016 2.693 6.554 4.546 7.617 5.561 4.928 4.063 8.965 8.709 12.113 13.94 1.625 2.742 3.07 5.764 4.341 9.063.193 1.229.435 2.434.724 3.618 2.249-1.869 6.069-4.548 11.467-8.036 3.556-2.285 6.296-4.088 8.227-5.408 1.776-3.505 2.919-6.348 3.428-8.531.405-1.83.836-6.02 1.295-12.568.404-5.536.609-9.016.609-10.437-.003-15.589-5.412-28.742-16.228-39.456zm38.009 57.663c-1.27 6.195-3.502 12.542-6.701 19.043-2.234 4.52-7.771 11.12-16.606 19.805-2.592 2.54-5.052 4.774-7.388 6.702 0-.05-.027-.101-.077-.151-2.646 2.428-5.056 4.371-7.235 5.826.381 1.419.84 3.258 1.37 5.522-.101.054-.203.128-.307.229.256 1.018.536 2.004.84 2.972.103.254.229.482.381.686.404 1.93.862 4.063 1.371 6.396.764 2.592 1.6 4.852 2.517 6.781 1.368 5.838 2.056 10.895 2.056 15.158 0 .963.938 8.379 2.818 22.242 1.928 13.863 2.895 25.291 2.895 34.275 0 12.395-1.22 21.965-3.656 28.721-3.3 9.344-9.725 17.289-19.271 23.84-15.336 10.563-42.605 19.68-81.809 27.348-3.606.914-7.416 1.854-11.428 2.816-2.945 1.574-6.755 2.869-11.426 3.889-6.957 1.521-17.141 3.02-30.547 4.492l-36.792.15-2.818.609h-53.32c-14.777.203-28.286-.582-40.524-2.363h-1.372c-2.639 0-4.671-.381-6.094-1.143-5.789-.051-15.488-1.623-29.098-4.723-5.586-1.271-10.792-2.516-15.615-3.73-39.204-7.668-66.474-16.783-81.81-27.35-9.547-6.549-15.971-14.494-19.271-23.84-2.438-6.754-3.656-16.326-3.656-28.719 0-8.986.965-20.412 2.895-34.277 1.879-13.863 2.818-21.279 2.818-22.242 0-2.59.254-5.482.762-8.684.304-.813.609-1.623.914-2.436 3.445-9.365 6.327-17.81 8.646-25.329-2.701-1.514-5.811-3.889-9.331-7.123-.051.051-.076.102-.076.151-2.336-1.928-4.799-4.162-7.389-6.702-8.836-8.686-14.372-15.285-16.605-19.805-3.2-6.501-5.434-12.848-6.704-19.043C.559 115.766 0 109.622 0 102.665 0 89.716 1.803 79.126 5.408 70.9c4.215-9.649 12.441-20.466 24.68-32.45 7.871-7.719 15.768-12.873 23.689-15.463 10.309-3.403 23.284-3.758 38.924-1.066 6.855 2.083 15.717 5.917 26.584 11.502.986.52 1.938 1.027 2.856 1.523 1.659-1.647 4.49-4.364 8.494-8.15 1.371-.863 2.844-1.65 4.418-2.361 10.105-6.958 23.334-12.746 39.686-17.367C189.161 3.005 202.594.694 215.035.136c4.166-.203 7.617-.178 10.36.077 3.199-.254 6.627-.254 10.284 0 3.809.355 7.819.685 12.032.99 4.268-.356 8.1-.534 11.504-.534 1.727-.152 3.428-.305 5.104-.457 3.656-.254 7.084-.254 10.283 0 2.744-.254 6.194-.28 10.36-.077 12.44.559 25.872 2.869 40.294 6.932 16.354 4.621 29.579 10.41 39.688 17.367 3.76 1.676 7.031 3.784 9.826 6.322 1.371.813 2.691 1.777 3.959 2.895.176.175.367.353.571.533.458-.253.929-.507 1.41-.762 10.867-5.585 19.728-9.419 26.584-11.502 12.544-2.184 23.387-2.361 32.527-.533 2.23.406 4.363.939 6.396 1.6 7.921 2.59 15.818 7.744 23.691 15.463 12.238 11.984 20.462 22.801 24.679 32.45 3.606 8.226 5.409 18.815 5.409 31.765.004 6.957-.556 13.101-1.674 18.434zm-305.528-92.78c-14.068 3.911-21.659 6.094-22.778 6.551-1.217.507-2.386 1.041-3.502 1.599l-13.788 8.074c-.711.458-1.397.939-2.057 1.448-.427.334-.858.677-1.295 1.028-3.414 2.802-7.146 6.319-11.198 10.55-.762.965-1.523 1.879-2.285 2.742-.304.355-.634.736-.99 1.143-1.54 2.913-3.647 6.912-6.322 11.997-.577 1.134-1.187 2.314-1.829 3.542-.203.355-.406.711-.609 1.066-2.165 3.851-4.234 7.395-6.208 10.626-1.161 1.925-2.291 3.74-3.389 5.447-.61.966-1.219 1.904-1.829 2.819-.05.051-.102.125-.152.228-1.828 2.792-3.554 5.229-5.18 7.313 2.641-.61 5.079-.964 7.313-1.065 4.469-.153 7.186.836 8.15 2.97.254.56.381 1.22.381 1.981 0 1.776-4.087 4.519-12.264 8.226-4.266 1.93-9.42 4.063-15.463 6.399-.254.151-1.752 1.244-4.495 3.276-1.523 1.065-3.428 2.462-5.713 4.189-.609.405-1.218.813-1.828 1.217-1.625 2.794-3.123 5.562-4.494 8.305-2.378 4.715-4.879 10.706-7.503 17.975-.694 1.898-1.393 3.877-2.095 5.944-2.348 7.084-4.823 15.21-7.427 24.376-.534 1.934-1.08 3.912-1.637 5.938-.305 1.271-.635 2.541-.99 3.811-7.973 29.809-11.959 52.535-11.959 68.176 0 10.26 2.513 18.641 7.541 25.139 5.079 6.553 13.33 12.084 24.756 16.604 5.993 2.336 13.407 4.598 22.242 6.781 7.161 1.219 12.899 2.182 17.216 2.893 2.183.357 7.896 1.018 17.139 1.982 6.145.607 13.813 1.369 23.003 2.283.814.104 1.626.18 2.438.229 6.298.609 11.807 1.143 16.53 1.598 13.56 1.271 20.516 1.934 20.871 1.982H238.039c.762.201 1.574.354 2.437.459 3.606-.258 7.543-.51 11.807-.766 4.419-.256 9.191-.482 14.32-.686h26.662c3.604-1.117 8.909-1.117 15.922 0 6.6-.611 16.451-1.549 29.553-2.818 23.107-2.232 36.488-3.654 40.146-4.268 4.313-.711 10.054-1.674 17.214-2.894 8.836-2.185 16.248-4.444 22.24-6.78 11.426-4.521 19.681-10.054 24.756-16.605 5.028-6.497 7.543-14.877 7.543-25.137 0-15.64-3.985-38.367-11.959-68.177-.354-1.268-.687-2.536-.988-3.809-.559-2.019-1.104-3.984-1.642-5.902-2.601-9.184-5.076-17.32-7.427-24.411-.702-2.067-1.398-4.045-2.095-5.944-2.622-7.269-5.124-13.26-7.503-17.975-1.371-2.743-2.871-5.51-4.494-8.305-.607-.404-1.219-.812-1.827-1.217-2.285-1.727-4.188-3.125-5.713-4.189-.399-.297-.769-.577-1.104-.839-2.045-1.494-3.176-2.307-3.39-2.437-6.043-2.336-11.2-4.469-15.464-6.399-8.178-3.708-12.266-6.45-12.266-8.226 0-.762.129-1.422.381-1.981.965-2.133 3.682-3.123 8.148-2.97 2.234.101 4.673.456 7.313 1.065-1.625-2.083-3.35-4.52-5.18-7.313-.052-.103-.103-.177-.152-.228-.608-.915-1.221-1.854-1.825-2.819-2.946-4.57-6.146-9.928-9.601-16.073-.203-.355-.408-.71-.608-1.066-.642-1.225-1.25-2.394-1.827-3.504-2.675-5.109-4.782-9.121-6.323-12.035-.354-.406-.685-.787-.989-1.143-.763-.863-1.522-1.777-2.285-2.742-4.049-4.232-7.783-7.748-11.196-10.55-.438-.351-.869-.693-1.294-1.028-5.893-4.52-12.34-8.227-19.352-11.121-1.218-.508-9.951-3.021-26.201-7.542-4.418-.457-8.431-.864-12.035-1.218-6.448.253-14.602.381-24.45.381-5.588.507-12.036.762-19.35.762-2.74 0-5.484-.28-8.228-.838-1.419.05-2.892.077-4.415.077-11.021 0-20.034-.127-27.042-.381-3.606.354-7.617.762-12.036 1.218-1.167.307-2.31.637-3.426.992zm131.321 166.515c0-7.518 2.615-13.51 7.847-17.977 4.621-3.809 10.36-5.79 17.216-5.941 6.855 0 12.594 1.979 17.215 5.941 5.28 4.467 7.924 10.538 7.924 18.206 0 .459-1.195 4.595-3.584 12.416-4.313 7.668-11.5 11.502-21.555 11.502-9.09 0-15.871-3.198-20.341-9.599-3.148-4.468-4.722-9.318-4.722-14.548zm11.807 9.521c2.896 4.166 7.313 6.244 13.256 6.244 6.549 0 11.221-2.486 14.016-7.461 1.574-5.08 2.361-7.773 2.361-8.076 0-4.979-1.729-8.938-5.18-11.887-3.047-2.588-6.781-3.883-11.197-3.883-4.469.102-8.203 1.396-11.199 3.883-3.399 2.947-5.104 6.832-5.104 11.656 0 3.407 1.016 6.579 3.047 9.524zm-67.413 33.213c.202.201.408.404.61.607 2.538 2.537 3.809 5.637 3.809 9.295 0 .453-.027.938-.076 1.443-.305 3.654-1.903 7.188-4.797 10.59-1.068 1.27-2.212 2.359-3.429 3.271-2.083 1.574-4.368 2.666-6.854 3.275v.078c-1.019.15-1.602.229-1.754.229h-1.22c.308 2.74.509 6.32.61 10.738 2.996 6.805 7.641 10.209 13.939 10.209 1.268 0 5.18-.559 11.729-1.678 6.502-1.166 10.385-1.75 11.654-1.75 2.388 0 4.063.813 5.027 2.438.456.863.686 1.826.686 2.896 0 3.199-2.284 5.865-6.854 7.998-4.267 2.029-9.218 3.047-14.854 3.047-11.678 0-20.313-3.273-25.896-9.828 0 .053-.025.078-.078.078v.229l-.072-.075c-.053 0-.103.022-.151.075v-.229l-.077-.078c-5.585 6.555-14.221 9.828-25.899 9.828-5.636 0-10.587-1.018-14.854-3.047-4.57-2.133-6.855-4.799-6.855-7.998 0-1.066.229-2.029.684-2.896.967-1.625 2.643-2.438 5.029-2.438 1.271 0 5.153.584 11.655 1.75 6.549 1.119 10.462 1.678 11.729 1.678 6.299 0 10.943-3.404 13.94-10.209.101-4.418.33-7.998.684-10.738-.708-.053-1.396-.076-2.056-.076-6.6-.965-11.578-3.197-14.928-6.703-2.44-2.588-3.734-5.129-3.887-7.617v-.455c0-2.742.533-5.258 1.601-7.543v-.072c.051-.055.102-.104.152-.154 1.217-2.488 3.098-4.672 5.636-6.549 3.252-2.389 7.084-3.961 11.503-4.725 1.523-.256 3.098-.438 4.723-.533h.303c1.271-.053 2.49-.053 3.656 0 1.474.1 2.896.277 4.268.533.762.152 1.548.354 2.359.605v-.072c2.033.607 3.91 1.422 5.639 2.438 1.111.661 2.103 1.374 2.966 2.135zm-14.092 2.055c0-.201 1.271.762 3.81 2.896 2.644 2.184 4.037 3.273 4.188 3.273.762 0 1.295-.129 1.601-.381.152-.256.254-.381.305-.381.103-.258.201-.436.308-.535.052-.053.074-.434.074-1.145 0-2.387-1.702-4.111-5.104-5.178-3.456-1.012-5.182-.529-5.182 1.451zM48.979 55.132c-2.235 1.828-4.799 4.087-7.694 6.78-.559.507-1.091 1.015-1.599 1.523-5.789 5.738-10.03 12.213-12.721 19.425-2.335 6.144-3.503 12.821-3.503 20.032 0 1.421.203 4.901.609 10.437.457 6.549.889 10.738 1.295 12.568.507 2.183 1.65 5.025 3.428 8.531 1.93 1.319 4.671 3.123 8.227 5.408 5.121 3.311 8.828 5.887 11.121 7.732-.006-.036-.006-.071 0-.116 1.422-4.569 3.225-8.657 5.409-12.262 3.148-5.231 7.186-9.877 12.111-13.94 1.067-1.015 3.605-2.868 7.617-5.561 5.028-3.3 9.725-6.017 14.092-8.15.254-.152.508-.28.762-.381.152-.051.28-.101.381-.152.355-1.067 1.143-3.074 2.362-6.018.684-1.697 1.497-3.703 2.438-6.018.938-2.305 2.003-4.92 3.199-7.847 5.942-14.472 9.929-24.552 11.959-30.24l-.076-.076c.794-1.337 1.543-2.607 2.248-3.809-.753-.896-1.452-1.733-2.095-2.514-1.523-1.879-2.743-3.428-3.657-4.647-1.269-1.168-2.488-2.26-3.656-3.275-.711-.203-1.421-.406-2.132-.609-10.106-2.743-19.272-2.768-27.499-.077-5.891 2.387-12.365 5.993-19.424 10.816-.813.559-1.575 1.092-2.285 1.6-.308.256-.612.535-.917.84zm99.977 163.772c-8.846-.553-15.257-4.361-19.233-11.426-2.387-7.822-3.581-11.957-3.581-12.416 0-7.668 2.641-13.738 7.922-18.207 4.483-3.844 10.019-5.825 16.605-5.941h.609c6.856.151 12.593 2.133 17.214 5.941 5.231 4.467 7.847 10.458 7.847 17.977 0 5.229-1.574 10.08-4.722 14.549-4.469 6.397-11.248 9.599-20.338 9.599-.793 0-1.568-.025-2.323-.076zm1.333-39.571c-3.988.17-7.39 1.451-10.207 3.844-3.453 2.947-5.18 6.906-5.18 11.886 0 .304.787 2.996 2.361 8.076 2.451 4.364 6.349 6.815 11.693 7.35.74.076 1.514.111 2.323.111 5.941 0 10.358-2.078 13.254-6.244 2.032-2.944 3.047-6.117 3.047-9.521 0-4.824-1.701-8.709-5.103-11.655-2.997-2.486-6.729-3.783-11.198-3.884-.33-.002-.659.01-.99.037z"/>
</svg>