<svg id="Layer_1" xmlns="http://www.w3.org/2000/svg" width="500" height="170">
  <g id="Skull_Leg">
    <g fill="#E8E3D9">
      <path d="M141.734 98.455l.652-.53c.742-.603 1.664-1.003 2.742-1.19 1.558-.274 2.842.214 3.966 1.524 1.276 1.37 1.923 3.384 1.923 5.98 0 .161-.099 1.338-.746 7.34-.299 1.144-.625 2.147-.969 2.981l-.212.516.534.156c2.408.701 4.8 1.541 7.109 2.494l.472.195.185-.477c.954-2.461 2.28-5.342 3.942-8.564.842-1.686 1.729-3.244 2.637-4.636l.065-.147c.121-.464.248-.959.382-1.486l.05-.198-.103-.177c-.155-.266-.296-.572-.419-.912-.343-.932-.899-3.643-1.653-8.064-1.464-8.159-5.141-12.295-10.938-12.295l-8.909.168.573.863v.992c0 .426-.156 1.625-.9 4.911-.9 3.74-1.004 4.727-1.004 5.144 0 1.394.157 2.937.466 4.587l.155.825zM155.775 130.909c-4.546-2.247-10.031-3.827-16.288-4.692-.33-.055-.64-.083-.92-.083h-.208l-.146.146c-.73.732-1.728 1.505-2.96 2.293-3.187 2.019-4.803 4.697-4.803 7.965 0 3.842 1.937 6.783 5.761 8.75.581.29 1.124.611 1.613.954l.107.075.13.013c2.604.254 5.439.383 8.428.383 1.854 0 5.076-.883 9.846-2.696 4.529-1.666 7.13-2.875 7.951-3.697l.183-.183-.044-.256c-.584-3.402-3.495-6.421-8.65-8.972zM362.602 105.559l.426.02c2.231.102 4.828.152 7.718.152h.694l-.222-.658c-.146-.436-.269-.901-.354-1.289 0-4.691.784-9.247 2.327-13.534.798-2.103 1.396-4.231 1.776-6.333l.025-.141-.054-.133c-.281-.712-.502-1.561-.654-2.523l-.178-1.109-.705.874c-.543.669-1.361.995-2.508.995-1.619 0-2.582-.663-3.039-2.122-.123-.307-.27-.987-.27-2.48 0-.392.014-.775.038-1.148l.042-.643-.633.118c-.197.037-.393.076-.584.117l-.111.038c-2.207 1.054-4.146 1.922-5.781 2.587-1.164.528-3.768 2.469-7.957 5.935-2.059 1.706-3.705 2.95-4.896 3.694l-.324.202.109.365c.443 1.479.72 3.03.82 4.63.199 1.945.326 4.34.377 7.117l.018.12c.229.854.688 1.601 1.363 2.22l.701.645.131-.942c.24-1.713.836-3.08 1.791-4.085 1.105-1.292 2.377-1.786 3.955-1.51 3.39.574 5.321 3.322 5.906 8.402l.053.419zM378.156 126.373c-2.766-.563-5.93-.795-9.409-.695l-.485.016v.714c0 2.145-1.029 4.309-3.06 6.433-3.027 3.168-3.415 4.251-3.415 4.842v.477l.197.148c2.164 1.648 6.231 3.569 12.091 5.711l.176.063.175-.067c1.744-.668 3.359-1.449 4.805-2.324 4.203-2.574 6.334-5.614 6.334-9.035-.002-3.049-2.49-5.16-7.409-6.283z"/>
    </g>
    <g fill="#CFC4AD">
      <path d="M160.201 38.84c-8.622 0-15.965 4.613-21.827 13.714-1.26 1.982-2.96 4.622-5.101 7.918l-.054.112c-.525 1.549-1.244 3.836-2.139 6.799-.402 1.364-.752 2.601-1.051 3.713-.492.82-1.016 1.718-1.57 2.695l-.063.201c-.01.116-.021.237-.032.364l-.127-.026-.128.443c-.763 2.645-1.329 4.782-1.684 6.352l-.018.08.008.082c.307 2.971 1.035 5.986 2.16 8.954 1.541 4.276 2.326 8.813 2.332 13.487-.649 2.942-1.31 5.658-1.963 8.074l-.174.643.665-.012c2.853-.052 5.9.127 9.069.529l.563.071-.001-6.63c.196-2.992.834-5.319 1.907-6.93.373-.604.843-1.123 1.397-1.537l.249-.188-.057-.307c-.298-1.59-.449-3.07-.449-4.402 0-.389.169-1.557.978-4.916.623-2.753.926-4.434.926-5.138v-.884l7.346-.139c5.307 0 8.559 3.752 9.943 11.468.774 4.541 1.33 7.235 1.699 8.235.144.396.31.756.495 1.071l.592 1.016.321-1.13c.41-1.446.905-3.104 1.473-4.951l1.23-4.071c.405-1.384.735-2.541.993-3.472.198-.703.353-1.274.465-1.713l.129-.04.082-.238c.713-2.087 1.594-4.396 2.616-6.863 3.563-8.553 5.371-15.102 5.371-19.465 0-4.46-.781-8.675-2.321-12.525-2.761-6.93-7.555-10.444-14.25-10.444zM136.663 144.396c-3.508-1.804-5.213-4.375-5.213-7.858 0-2.942 1.419-5.271 4.34-7.121 1.296-.829 2.349-1.646 3.131-2.429l.724-.725-1.017-.125c-5.815-.716-10.859-.637-15.026.237-4.908 1.12-7.397 3.231-7.397 6.276 0 3.42 2.131 6.459 6.333 9.035 3.854 2.361 9.075 3.924 15.517 4.641l1.948.217-1.606-1.124c-.529-.369-1.114-.715-1.734-1.024zM339.662 105.732c.777 1.809 1.385 3.539 1.805 5.146l.034.095c1.165 2.377 2.134 4.555 2.878 6.473l.186.478.472-.194c2.309-.953 4.7-1.793 7.108-2.496l.533-.155-.212-.515c-.343-.834-.669-1.838-.954-2.91-.66-6.063-.759-7.246-.759-7.412v-.152c0-.625.048-1.21.144-1.738l.049-.271-.202-.186c-.519-.476-.873-1.041-1.058-1.686-.052-2.779-.181-5.182-.381-7.119-.096-1.525-.349-3.027-.753-4.471 1.196-.78 2.771-1.979 4.687-3.568 4.063-3.36 6.666-5.31 7.715-5.786 1.593-.647 3.49-1.495 5.643-2.52-.005.176-.008.354-.008.533 0 1.345.111 2.278.327 2.815.569 1.823 1.946 2.787 3.981 2.787 1.445 0 2.551-.459 3.283-1.366l.143-.176-.038-.224c-.103-.588-.177-1.225-.222-1.857 0-7.506-.388-13.735-1.148-18.512-.197-1.263-.512-2.522-.936-3.743-.884-2.533-2.271-4.968-4.123-7.236-.922-1.129-1.988-2.25-3.174-3.33-4.998-4.534-10.697-6.833-16.943-6.833-8.035 0-14.771 3.671-20.02 10.91l-.082.183c-.029.126-.062.251-.105.385-1.125 3.757-1.696 7.496-1.696 11.113 0 .926.024 1.871.077 2.805.449 9.288 3.21 19.106 8.201 29.179l3.463 7.08c1.571 3.285 1.996 4.231 2.085 4.474zM363.266 112.963c3.168-.402 6.215-.584 9.068-.529l.618.012-.119-.607c-.052-.265-.104-.504-.161-.719-.505-1.874-.988-3.891-1.438-5.992l-.086-.396h-.403c-2.874 0-5.455-.051-7.673-.151l-.586-.026.066.583c.1.88.149 1.911.149 3.144v4.757l.565-.076zM374.419 143.076c-5.588-2.041-9.498-3.863-11.631-5.418.017-.242.319-1.18 3.137-4.129 2.214-2.315 3.337-4.713 3.337-7.123v-.741l-.513.013c-2.038.051-4.208.231-6.457.538-2.396.356-4.715.795-6.935 1.313l-5.65 1.809c-.148.012-.297.055-.441.126l-.233.123c-.13.043-.235.087-.322.138-.162.02-.295.065-.401.144l-.496.254c-.155.052-.287.104-.397.155-.21.057-.399.138-.615.279l-.082.031c-.27.107-.51.215-.722.32-2.844 1.396-5.023 2.977-6.477 4.689-1.172 1.332-1.904 2.771-2.174 4.278l-.047.257.186.186c.82.82 3.42 2.029 7.945 3.695 4.776 1.814 7.998 2.697 9.853 2.697h1.235l9.732-.691c3.01-.459 5.758-1.133 8.168-2.004l1.294-.468-1.294-.471z"/>
    </g>
    <g fill="#171717">
      <path d="M187.429 51.59c-.516-2.834-2.2-6.858-5.002-11.954-1.246-2.336-2.957-4.363-5.088-6.025-2.691-2.07-5.89-3.461-9.518-4.135-5.144-.837-9.357-1.262-12.521-1.262-2.477 0-4.322.248-5.64.756l-.146.087c-.42.361-.848.706-1.283 1.036-3.547 1.218-7.557 3.291-11.917 6.161-6.262 4.073-11.504 8.722-15.58 13.816-2.06 2.547-3.696 5.055-4.867 7.456-1.492.872-2.352 2.967-2.627 6.396-.492 1.554-.775 3.608-.842 6.108-1.164 3.719-1.753 8.308-1.753 13.642 0 4.239.39 7.87 1.159 10.792.747 2.839 1.126 5.743 1.126 8.632 0 1.484-.493 3.174-1.463 5.02-1.051 1.943-1.583 3.639-1.583 5.037 0 .098 0 .207.429 1.636-.45.218-.92.47-1.403.751-3.653 2.162-6.781 5.107-9.297 8.755-2.789 4.026-4.203 8.146-4.203 12.243 0 5.58 2.217 11.068 6.59 16.314 6.519 7.854 16.515 11.836 29.711 11.836 18.444 0 31.914-2.666 40.033-7.927 6.116-3.938 9.217-9.282 9.216-15.911-.204-3.434-.854-6.733-1.929-9.804-.546-1.639-1.197-3.083-1.938-4.298.039-.359.059-.704.059-1.027 0-4.066-.246-7.41-.73-9.943.741-1.06 1.439-2.064 2.095-3.02.32-.294.63-.629.923-.996 2.624-1.939 4.542-5.951 5.708-11.974.281-3.224.509-5.877.682-7.931.162-1.063.314-2.172.459-3.325.297-2.404.555-4.961.764-7.599.266-3.236.471-6.691.61-10.278.07-3.818.153-8.426.153-8.694 0-3.374-.052-5.997-.153-7.792-.053-1.193-.13-2.04-.234-2.579zM167.93 87.553l-.181.038-.075.306c-.111.455-.288 1.111-.528 1.965-.257.929-.585 2.082-.988 3.457l-1.18 3.922.479.145-.516-.033c-.58 1.883-1.076 3.549-1.492 5.016-.125.496-.245.964-.359 1.402-.913 1.404-1.804 2.976-2.647 4.66-1.571 3.047-2.847 5.797-3.797 8.184-2.027-.82-4.113-1.555-6.215-2.186.287-.764.56-1.646.823-2.668.686-6.306.765-7.312.765-7.52 0-2.859-.737-5.102-2.177-6.646-1.33-1.552-2.987-2.175-4.884-1.845-1.248.218-2.324.688-3.185 1.39-.655.49-1.21 1.101-1.64 1.797-1.161 1.744-1.855 4.235-2.064 7.438v5.528c-2.773-.33-5.463-.506-7.987-.477.605-2.281 1.215-4.813 1.815-7.535l.012-.107c0-4.809-.804-9.479-2.394-13.889-1.087-2.867-1.792-5.771-2.094-8.628.332-1.458.846-3.403 1.529-5.79l.326.047.042-.532c.023-.29.044-.557.066-.799.544-.957 1.057-1.836 1.541-2.639l.054-.128c.301-1.123.655-2.375 1.062-3.754.879-2.913 1.588-5.167 2.108-6.705 2.126-3.275 3.817-5.9 5.07-7.871 5.665-8.794 12.725-13.253 20.985-13.253 6.333 0 10.69 3.211 13.322 9.817 1.493 3.732 2.25 7.822 2.25 12.155 0 4.231-1.781 10.65-5.294 19.081-.991 2.381-1.848 4.622-2.552 6.657zm-29.363 39.581c.226 0 .48.023.77.071 6.165.854 11.546 2.4 15.995 4.602 4.709 2.329 7.417 5.01 8.056 7.973-.686.533-2.561 1.519-7.402 3.3-4.595 1.748-7.79 2.634-9.496 2.634-2.957 0-5.759-.127-8.324-.378-6.295-.7-11.377-2.214-15.105-4.5-3.885-2.38-5.855-5.133-5.855-8.183 0-2.516 2.227-4.299 6.611-5.299 2.213-.465 4.712-.701 7.425-.701 2.24-.001 4.685.16 7.325.481zM402.157 124.294c-2.519-3.647-5.646-6.593-9.302-8.756-.481-.281-.951-.533-1.399-.751.431-1.43.431-1.534.431-1.635 0-1.396-.533-3.092-1.58-5.033-.974-1.846-1.467-3.536-1.467-5.021 0-2.89.379-5.793 1.126-8.633.771-2.922 1.159-6.553 1.159-10.792 0-4.176-.372-7.914-1.107-11.109-.207-7.537-1.873-14.913-4.953-21.921-4.819-11.077-12.373-17.735-22.396-19.777-6.051-1.935-11.583-2.916-16.44-2.916-9.168 0-16.306 3.478-21.213 10.336-1.007 1.395-1.91 2.889-2.686 4.442-1.908 2.435-3.688 5.454-5.286 8.973-.176.385-.353.764-.537 1.149-3.414 7.765-5.146 14.521-5.143 20.132l.38 3.802c.122 1.414.287 3.204.496 5.373.271 2.944.613 6.588 1.033 10.971 1.979 11.313 4.982 17.791 9.182 19.791.337.726.718 1.532 1.138 2.418.499 1.115.968 2.113 1.39 2.97-.242 2.072-.365 4.565-.365 7.414 0 .32.02.665.059 1.027-.74 1.218-1.393 2.662-1.935 4.292-1.078 3.076-1.728 6.377-1.933 9.84 0 6.601 3.101 11.942 9.215 15.882 8.121 5.26 21.591 7.928 40.035 7.928 13.196 0 23.192-3.982 29.711-11.836 4.373-5.248 6.59-10.736 6.59-16.315-.001-4.098-1.415-8.217-4.203-12.245zm-29.904-34.392c-1.586 4.402-2.39 9.072-2.38 13.977.104.525.236 1.035.382 1.456.454 2.12.942 4.153 1.451 6.039.004.019.009.034.013.052-2.529-.027-5.232.145-8.017.477v-3.7c0-1.192-.054-2.263-.156-3.181-.635-5.506-2.899-8.625-6.731-9.272-1.903-.334-3.559.296-4.867 1.825-1.084 1.14-1.77 2.691-2.034 4.597-.104.588-.159 1.233-.159 1.917v.152c0 .123 0 .499.778 7.592.251.964.522 1.835.808 2.596-2.104.633-4.188 1.364-6.214 2.186-.724-1.814-1.631-3.842-2.704-6.033-.432-1.643-1.051-3.404-1.83-5.213-.08-.225-.387-.938-2.115-4.545l-3.465-7.086c-4.933-9.951-7.656-19.636-8.102-28.789-.051-.919-.075-1.846-.075-2.753 0-3.52.558-7.162 1.649-10.812.039-.118.074-.24.104-.363 5.04-6.911 11.483-10.416 19.149-10.416 5.988 0 11.464 2.212 16.271 6.573 1.148 1.046 2.183 2.131 3.072 3.222 1.778 2.178 3.108 4.51 3.953 6.932.403 1.164.704 2.364.892 3.57.754 4.726 1.137 10.902 1.139 18.391.049.701.127 1.372.233 1.986.155.976.378 1.849.661 2.599-.372 1.993-.943 4.017-1.706 6.024zm-31.978 46.349c1.367-1.614 3.439-3.108 6.164-4.446.176-.089.369-.175.584-.263.109-.019.229-.063.308-.149.104-.069.228-.121.377-.158l.103-.039c.084-.041.188-.082.385-.153l.654-.327c.002.002.014.004.031.001l.178.027.147-.15c.001 0 .035-.021.206-.083l6.211-2.016c2.154-.503 4.447-.938 6.811-1.288 2.205-.3 4.34-.478 6.344-.526 3.404-.103 6.492.127 9.168.672 4.393 1.004 6.619 2.787 6.619 5.303 0 3.049-1.971 5.802-5.854 8.181-1.393.845-2.955 1.601-4.634 2.243-2.349.849-5.033 1.506-7.938 1.949l-9.64.687h-1.219c-1.706 0-4.9-.886-9.501-2.635-4.834-1.779-6.711-2.765-7.396-3.298.274-1.23.908-2.414 1.892-3.532z"/>
    </g>
  </g>
</svg>