<svg xmlns="http://www.w3.org/2000/svg" width="500" height="170">
  <path fill="#7B6855" d="M396.395 101.609c-3.494-.397-6.242-1.002-8.17-1.793-2.127-.883-3.346-2.037-3.697-3.514l1.566.784-1.154-1.63c-.131-.184-.252-.366-.369-.553-1.577-2.465-2.758-6.6-3.506-12.29-.929-6.755-1.711-10.879-2.389-12.6-1.496-4.007-4.217-6.038-8.102-6.038l-7.514.235-.142.144c-4.817 4.921-7.444 8.093-8.012 9.647-.08.161-.13.258-.13 7.764 0 4.816-.228 8.45-.676 10.798-.074.381-.158.748-.258 1.104l-.033.131.032.13c.064.25.13.502.179.692.302 2.71.453 7.176.455 13.297.254 5.671 1.14 10.292 2.629 13.733 2.383 5.543 6.43 9.324 12.024 11.242 2.063.724 4.617 1.219 7.587 1.475l.219.02.162-.148c4.282-3.924 8.338-9.192 12.057-15.66 2.847-4.982 5.42-10.464 7.649-16.293l.23-.604-.637-.073z"/>
  <g fill="#56483A">
    <path d="M184.536 73.304c-.915-5.231-2.562-11.331-4.894-18.126-1.866-5.551-2.881-8.593-3.021-9.049l-.037-.12c-1.438-3.543-3.212-6.49-5.277-8.762-2.771-2.975-7.021-5.932-12.631-8.787-5.625-2.865-10.079-4.37-13.252-4.473l-9.731.003c-6.889.795-12.85 2.151-17.792 4.064-3.468 2.037-6.484 3.711-9.046 5.03-1.709 1.36-3.177 2.879-4.359 4.515-2.478 3.407-4.252 9.664-5.275 18.651v17.14l.018.133c.241.869.363 1.721.363 2.533 0 .253-.023.521-.069.793l-.016.092.019.092c.271 1.307.447 2.907.523 4.774.101 1.309.201 3.172.305 5.707.116 1.783.447 3.738.987 5.824-.037-.02-.073-.037-.11-.056l-1.048-.529.345 1.123c1.016 3.3 2.122 6.515 3.288 9.558 2.13 5.426 4.55 10.521 7.192 15.146 6.116 10.652 13.083 17.923 20.706 21.607l.099.035c6.256 1.525 13.523 2.299 21.599 2.299 3.455 0 7.56-1.936 12.2-5.752l.109-.125c2.535-4.155 5.975-10.498 10.215-18.828.597-1.043 1.231-2.058 1.89-3.021l3.188-4.908-.774-.222c.775-1.097 1.45-2.031 2.024-2.804l.79-1.987c.909-2.408 1.608-4.778 2.079-7.045l.01-.05-.004-20.453c-.174-1.371-.38-2.725-.613-4.022zM396.729 46.496c-7.631-9.629-20.319-14.511-37.717-14.511-17.55 0-32.465 4.571-44.33 13.584-10.291 7.783-15.509 15.965-15.509 24.317 0 2.45 1.62 7.448 4.957 15.287.138.306.276.621.415.943 1.141 2.682 2.475 5.673 3.964 8.882.64 1.438 2.241 3.479 4.902 6.244 3.266 3.264 5.3 5.424 6.044 6.415.091.125.309.503.736 1.636l.06.111c.054.074.106.15.158.226l-.074.037.16.425c.358.951.778 2.162 1.249 3.598l.092.228c.639 1.01 1.284 2.063 1.938 3.151l.439.729c4.252 8.352 7.691 14.693 10.225 18.85l.109.125c4.641 3.816 8.745 5.752 12.201 5.752 1.938 0 3.839-.025 5.662-.078 2.895-.151 5.701-.408 8.346-.766 1.463-.201 2.932-.433 4.438-.707.14-.047.303-.094.49-.141.196-.049.416-.098.564-.137h.229l.133-.019c.556-.151 1.136-.304 1.74-.454l.098-.035c2.977-1.438 5.887-3.438 8.648-5.945l.85-.771-1.143-.098c-2.887-.248-5.357-.727-7.346-1.422-5.32-1.824-9.167-5.422-11.434-10.693-1.441-3.332-2.301-7.835-2.549-13.361 0-6.135-.156-10.639-.472-13.444-.051-.216-.104-.431-.159-.644.092-.341.17-.689.24-1.053.461-2.41.693-6.107.693-10.987 0-6.075.041-7.267.047-7.368.525-1.435 3.104-4.529 7.669-9.2l7.096-.223c3.457 0 5.795 1.762 7.152 5.396.643 1.631 1.427 5.796 2.329 12.375.719 5.451 1.84 9.539 3.334 12.162l.015.581c.056 2.288 1.544 4.055 4.424 5.25 2.015.826 4.853 1.451 8.437 1.861l.404.047 1.803-5.108c.354-1.067.712-2.161 1.068-3.28l.023-.152c0-.104.018-.146.021-.156l.672-1.342-1 .5c.418-1.617.817-3.119 1.203-4.516l1.031-4.046c.059-.245.12-.495.188-.754.955-3.787 1.589-7.814 1.882-11.97.127-1.835.19-3.718.19-5.594.006-7.144-2.364-13.783-7.035-19.737z"/>
  </g>
  <g fill="#171717">
    <path d="M189.535 25.466C176.955 9.933 160.967 1.67 142.016.906c-18.262-.771-34.224 5.406-47.522 18.348-1.836 1.797-3.576 3.689-5.172 5.623-4.331 3.018-8.266 8.716-11.697 16.937-2.286 5.435-4.166 11.616-5.588 18.37-1.17 5.443-1.763 9.527-1.763 12.141 0 .07.029.602.381 6.024.063 4.348.577 9.906 1.529 16.519 1.673 11.458 4.348 22.026 7.95 31.414 11.151 28.973 29.658 43.663 55.006 43.663 9.348 0 18.112-1.264 26.005-3.744 4.71-1.024 9.303-2.996 13.622-5.842 7.839-4.43 14.858-10.469 20.863-17.946 4.831-6.001 8.776-12.654 11.725-19.772.871-2.063 1.567-3.896 2.095-5.518l.029-.098c1.067-5.135 1.191-6.104 1.191-6.387 0-2.195-.087-3.984-.26-5.32.425-2.318.641-4.629.641-6.867 0-30.797-7.239-55.353-21.516-72.985zm-10.088 85.011l-2.445 3.765c-.667.977-1.314 2.013-1.937 3.103-4.215 8.28-7.628 14.574-10.145 18.709-4.429 3.631-8.298 5.471-11.5 5.471-7.974 0-15.144-.76-21.311-2.258-7.42-3.604-14.226-10.729-20.226-21.182-2.618-4.582-5.017-9.634-7.128-15.012-1.027-2.68-2.008-5.497-2.922-8.391.026.012.052.022.078.034l.985.448-.298-1.041c-.691-2.417-1.108-4.663-1.238-6.662-.104-2.536-.204-4.41-.305-5.713-.076-1.861-.251-3.485-.523-4.828.044-.295.067-.585.067-.865 0-.881-.128-1.8-.381-2.733l-.003-17.016c1-8.757 2.712-14.854 5.088-18.121 1.13-1.563 2.534-3.016 4.088-4.265 2.496-1.273 5.529-2.957 8.941-4.969 4.789-1.848 10.668-3.183 17.416-3.965h9.658c3.009.099 7.321 1.567 12.815 4.365 5.506 2.802 9.662 5.688 12.349 8.573 1.982 2.18 3.693 5.027 5.086 8.46l.002-.001c.128.445.677 2.098 3.035 9.116 2.316 6.749 3.95 12.797 4.856 17.979.23 1.283.434 2.62.601 3.911v20.287c-.459 2.201-1.141 4.504-2.023 6.842l-.699 1.803c-.668.9-1.469 2.016-2.404 3.346l-.403.572.826.238zM427.843 68.941l.093-.126-.165-.284c-.385-.662-.785-1.253-1.193-1.762-.356-12.749-3.154-24.208-8.315-34.06-8.624-16.481-23.133-26.001-43.179-28.299l-32.833.006c-40.21 6.464-60.599 27.902-60.599 63.718 0 .029 0 .082.307 8.865.405 6.934 1.1 13.384 2.063 19.173 1.69 10.055 4.074 17.48 7.088 22.078.457 1.311 1.029 2.786 1.703 4.386 2.951 7.12 6.896 13.773 11.729 19.775 6.004 7.478 13.021 13.516 20.832 17.929 4.35 2.863 8.943 4.835 13.609 5.848 7.936 2.492 16.699 3.756 26.049 3.756 25.349 0 43.854-14.689 55.006-43.664 3.602-9.387 6.277-19.955 7.951-31.413 1.014-7.058 1.527-12.898 1.527-17.363 0-3.382-.563-6.26-1.673-8.563zm-27.114 14.604c-.068.263-.133.521-.19.766l-1.026 4.028c-.39 1.407-.797 2.935-1.205 4.531-.113.304-.232.591-.361.86-.4.186-.797.361-1.19.524l.376.927c.411-.162.83-.34 1.251-.531-.28.875-.562 1.73-.839 2.563l-1.373 3.818-.298.896c-2.212 5.781-4.765 11.217-7.584 16.153-3.666 6.377-7.658 11.565-11.862 15.419-2.678 2.432-5.492 4.369-8.365 5.764-.574.144-1.127.287-1.656.432l-.25.009c-.264.051-.498.104-.711.155-.219.056-.409.109-.498.146-1.42.252-2.874.48-4.321.682-2.615.353-5.396.606-8.252.758-1.8.051-3.69.076-5.621.076-3.202 0-7.071-1.84-11.501-5.471-2.516-4.134-5.928-10.429-10.16-18.738l-.458-.763c-.655-1.094-1.305-2.151-1.934-3.173-.399-1.217-.763-2.273-1.085-3.154l.309-.094-.425-.681c-.128-.193-.258-.384-.39-.57-.471-1.231-.705-1.623-.846-1.815-.775-1.035-2.843-3.23-6.135-6.521-2.536-2.636-4.118-4.638-4.706-5.958-1.487-3.206-2.817-6.188-3.955-8.859-.142-.331-.282-.649-.418-.952-3.233-7.598-4.873-12.606-4.873-14.887 0-8.022 5.084-15.936 15.113-23.521 11.688-8.879 26.399-13.381 43.726-13.381 17.075 0 29.502 4.755 36.933 14.13 4.528 5.772 6.825 12.204 6.825 19.116 0 1.854-.063 3.713-.189 5.524-.294 4.099-.917 8.068-1.856 11.792z"/>
  </g>
</svg>