<?xml version="1.0" standalone="no"?>
<!DOCTYPE svg PUBLIC "-//W3C//DTD SVG 20010904//EN"
 "http://www.w3.org/TR/2001/REC-SVG-20010904/DTD/svg10.dtd">
<svg version="1.0" xmlns="http://www.w3.org/2000/svg"
 width="1000.000000pt" height="1000.000000pt" viewBox="0 0 1000.000000 1000.000000"
 preserveAspectRatio="xMidYMid meet">
<metadata>
Created by potrace 1.11, written by Peter Selinger 2001-2013
</metadata>
<g transform="translate(0.000000,1000.000000) scale(0.100000,-0.100000)"
fill="#000000" stroke="none">
<path d="M1291 8190 c-181 -23 -351 -91 -506 -201 -108 -77 -319 -286 -434
-429 -205 -255 -286 -427 -332 -705 -21 -124 -18 -495 5 -620 36 -206 129
-432 229 -563 122 -158 443 -458 564 -528 26 -15 50 -29 52 -30 2 -2 -11 -47
-28 -99 -36 -108 -77 -334 -91 -500 -5 -60 -27 -247 -49 -415 -52 -405 -64
-539 -63 -760 1 -472 77 -699 309 -921 123 -117 252 -198 468 -294 142 -63
414 -156 610 -210 77 -21 143 -41 147 -44 4 -3 11 -40 16 -81 14 -112 63 -229
123 -294 27 -30 70 -64 94 -76 43 -21 56 -22 228 -18 151 4 201 9 297 31 179
41 606 77 911 77 136 0 269 -4 297 -10 27 -5 119 -17 203 -27 140 -16 247 -18
1143 -16 863 2 1004 4 1095 18 125 20 300 61 461 108 121 36 223 60 637 152
781 173 1243 361 1504 613 214 205 289 408 306 822 7 192 -8 407 -52 756 -19
148 -42 332 -50 409 -37 336 -43 366 -136 658 l-51 159 22 15 c140 98 433 381
532 513 72 96 120 193 168 339 61 183 74 281 74 536 0 232 -8 310 -51 475 -60
235 -225 482 -508 765 -217 216 -388 321 -607 372 -100 24 -135 27 -298 27
-316 1 -433 -28 -767 -189 l-172 -83 -46 34 c-103 79 -206 108 -359 102 -121
-5 -187 -30 -266 -104 -48 -45 -53 -47 -73 -34 -12 8 -60 36 -106 63 -47 27
-103 61 -125 76 -80 55 -326 119 -518 137 -40 3 -298 0 -573 -6 -275 -7 -507
-13 -515 -13 -8 0 -255 6 -548 13 -532 12 -532 12 -670 -10 -178 -29 -333 -79
-425 -137 -40 -24 -129 -80 -199 -122 -69 -43 -161 -107 -202 -141 l-76 -63
-88 40 c-48 23 -136 59 -197 81 -60 22 -207 88 -325 145 -264 129 -386 175
-510 193 -122 18 -384 26 -479 14z m651 -417 c90 -23 127 -51 221 -168 35 -44
105 -126 156 -182 l92 -102 -46 -62 c-120 -163 -312 -519 -365 -677 -16 -48
-35 -88 -42 -91 -44 -13 -277 -136 -339 -179 -145 -99 -290 -271 -439 -526
-63 -107 -119 -195 -125 -195 -5 -1 -37 20 -70 45 -33 25 -139 99 -236 164
-166 111 -177 121 -197 168 -39 90 -52 164 -69 382 -17 237 -11 346 28 497 26
99 95 245 156 332 174 244 568 532 824 601 97 26 332 23 451 -7z m3520 -8
c327 -36 589 -87 823 -159 115 -36 305 -110 305 -119 0 -12 -328 -735 -395
-868 -80 -158 -93 -180 -131 -212 -41 -34 -174 -117 -254 -157 -167 -84 -318
-222 -404 -368 -55 -95 -100 -204 -157 -385 -78 -250 -130 -345 -253 -474 -77
-81 -104 -99 -376 -252 -160 -90 -232 -139 -254 -174 -9 -12 -32 -81 -51 -152
-53 -189 -69 -223 -142 -311 -92 -110 -155 -209 -224 -352 -65 -137 -90 -176
-194 -307 -102 -128 -594 -634 -687 -706 -42 -33 -186 -130 -319 -215 -133
-85 -259 -168 -280 -184 -20 -17 -45 -30 -56 -30 -36 0 -382 91 -530 139 -394
128 -628 305 -717 543 -85 224 -73 542 40 1108 64 318 221 899 337 1247 63
189 65 192 136 282 295 370 782 612 1379 685 214 27 396 31 491 11 106 -21
141 -15 192 36 35 35 39 44 39 89 0 46 -4 54 -43 94 -74 74 -224 116 -490 138
-151 12 -406 2 -570 -23 -38 -6 -70 -9 -71 -7 -2 1 41 77 95 168 99 164 100
166 284 348 177 175 190 186 278 227 121 58 375 154 507 193 292 86 539 127
1000 166 97 8 562 -4 692 -19z m1786 -287 c5 -7 64 -115 130 -239 142 -267
257 -463 359 -613 l74 -108 -53 8 c-79 11 -174 6 -208 -11 -60 -31 -65 -79
-14 -124 41 -37 248 -139 409 -203 86 -35 137 -64 232 -133 l122 -89 70 -136
c86 -167 159 -353 240 -607 170 -536 315 -1128 371 -1509 61 -422 48 -631 -51
-833 -160 -326 -668 -547 -1479 -645 -151 -18 -592 -63 -1097 -111 -343 -32
-400 -35 -715 -35 -189 0 -421 -5 -516 -12 -193 -13 -475 0 -612 29 -52 11
-171 18 -390 24 -173 5 -347 11 -387 14 -64 6 -78 4 -132 -21 -34 -14 -66 -33
-72 -40 -6 -8 -18 -14 -25 -14 -8 0 -61 -22 -117 -49 -218 -106 -503 -201
-600 -201 -90 0 -147 52 -168 156 -15 73 -6 104 44 152 18 17 160 122 317 233
l285 202 125 29 c155 35 227 56 234 67 10 15 -36 63 -76 81 l-38 17 43 34 c81
65 310 295 378 380 37 47 134 190 214 318 151 242 251 394 341 519 58 80 81
141 115 302 12 58 28 117 35 131 21 41 112 96 312 186 102 46 196 92 209 103
28 22 43 18 43 -9 0 -9 9 -45 21 -79 28 -83 81 -132 142 -132 35 0 49 6 71 29
l27 28 2 289 2 289 57 130 c94 216 106 242 154 322 120 199 260 329 554 513
148 93 228 158 304 247 120 140 173 256 270 583 37 124 74 243 82 265 33 85
155 218 238 260 54 27 108 32 124 13z"/>
<path d="M3215 5784 c-293 -39 -557 -162 -805 -376 -184 -160 -366 -404 -484
-648 -115 -240 -175 -463 -198 -742 -11 -132 -10 -155 5 -219 67 -277 295
-530 579 -639 297 -115 697 -116 923 -3 85 43 229 149 286 210 71 77 237 344
282 453 127 308 217 734 217 1019 0 216 -39 411 -111 557 -92 188 -252 319
-446 368 -62 15 -198 26 -248 20z m-66 -791 c76 -23 153 -96 181 -171 44 -115
12 -259 -76 -348 -125 -124 -392 -105 -487 34 -27 40 -67 170 -67 218 0 60 29
131 75 182 91 102 219 131 374 85z"/>
<path d="M6625 5761 c-306 -52 -528 -301 -585 -658 -70 -438 98 -1189 350
-1563 151 -225 339 -371 556 -432 70 -20 103 -22 279 -22 166 0 216 4 295 21
216 48 371 126 502 251 98 93 156 173 207 284 55 117 68 189 65 338 -5 261
-71 513 -204 785 -186 379 -471 683 -802 853 -122 62 -182 85 -303 118 -100
27 -275 39 -360 25z m490 -769 c73 -25 158 -111 179 -182 21 -71 20 -97 -6
-188 -36 -129 -94 -189 -210 -218 -184 -47 -351 37 -403 203 -23 72 -17 181
13 240 73 142 254 203 427 145z"/>
<path d="M4965 3963 c-258 -28 -425 -161 -442 -354 -7 -77 13 -131 73 -193 57
-60 169 -114 266 -130 l71 -11 -7 -109 c-8 -123 -23 -163 -84 -224 -88 -88
-152 -96 -422 -53 -107 18 -211 34 -230 37 -43 6 -100 -21 -118 -56 -18 -35
-9 -95 21 -133 29 -39 117 -87 202 -113 84 -26 332 -26 425 -1 99 27 184 71
240 123 37 35 55 45 65 39 7 -6 33 -27 57 -47 111 -94 239 -132 448 -132 125
-1 155 2 220 23 141 44 220 109 220 181 0 81 -38 116 -124 113 -28 -1 -134
-16 -236 -33 -217 -37 -285 -36 -353 3 -24 15 -58 42 -76 62 -55 63 -68 101
-74 218 l-6 107 32 0 c52 0 153 55 210 113 144 149 157 345 29 457 -51 45
-125 82 -197 98 -56 12 -165 20 -210 15z m268 -138 c55 -26 85 -93 55 -123 -7
-7 -18 -12 -25 -12 -10 0 -132 89 -172 126 -2 2 2 11 10 20 16 20 78 15 132
-11z"/>
</g>
</svg>
