<svg xmlns="http://www.w3.org/2000/svg" width="500" height="262">
  <path fill="#E9E4DA" d="M476.056 149.42c-2.793 1.014-6.831 1.523-12.109 1.523-2.794 0-5.055-1.168-6.78-3.504-1.371-1.777-2.058-3.531-2.058-5.256 0-.611.66-2.109 1.981-4.496.253-.506.507-.965.762-1.371 1.37-.252 2.691-.582 3.96-.988 1.98-.205 3.759-.586 5.332-1.143.914-.052 1.88-.103 2.896-.154.558.254 1.04.561 1.446.916.559.606 1.092 1.473 1.601 2.59.202.406.381.838.532 1.293.306.762.61 1.65.914 2.668.914 3.096 1.421 5.736 1.523 7.922zM131.374 73.093c.304-.051.635-.076.99-.076-.711-1.066-1.625-2.361-2.742-3.884-.559-.711-1.042-1.346-1.448-1.904.051-.051.102-.076.152-.076 11.629-2.285 19.069-3.428 22.319-3.428 1.218 0 6.627.558 16.225 1.675 9.598 1.067 15.666 1.6 18.206 1.6 3.91.153 10.233.381 18.966.686.052 2.235.153 4.698.305 7.39-7.312-.204-17.164-.458-29.555-.762-2.032-.254-4.063-.458-6.094-.61-8.227-.711-14.752-.812-19.576-.305-1.98-.406-4.215-.608-6.703-.608-4.012-.001-7.694.1-11.045.302zm74.802 21.939c.304 2.691.66 5.307 1.066 7.847-7.871.813-17.85 2.26-29.936 4.341h-17.444c-.253-.913-.71-1.829-1.371-2.742-1.321-1.777-3.377-3.226-6.17-4.343 2.641-1.064 4.723-1.879 6.246-2.437 2.793-1.067 5.256-1.6 7.388-1.6 17.978 0 31.384-.355 40.221-1.066zm223.033-24.071c.255.608.534 1.294.839 2.056.964 2.336 2.793 6.984 5.484 13.94 6.245 14.675 14.32 26.126 24.224 34.354-.153.102-.306.229-.459.381-.354.152-.709.28-1.063.381h-.382c-1.777-.051-3.506.051-5.181.306-3.504-.306-5.968-1.347-7.388-3.123-1.677-2.184-3.657-3.276-5.942-3.276-.255 0-.508.025-.762.076-3.708-7.517-9.242-18.663-16.606-33.44 1.321-1.827 2.666-3.706 4.038-5.636 1.472-2.134 2.539-4.14 3.198-6.019zM319.979 216.68c-1.271.559-2.26.965-2.972 1.219-5.485 1.777-22.825 2.845-52.026 3.199-.963 0-1.903-.024-2.816-.076v.457c-3.453-.254-8.253-.254-14.397 0-2.234.103-4.367.203-6.398.306-5.637-.354-9.852-.584-12.645-.687-.864-.051-1.676-.076-2.438-.076h-.99c-8.633-.508-15.362-2.793-20.186-6.854-1.574-1.271-2.844-2.642-3.809-4.112.609-3.048 4.672-6.246 12.188-9.599 1.98-.813 3.758-1.55 5.333-2.209h67.794c13.101-.56 27.727-2.336 43.875-5.332.255-.052.534-.103.838-.151h2.743c7.617-1.523 13.33-2.285 17.139-2.285 6.602 0 11.781.481 15.538 1.446 4.164 2.082 6.247 4.164 6.247 6.246 0 .254-.025.481-.076.687-1.828.711-5.436 1.27-10.816 1.676-5.534.406-10.283.99-14.244 1.752h-6.17c-3.605 0-6.933.813-9.979 2.438-1.219.609-2.361 1.346-3.428 2.209-1.37 1.016-2.666 2.234-3.885 3.656-.103.102-.202.203-.305.305-1.679 1.976-3.05 3.906-4.115 5.785zM64.417 76.064c.914 1.067 2.311 2.159 4.189 3.276 3.758 2.285 5.637 4.951 5.637 7.998 0 2.996.762 5.764 2.285 8.303.965 1.574 2.158 2.868 3.58 3.884-1.372 2.081-2.743 4.392-4.113 6.932-1.523 2.742-3.631 6.932-6.322 12.568-.305-.151-.609-.305-.915-.457-4.012-1.929-6.449-3.2-7.312-3.808-2.387-1.678-3.581-3.633-3.581-5.867 1.066-3.809 2.158-7.643 3.275-11.502 2.133-7.718 3.2-11.882 3.2-12.492 0-2.691-.229-5.002-.686-6.931.256-.711.51-1.344.763-1.904zm-18.281 60.481c.356.559.889 1.523 1.6 2.896-.051.149-.077.303-.077.457 0 .912.534 2.36 1.6 4.34 1.066 1.979 1.6 3.402 1.6 4.266 0 .104-.025.736-.076 1.904 0 .256-.026.484-.077.686-1.371 1.523-3.173 2.768-5.408 3.734-1.219-1.018-2.743-2.006-4.57-2.973-5.079-2.642-7.617-5.433-7.617-8.379 0-1.066 2.386-2.359 7.16-3.886 2.691-.86 4.646-1.877 5.865-3.045zm331.2-73.582c2.234.051 4.344.076 6.322.076 2.793 0 6.094-.863 9.902-2.59 3.353-1.726 5.256-2.59 5.713-2.59 2.844 0 5.18.179 7.008.534.152.305.305.661.457 1.067.406 1.269.609 2.614.609 4.036 0 .966-.355 2.134-1.066 3.504-.151.254-.305.534-.457.839-2.59 0-4.621.253-6.094.762-2.185.813-3.275 2.311-3.275 4.493 0 2.285.939 3.834 2.818 4.647.862.406 2.057.737 3.58.99-.203.153-.433.305-.687.457-1.522 1.117-2.817 2.159-3.885 3.124-1.776-.254-3.326-.736-4.646-1.447-2.133-1.473-3.885-2.616-5.256-3.428-4.47-2.691-11.731-4.088-21.785-4.189-3.961-.305-8.403-.457-13.329-.457-2.49 0-4.724.203-6.705.608-4.822-.507-11.349-.406-19.576.305-2.029.152-4.063.355-6.094.61-8.684.203-16.123.406-22.318.608.255-.05.533-.076.839-.076l-1.828-8.835h9.217c5.942.913 9.929 1.625 11.958 2.132h22.854c12.745-1.22 24.654-2.945 35.724-5.18zm55.149 69.623c1.065.457 2.133.762 3.197.912-.913 0-1.726.178-2.437.533-.253-.457-.506-.939-.76-1.445zM307.029 105.39l-.84-2.285c0-1.879.533-3.503 1.602-4.875.355-.102.658-.177.913-.228l46.616-.153c1.271-.253 3.912-.583 7.923-.989 3.759-.355 6.194-.534 7.313-.534 3.148 0 6.5.053 10.055.153-2.59 2.132-7.159 4.189-13.711 6.17-6.703 2.03-14.549 3.554-23.537 4.57h-24.985c-4.012-.711-7.795-1.319-11.349-1.829zM285.7 118.797l-.153.153v-.153h.153zm-27.194 12.949c-.711.305-1.523.787-2.438 1.447-1.879 1.322-3.452 1.979-4.723 1.979-3.25 0-5.764-1.42-7.542-4.265-.863-2.691-1.523-5.637-1.98-8.836-.355-2.59-.609-6.043-.762-10.358-.66-17.674-1.092-29.988-1.295-36.944.965-1.422 1.802-2.641 2.514-3.657.914-.101 1.879-.151 2.895-.151 4.57.101 8.023.151 10.359.151 2.285 0 4.418-.151 6.398-.457-.355 1.523-.533 3.173-.533 4.951 0 4.013 1.041 7.897 3.123 11.655v3.123c-.051 1.219-.151 2.311-.306 3.274-.102 1.118-.253 2.007-.456 2.666 0 .053-.025.128-.076.229v.305c-.457 2.894-.89 6.347-1.295 10.359-.914 8.785-1.473 13.94-1.677 15.464-.453 3.201-1.191 6.222-2.206 9.065zm-23.309 34.508c-.051-.305-.102-.586-.152-.838.254.152.533.305.838.457-.254.1-.483.229-.686.381z"/>
  <path fill="#E8E3D9" d="M241.364 222.284l-.028-.002c-5.607-.354-9.857-.584-12.631-.685-.861-.052-1.672-.076-2.42-.076h-.99c-8.732-.514-15.622-2.858-20.508-6.974-1.6-1.291-2.916-2.714-3.905-4.222l-.112-.172.04-.2c.649-3.246 4.729-6.503 12.474-9.957 1.993-.817 3.77-1.554 5.343-2.213l.193-.039h67.793c12.996-.556 27.734-2.347 43.785-5.323.252-.051.537-.104.847-.154l2.825-.007c7.516-1.513 13.313-2.284 17.139-2.284 6.613 0 11.883.491 15.662 1.463l.1.037c4.391 2.194 6.523 4.383 6.523 6.692 0 .294-.03.565-.092.808l-.063.25-.24.094c-1.892.736-5.478 1.296-10.961 1.709-5.492.402-10.265.99-14.187 1.744l-6.265.01c-3.506 0-6.785.8-9.744 2.379-1.192.597-2.315 1.318-3.35 2.156-1.353 1.004-2.633 2.207-3.818 3.593l-.334.335c-1.618 1.916-2.983 3.838-4.028 5.681l-.081.144-.152.068c-1.3.57-2.281.973-3.005 1.23-5.6 1.814-22.666 2.869-52.188 3.229-.789 0-1.567-.017-2.322-.051v.471l-.537-.039c-3.416-.254-8.245-.252-14.34 0-2.231.102-4.363.203-6.394.305h-.029zm-15.079-1.763c.768 0 1.598.025 2.467.076 2.767.102 7.017.332 12.618.685 2.024-.101 4.148-.202 6.373-.304 5.83-.242 10.5-.254 13.92-.035v-.45l.526.028c.9.051 1.84.076 2.791.076 29.006-.354 46.459-1.422 51.871-3.176.649-.23 1.586-.613 2.773-1.135 1.064-1.852 2.438-3.775 4.083-5.721l.333-.336c1.21-1.414 2.544-2.668 3.939-3.703 1.072-.869 2.258-1.633 3.502-2.256 3.095-1.649 6.531-2.489 10.203-2.489h6.17c3.865-.753 8.678-1.345 14.207-1.751 5.062-.383 8.562-.902 10.414-1.547.011-.1.017-.205.017-.315 0-1.858-1.993-3.803-5.923-5.774-3.695-.94-8.863-1.418-15.362-1.418-3.758 0-9.491.766-17.041 2.274l-2.841.011c-.217.043-.49.092-.74.143-16.104 2.986-30.888 4.783-43.951 5.342H218.92c-1.552.65-3.3 1.374-5.243 2.172-7.144 3.186-11.13 6.227-11.842 9.036.917 1.356 2.124 2.642 3.587 3.823 4.726 3.979 11.418 6.246 19.901 6.744h.962zm8.554-53.375l-.135-.812c-.05-.299-.1-.575-.149-.821l-.221-1.106.968.579c.244.146.512.293.805.438l1.007.503-1.048.41c-.205.08-.396.188-.568.314l-.659.495zM45.214 155.409l-.236-.197c-1.178-.983-2.687-1.964-4.484-2.914-5.23-2.72-7.883-5.688-7.883-8.821 0-.912.854-2.233 7.507-4.36 2.603-.833 4.511-1.819 5.671-2.933l.44-.422.328.516c.363.57.909 1.558 1.622 2.936l.098.189-.069.201c-.034.099-.05.194-.05.295 0 .568.267 1.74 1.54 4.104 1.117 2.075 1.66 3.548 1.66 4.503 0 .104-.025.745-.077 1.927 0 .272-.03.545-.091.785l-.03.12-.083.093c-1.412 1.568-3.29 2.867-5.581 3.858l-.282.12zm.804-18.093c-1.281 1.048-3.159 1.972-5.595 2.752-6.483 2.07-6.812 3.201-6.812 3.408 0 2.729 2.472 5.399 7.348 7.936 1.742.921 3.226 1.873 4.419 2.834 1.985-.895 3.621-2.034 4.869-3.391.024-.135.037-.283.037-.447.051-1.178.076-1.803.076-1.904 0-.531-.267-1.664-1.54-4.027-1.117-2.072-1.66-3.569-1.66-4.578 0-.135.014-.269.043-.399-.48-.924-.877-1.654-1.185-2.184zm417.927 14.127c-2.948 0-5.364-1.248-7.184-3.707-1.428-1.852-2.154-3.723-2.154-5.553 0-.486.231-1.465 2.045-4.738.254-.51.519-.984.774-1.396l.117-.187.216-.04c1.341-.246 2.652-.573 3.898-.974l.101-.021c1.934-.2 3.688-.576 5.217-1.117l.141-.026c.914-.052 1.88-.103 2.896-.154l.122-.008.111.052c.597.271 1.125.606 1.568.995.628.679 1.195 1.594 1.727 2.759.207.416.396.873.552 1.342.3.746.612 1.658.919 2.685.921 3.115 1.44 5.821 1.543 8.041l.019.367-.347.125c-2.84 1.033-6.972 1.555-12.281 1.555zm-5.784-14.675c-.204.34-.414.724-.624 1.145-1.681 3.036-1.93 3.979-1.93 4.271 0 1.604.656 3.271 1.952 4.95 1.648 2.229 3.734 3.31 6.386 3.31 4.975 0 8.871-.461 11.59-1.37-.138-2.069-.636-4.567-1.482-7.433-.297-.994-.6-1.879-.897-2.623-.151-.453-.322-.867-.517-1.258-.493-1.084-1.004-1.91-1.521-2.474-.309-.267-.714-.528-1.177-.749-.944.049-1.844.097-2.698.145-1.574.549-3.365.933-5.327 1.139-1.204.382-2.466.7-3.755.947zm-206.815-1.094c-3.419 0-6.099-1.514-7.965-4.5l-.052-.112c-.868-2.709-1.541-5.709-2-8.918-.355-2.592-.613-6.094-.766-10.412-.657-17.59-1.093-30.021-1.295-36.947l-.004-.162.091-.134c.966-1.425 1.805-2.645 2.518-3.663l.13-.186.225-.025c.926-.103 1.919-.154 2.95-.154 4.55.101 8.032.151 10.359.151 2.254 0 4.382-.152 6.322-.451l.73-.113-.168.721c-.345 1.476-.52 3.104-.52 4.837 0 3.907 1.029 7.747 3.06 11.413l.063.113v3.252c-.051 1.253-.155 2.375-.312 3.353-.101 1.108-.251 1.998-.458 2.685-.011.074-.031.152-.068.239v.198c-.461 2.96-.896 6.437-1.299 10.41-.927 8.91-1.476 13.973-1.678 15.48-.458 3.218-1.21 6.3-2.232 9.165l-.074.205-.199.086c-.676.289-1.462.758-2.342 1.395-1.987 1.396-3.626 2.074-5.016 2.074zm-7.084-4.977c1.692 2.676 4.01 3.977 7.083 3.977 1.161 0 2.653-.636 4.437-1.89.85-.614 1.632-1.087 2.325-1.407.965-2.745 1.676-5.692 2.113-8.765.199-1.493.747-6.546 1.674-15.445.402-3.99.84-7.485 1.299-10.386l-.006-.343.098-.261c.191-.617.338-1.479.438-2.563.152-.973.254-2.055.303-3.25v-2.973c-2.072-3.783-3.123-7.746-3.123-11.784 0-1.538.134-2.999.396-4.354-1.794.239-3.729.36-5.761.36-2.335 0-5.824-.051-10.371-.151-.901 0-1.779.042-2.604.125-.659.944-1.421 2.053-2.289 3.331.204 6.955.638 19.327 1.29 36.779.152 4.285.407 7.753.757 10.309.445 3.126 1.098 6.051 1.941 8.691zm188.781 3.994l-.232-.418c-.259-.463-.515-.95-.771-1.463l-.613-1.224 1.258.54c1.022.438 2.057.732 3.071.876l-.07.995c-.83 0-1.574.162-2.213.48l-.43.214zm19.644-11.809l-.059-.005c-3.631-.317-6.232-1.43-7.735-3.309-1.598-2.081-3.411-3.088-5.552-3.088-.223 0-.439.021-.663.066l-.377.076-.17-.345c-3.798-7.699-9.385-18.949-16.604-33.438l-.136-.271.178-.245c1.319-1.826 2.665-3.704 4.036-5.632 1.438-2.083 2.492-4.067 3.134-5.894l.431-1.227.502 1.199c.256.611.536 1.299.842 2.063.969 2.344 2.814 7.038 5.487 13.946 6.177 14.515 14.279 26.009 24.076 34.149l.518.43-.561.372c-.129.085-.256.193-.384.32l-.154.104c-.388.167-.756.298-1.126.402l-.136.019h-.382c-.306-.008-.596-.013-.885-.013-1.438 0-2.856.105-4.221.313l-.059.008zm-13.346-7.403c2.438 0 4.57 1.168 6.339 3.472 1.312 1.64 3.659 2.626 6.977 2.924 1.679-.251 3.43-.35 5.211-.302h.296c.26-.076.521-.168.794-.28-9.705-8.216-17.738-19.699-23.884-34.139-2.676-6.916-4.521-11.603-5.486-13.945-.126-.315-.247-.616-.364-.903-.671 1.571-1.608 3.234-2.8 4.958-1.314 1.85-2.602 3.648-3.867 5.399 7.056 14.156 12.54 25.201 16.312 32.843.155-.018.314-.027.472-.027zm-154.294 4.679v-1.86h1.859l-1.859 1.86zm-215.141-.459l-1.37-.683c-4.001-1.923-6.485-3.219-7.376-3.846-2.517-1.769-3.793-3.88-3.793-6.276l.019-.135c1.066-3.81 2.159-7.646 3.276-11.506 2.767-10.011 3.18-12.037 3.18-12.353 0-2.641-.226-4.934-.672-6.816l-.034-.144.05-.14c.258-.721.519-1.375.777-1.943l.324-.715.511.596c.875 1.021 2.242 2.088 4.065 3.172 3.904 2.374 5.882 5.208 5.882 8.428 0 2.89.745 5.597 2.214 8.046.922 1.504 2.081 2.762 3.442 3.735l.392.28-.265.402c-1.357 2.059-2.733 4.378-4.091 6.894-1.514 2.726-3.637 6.945-6.311 12.546l-.22.458zm-11.539-10.738c.023 2.051 1.125 3.815 3.368 5.391.846.596 3.283 1.863 7.241 3.766l.466.233c2.581-5.392 4.637-9.473 6.117-12.136 1.282-2.376 2.585-4.585 3.874-6.569-1.305-1.007-2.423-2.264-3.33-3.743-1.566-2.61-2.359-5.491-2.359-8.564 0-2.846-1.816-5.394-5.397-7.571-1.582-.94-2.848-1.881-3.773-2.802-.132.323-.265.669-.397 1.034.442 1.929.666 4.25.666 6.901 0 .421-.333 2.188-3.218 12.625-1.113 3.84-2.198 7.65-3.258 11.435zm285.024-1.242h-25.014c-4.032-.707-7.845-1.321-11.419-1.834l-.295-.042-.974-2.738c0-1.982.574-3.726 1.707-5.182l.101-.129.155-.045c.371-.106.688-.184.953-.237l46.713-.163c1.188-.246 3.869-.581 7.873-.987 3.82-.361 6.229-.537 7.363-.537 3.081 0 6.469.052 10.069.153l1.334.038-1.03.848c-2.631 2.166-7.302 4.272-13.884 6.262-6.702 2.03-14.651 3.574-23.627 4.589l-.025.004zm-35.995-2.781c3.498.506 7.222 1.107 11.067 1.79l24.87-.008c8.904-1.008 16.784-2.539 23.422-4.549 5.576-1.686 9.734-3.441 12.395-5.23-3.055-.076-5.938-.115-8.594-.115-1.09 0-3.533.179-7.267.532-3.97.402-6.618.733-7.871.982l-46.713.163c-.124.033-.349.089-.618.164-.912 1.229-1.382 2.691-1.398 4.351l.707 1.92zm-130.047 2.781h-17.867l-.102-.366c-.237-.854-.672-1.723-1.294-2.583-1.255-1.689-3.259-3.095-5.95-4.171l-1.156-.463 1.155-.465c2.732-1.101 4.78-1.9 6.261-2.442 2.828-1.081 5.374-1.63 7.56-1.63 17.88 0 31.398-.358 40.18-1.065l.482-.039.055.481c.301 2.667.659 5.299 1.063 7.824l.083.522-.526.055c-7.819.807-17.88 2.266-29.902 4.336l-.042.006zm-17.117-1h17.031c11.759-2.024 21.647-3.464 29.402-4.283-.349-2.228-.662-4.533-.932-6.868-8.817.683-22.195 1.03-39.778 1.03-2.064 0-4.49.527-7.209 1.567-1.269.464-2.952 1.116-5.125 1.986 2.314 1.078 4.084 2.43 5.271 4.028.608.841 1.057 1.692 1.34 2.54zm238.211-23.88l-.23-.033c-1.828-.261-3.447-.767-4.813-1.502-2.166-1.492-3.924-2.639-5.273-3.438-4.375-2.635-11.62-4.02-21.535-4.12-3.957-.304-8.43-.457-13.324-.457-2.443 0-4.666.201-6.604.598l-.076.016-.077-.008c-4.769-.501-11.33-.397-19.48.306-2.014.151-4.055.355-6.073.608-8.604.204-16.11.408-22.365.612l-.112-.99c.104-.021.215-.038.328-.051l-1.836-8.87h9.831c5.938.907 9.956 1.622 12.021 2.132h22.791c12.63-1.21 24.633-2.95 35.627-5.169l.055-.011.057.001c2.221.051 4.344.076 6.311.076 2.71 0 5.972-.856 9.695-2.545 5.117-2.635 5.66-2.635 5.92-2.635 2.859 0 5.248.183 7.104.543l.241.047.108.219c.162.319.319.691.479 1.116.429 1.336.642 2.745.642 4.212 0 1.057-.367 2.278-1.123 3.734-.158.27-.307.539-.453.832l-.139.276h-.309c-2.523 0-4.521.247-5.932.734-1.974.734-2.938 2.051-2.938 4.021 0 2.085.823 3.456 2.518 4.188.834.392 1.994.711 3.463.956l1.147.19-.928.702c-.216.163-.46.325-.729.487-1.464 1.075-2.757 2.115-3.807 3.065l-.182.158zM353.266 72.29c4.922 0 9.42.154 13.368.458 10.063.1 17.478 1.534 22.005 4.26 1.366.809 3.146 1.969 5.282 3.444 1.16.622 2.587 1.077 4.203 1.33.974-.867 2.134-1.802 3.46-2.785-1.018-.224-1.863-.493-2.521-.804-2.058-.889-3.106-2.607-3.106-5.1 0-2.403 1.212-4.073 3.601-4.962 1.469-.507 3.469-.772 5.963-.792.111-.211.224-.41.334-.595.656-1.267.996-2.368.996-3.249 0-1.363-.197-2.67-.586-3.884-.104-.276-.211-.537-.322-.774-1.756-.318-3.996-.479-6.666-.479-.188.011-1.106.281-5.484 2.535-3.877 1.759-7.277 2.646-10.131 2.646-1.957 0-4.069-.025-6.278-.075-11.013 2.221-23.03 3.962-35.722 5.176l-22.962.002-.06-.015c-2.017-.504-6.023-1.218-11.914-2.123l-8.525.005 1.628 7.871c5.995-.19 13.069-.381 21.055-.568 1.984-.251 4.044-.457 6.068-.608 8.165-.706 14.759-.812 19.589-.312 1.982-.399 4.246-.602 6.725-.602zm-148.389 3.3l-.544-.015c-7.312-.204-17.163-.458-29.553-.762-2.07-.257-4.112-.461-6.119-.611-8.161-.704-14.717-.807-19.487-.307l-.077.008-.076-.016c-1.938-.397-4.159-.598-6.603-.598-3.246 0-6.311.068-9.138.202l.017.025h-.539c-.458.023-.91.048-1.355.075l-.113-.992c.056-.009.112-.018.169-.025-.618-.901-1.37-1.956-2.242-3.146-.553-.704-1.04-1.343-1.449-1.905l-.251-.346.302-.302c.184-.184.376-.222.506-.222 11.512-2.271 19.054-3.428 22.319-3.428 1.252 0 6.579.549 16.282 1.679 9.528 1.059 15.635 1.596 18.148 1.596 3.929.154 10.251.381 18.984.686l.471.016.011.472c.052 2.237.154 4.718.304 7.373l.033.543zm-48.84-3.009c3.64 0 7.915.21 12.705.624 2.018.151 4.077.357 6.113.612 12.039.292 21.708.542 28.963.743-.125-2.278-.213-4.423-.264-6.391-8.491-.296-14.658-.519-18.498-.669-2.53 0-8.674-.539-18.241-1.602-9.534-1.11-14.973-1.672-16.169-1.672-3.145 0-10.421 1.111-21.628 3.302.3.399.633.832.998 1.297 1.058 1.443 1.936 2.683 2.619 3.698 3.008-.154 6.293-.232 9.785-.232 2.479 0 4.742.203 6.728.603 1.999-.208 4.316-.313 6.889-.313z"/>
  <g fill="#CFC4AD">
    <path d="M476.056 149.42V150.258c0 1.422-.532 2.715-1.6 3.883-2.387 1.729-6.245 2.592-11.578 2.592-8.582 0-14.548-1.879-17.9-5.639-.051-.201-.074-.43-.074-.686-.054-1.168-.078-1.801-.078-1.904 0-.863.534-2.285 1.602-4.266 1.064-1.979 1.6-3.428 1.6-4.34 0-.154-.025-.308-.075-.457.812-1.627 1.42-2.666 1.826-3.125.306.053.609.078.915.078 2.387.2 4.62.2 6.701 0 .153-.054.307-.078.459-.078-.255.406-.509.865-.762 1.371-1.321 2.387-1.981 3.885-1.981 4.496 0 1.725.687 3.479 2.058 5.256 1.727 2.336 3.986 3.504 6.78 3.504 5.276 0 9.314-.509 12.107-1.523zM204.042 67.685c-8.733-.305-15.057-.532-18.966-.686-2.54 0-8.607-.533-18.206-1.6-9.598-1.117-15.006-1.675-16.225-1.675-3.25 0-10.689 1.143-22.319 3.428-.05 0-.102.025-.152.076.406.558.889 1.193 1.448 1.904 1.116 1.523 2.031 2.818 2.742 3.884-.355 0-.686.025-.99.076l-2.285.153c-7.465.05-13.381.837-17.748 2.361-1.523.507-2.869 1.117-4.038 1.829-1.371.812-3.123 1.955-5.256 3.428-1.32.711-2.869 1.193-4.646 1.447-1.066-.965-2.361-2.007-3.885-3.124-.254-.152-.483-.304-.686-.457 1.523-.253 2.718-.583 3.581-.99 1.879-.813 2.818-2.362 2.818-4.647 0-2.183-1.092-3.681-3.275-4.493-1.473-.509-3.504-.762-6.094-.762-1.016-1.727-1.523-3.175-1.523-4.343 0-1.422.203-2.767.609-4.036.152-.406.305-.762.457-1.067 1.829-.355 4.165-.534 7.008-.534.458 0 2.362.865 5.713 2.59 2.641 1.219 5.053 2.005 7.236 2.361.914.153 1.803.229 2.666.229h1.295c3.453 0 7.287-.076 11.502-.229 4.114-.102 8.582-.278 13.407-.533 11.781-.61 23.41-1.448 34.887-2.514 6.855-.102 14.295-.482 22.318-1.143 3.047-.253 5.764-.508 8.151-.762.253-.05.533-.076.837-.076-.304 1.879-.457 3.885-.457 6.018l.076 3.887zm2.134 27.347c-8.836.711-22.243 1.066-40.22 1.066-2.132 0-4.595.532-7.388 1.6-1.523.558-3.605 1.372-6.246 2.437 2.792 1.117 4.849 2.565 6.17 4.343.66.913 1.117 1.829 1.371 2.742h-7.541c-5.332-.61-10.258-1.372-14.778-2.285l-2.361-.532c-.102-.053-.203-.078-.305-.078-2.133-.507-4.165-1.064-6.094-1.675-9.293-2.843-14.6-5.814-15.92-8.912.254-.103.507-.204.762-.305 1.828-.711 3.682-1.372 5.561-1.98 1.218-.052 2.514-.078 3.884-.078 1.067 0 3.403-.076 7.008-.228 2.133-.101 4.723-.204 7.77-.305 7.566-.356 17.875-.863 30.926-1.523 1.066 0 7.313.177 18.739.532 7.516.204 13.559.381 18.129.534.152 1.574.33 3.123.533 4.647zm-69.013 27.498c1.829.101 3.708.153 5.637.153h36.563c6.601-1.423 13.634-2.489 21.1-3.2 3.859-.253 7.084-.482 9.673-.686.661 2.996 1.372 5.891 2.133 8.684-2.438.254-5.028.584-7.77.99-6.144.863-12.112 1.498-17.9 1.904l-27.575-.152c-7.008-.559-14.168-1.93-21.481-4.113-.152-.051-.279-.102-.381-.152-1.473-.457-2.819-.889-4.037-1.295-.102-.051-.229-.102-.381-.152-.406-.864-.736-1.676-.99-2.438 1.727.204 3.53.355 5.409.457zm26.584 31.156c-2.59-.559-5.383-1.522-8.379-2.896-2.641-1.22-4.825-2.485-6.551-3.81 4.063.104 8.405-.127 13.026-.684h22.09c14.574-.305 25.975-.967 34.201-1.982.965 2.084 1.956 4.039 2.971 5.867-3.301.66-6.297 1.523-8.988 2.59-1.473-.104-3.022-.18-4.647-.229-2.183-.051-10.664.305-25.441 1.066-7.212.408-13.305.433-18.282.078zm156.232 62.994c-.053.103-.103.203-.152.305l-1.523 3.429c-.051.103-.102.254-.152.457-2.438 2.133-5.991 3.885-10.664 5.256-7.312 1.422-11.069 2.133-11.273 2.133-1.473.152-2.868.279-4.189.382-3.654-.152-7.488-.255-11.5-.306l-58.272.229c-4.317-.355-8.201-.381-11.654-.076-.458.051-.915.102-1.371.152-1.27-.152-2.565-.279-3.885-.382-.203 0-3.707-.659-10.512-1.979-.254-.051-.508-.103-.762-.152-4.672-1.371-8.227-3.123-10.665-5.256-.05-.203-.102-.355-.152-.457-1.015-3.047-2.945-6.221-5.789-9.521-4.926-5.738-10.792-8.606-17.597-8.606h-6.169c-3.961-.763-8.709-1.347-14.245-1.752-5.383-.406-8.988-.966-10.817-1.677-.05-.203-.076-.432-.076-.686 0-2.082 2.082-4.164 6.247-6.246 3.758-.965 8.938-1.447 15.539-1.447 3.809 0 9.521.763 17.139 2.285h2.133c10.054 2.844 22.649 4.672 37.781 5.484h11.426c-1.574.66-3.352 1.396-5.333 2.209-7.515 3.352-11.578 6.551-12.188 9.598.965 1.473 2.235 2.844 3.809 4.113 4.824 4.063 11.553 6.348 20.186 6.855h.99c.762 0 1.574.024 2.438.076 2.793.102 7.008.33 12.645.686 2.031-.102 4.164-.203 6.398-.305 6.145-.254 10.944-.254 14.397 0v-.457c.913.051 1.854.076 2.816.076 29.201-.355 46.541-1.422 52.026-3.199.71-.256 1.699-.663 2.97-1.221zm109.23-145.719c-.659 1.879-1.726 3.884-3.198 6.018-1.372 1.93-2.717 3.809-4.038 5.636 7.364 14.777 12.898 25.924 16.606 33.44-2.031.153-3.555 1.066-4.57 2.742-.661 1.066-.991 2.058-.991 2.971 0 3.454 1.778 6.374 5.332 8.76-.607.862-1.269 1.853-1.979 2.97h-.685c-1.064-.15-2.132-.455-3.197-.912-1.22-2.438-2.718-5.562-4.495-9.371-3.655-7.769-6.424-13.355-8.303-16.758-3.099-5.738-6.119-10.283-9.063-13.635.457-.406.888-.837 1.294-1.294 2.135-2.54 3.199-5.231 3.199-8.074 0-1.321-.152-2.744-.457-4.267 4.724-.457 7.923-2.538 9.598-6.246.61-1.372.991-2.87 1.144-4.495v-.989c.305-.052.609-.077.915-.077.807 0 1.771 1.195 2.888 3.581zm-51.873-7.998c-11.07 2.235-22.979 3.96-35.727 5.179h-22.853c-2.03-.507-6.016-1.219-11.958-2.132h-9.217l1.828 8.835c-.305 0-.584.025-.84.076l-7.235.153c.204-3.402.33-6.424.381-9.064v-2.209-.381-.381l-.228-4.038c-.051-.102-.076-.177-.076-.228-.053-.355-.104-.686-.153-.991.306 0 .585.025.839.076.152 0 .305.025.457.078 1.93.202 4.112.406 6.551.608.355 0 .736.025 1.144.076 8.022.66 15.462 1.041 22.317 1.143 11.479 1.066 23.105 1.904 34.889 2.514 7.516.356 14.143.585 19.881.686zm-70.307 42.427c-3.1-.507-5.993-.938-8.686-1.294-.914-.101-1.777-.204-2.59-.305l-3.199-.457c-.203-.05-.406-.075-.609-.075-1.116-.104-2.185-.204-3.198-.306-.103-.05-.203-.075-.306-.075.608-4.013 1.144-8.177 1.601-12.493 1.879-.051 4.013-.101 6.397-.153 2.388-.101 5.027-.177 7.924-.228.303-.051.658-.076 1.063-.076.864 0 1.778-.025 2.744-.078 1.573-.05 3.047-.101 4.417-.151 8.633-.255 13.406-.381 14.321-.381 27.167 1.372 42.401 2.056 45.702 2.056 1.371 0 2.666.025 3.886.078 1.879.608 3.731 1.269 5.562 1.98.254.101.508.203.762.305-.405.914-1.143 1.827-2.209 2.742-3.557-.101-6.906-.153-10.057-.153-1.117 0-3.554.179-7.313.534-4.012.406-6.651.736-7.922.989l-46.617.153c-.255.051-.559.126-.913.228-1.067 1.372-1.603 2.996-1.603 4.875l.843 2.285zM63.656 77.969c.458 1.929.686 4.24.686 6.931 0 .61-1.067 4.774-3.2 12.492-1.117 3.859-2.209 7.693-3.275 11.502 0 2.234 1.193 4.189 3.581 5.867.863.607 3.3 1.879 7.312 3.808.305.152.609.306.915.457-.609 1.319-1.27 2.717-1.981 4.189-2.184 4.672-3.935 8.279-5.255 10.816-.762-.355-1.625-.533-2.59-.533h-.534c-.71-1.117-1.371-2.107-1.98-2.97 3.555-2.387 5.332-5.307 5.332-8.76 0-.913-.33-1.904-.99-2.971-1.117-1.88-2.894-2.818-5.332-2.818-2.285 0-4.266 1.093-5.941 3.276-1.422 1.776-3.885 2.817-7.389 3.123-1.676-.255-3.402-.356-5.18-.306h-.381c-.355-.101-.711-.229-1.067-.381-.152-.151-.305-.279-.457-.381 9.902-8.228 17.977-19.679 24.223-34.354 1.421-3.605 2.588-6.601 3.503-8.987zm-17.52 58.576c-1.218 1.168-3.173 2.186-5.865 3.047-4.773 1.525-7.16 2.818-7.16 3.885 0 2.947 2.539 5.738 7.617 8.379 1.828.968 3.351 1.955 4.57 2.974-.914.354-1.904.66-2.971.912-2.285.561-4.9.891-7.846.991h-1.676c-5.332 0-9.191-.862-11.579-2.592-1.066-1.168-1.599-2.461-1.599-3.883 0-2.336.508-5.258 1.523-8.76.305-1.018.609-1.906.914-2.668.153-.455.331-.887.534-1.293.507-1.117 1.041-1.982 1.599-2.59.406-.355.889-.662 1.448-.916 1.015.053 1.98.104 2.894.154 1.574.557 3.352.938 5.333 1.143 3.453 1.168 7.464 1.498 12.035.988.051.053.128.129.229.229zm18.281-60.481c.508-1.269.914-2.285 1.219-3.047.253-.66.507-1.244.762-1.751 1.117-2.59 2.107-3.886 2.97-3.886.305 0 .609.025.914.077v.989c.153 1.625.534 3.123 1.143 4.495 1.676 3.708 4.875 5.789 9.598 6.246-.304 1.523-.457 2.946-.457 4.267 0 2.843 1.066 5.534 3.199 8.074.406.457.838.888 1.295 1.294-1.523 1.727-3.047 3.783-4.57 6.169-.152.153-.28.33-.381.534-1.422-1.017-2.615-2.311-3.58-3.884-1.523-2.54-2.285-5.307-2.285-8.303 0-3.047-1.879-5.713-5.637-7.998-1.879-1.117-3.275-2.209-4.19-3.276zm221.13 42.887l.153-.153c2.538.203 5.713.433 9.521.686 7.465.711 14.5 1.777 21.1 3.2h36.563c3.909 0 7.593-.204 11.046-.61-.256.762-.586 1.574-.992 2.438-1.42.508-3.021 1.041-4.797 1.6-7.313 2.184-14.474 3.555-21.481 4.113l-27.574.152c-5.789-.406-11.756-1.041-17.899-1.904-2.742-.406-5.332-.736-7.771-.99.761-2.744 1.471-5.587 2.131-8.532zm-23.613-48.295c-1.979.305-4.113.457-6.397.457-2.336 0-5.789-.05-10.359-.151-1.016 0-1.98.05-2.895.151-.711 1.017-1.549 2.235-2.514 3.657.203 6.957.635 19.271 1.295 36.944.153 4.315.406 7.769.762 10.358.457 3.2 1.118 6.145 1.98 8.836 1.778 2.845 4.291 4.265 7.541 4.265 1.271 0 2.844-.657 4.725-1.979.912-.66 1.726-1.144 2.437-1.447-1.522 4.164-3.604 7.947-6.245 11.35-.56.662-1.117 1.297-1.677 1.904-.914 1.068-1.802 2.059-2.667 2.973h-.076l-.076-.076c-.863-.916-1.752-1.879-2.666-2.896-5.434-6.094-8.811-13.531-10.131-22.317-.152-1.168-.508-4.394-1.066-9.675-.203-1.726-.406-3.655-.609-5.789-.406-4.013-.838-7.466-1.295-10.359v-.305c-.051-.102-.076-.177-.076-.229-.203-.659-.355-1.548-.458-2.666-.152-.964-.253-2.056-.304-3.274v-3.123c.609-1.118 1.143-2.235 1.6-3.352 1.016-2.691 1.523-5.46 1.523-8.303 0-2.843-.432-5.332-1.295-7.465-.05-.102-.101-.203-.152-.304-.457-.965-1.016-1.854-1.676-2.666v-5.028h33.362v5.028c-.202.253-.405.533-.608.838-.917 1.317-1.577 2.865-1.983 4.643zm12.644 79.526c1.016-1.828 2.007-3.783 2.971-5.867 8.229 1.017 19.628 1.679 34.202 1.982h22.09c4.621.557 8.964.787 13.025.684-1.726 1.322-3.909 2.59-6.552 3.81-2.996 1.373-5.787 2.338-8.379 2.896-4.977.355-11.069.33-18.281-.076-14.776-.762-23.258-1.116-25.441-1.065-1.624.049-3.173.125-4.646.229-2.691-1.07-5.688-1.933-8.989-2.593zm-39.381 16.072c.203-.152.432-.281.686-.381 3.351 1.674 6.982 2.514 10.892 2.514h2.132c4.215 0 8.125-.99 11.731-2.971-.307 1.635-.572 3.336-.802 5.104h-23.765c-.092-.225-.206-.453-.343-.688-.15-1.268-.328-2.461-.531-3.578z"/>
    <path d="M209.221 229.143l-.058-.008c-1.259-.15-2.559-.277-3.864-.378-.085-.015-.334-.003-10.568-1.987l-.765-.153c-4.762-1.396-8.414-3.198-10.896-5.37l-.119-.104-.038-.152c-.055-.225-.098-.321-.114-.354-1.017-3.036-2.932-6.183-5.72-9.419-4.804-5.597-10.597-8.434-17.218-8.434h-6.169c-4.018-.764-8.791-1.352-14.281-1.754-5.484-.413-9.069-.973-10.961-1.709l-.242-.094-.063-.252c-.06-.242-.09-.513-.09-.806 0-2.31 2.134-4.499 6.523-6.692l.099-.037c3.781-.972 9.051-1.463 15.663-1.463 3.823 0 9.623.771 17.237 2.295l2.104-.011.067.019c9.971 2.82 22.646 4.66 37.672 5.468l13.885-.001-2.292.961c-1.575.661-3.354 1.396-5.336 2.211-7.144 3.186-11.13 6.227-11.842 9.036.917 1.356 2.124 2.642 3.587 3.821 4.726 3.979 11.418 6.248 19.901 6.746h.96c.768 0 1.598.025 2.467.076 2.773.102 7.032.331 12.646.687 1.976-.103 4.109-.203 6.344-.306 5.831-.242 10.5-.254 13.92-.035v-.45l.527.028c.898.051 1.838.076 2.789.076 29.006-.354 46.461-1.422 51.873-3.176.678-.242 1.666-.646 2.924-1.201l1.3-.57-.767 1.479-1.552 3.483c-.028.06-.069.156-.124.375l-.038.152-.118.104c-2.481 2.172-6.134 3.975-10.853 5.359-11.06 2.152-11.291 2.152-11.415 2.152-1.426.15-2.825.277-4.15.379l-.029.004-.029-.002c-3.635-.152-7.5-.254-11.486-.305l-58.265.229c-4.348-.354-8.204-.379-11.612-.078l-1.414.161zm71.299-1.309c3.994.051 7.857.152 11.494.305 1.309-.102 2.688-.228 4.146-.377.259-.023 2.391-.408 11.229-2.128 4.461-1.311 7.945-3.011 10.316-5.042.047-.166.097-.299.148-.402l1.125-2.533c-.728.307-1.323.542-1.806.714-5.6 1.813-22.666 2.869-52.188 3.229-.791 0-1.567-.018-2.322-.052v.47l-.537-.039c-3.416-.252-8.245-.252-14.34.002-2.231.101-4.363.201-6.394.304-5.663-.354-9.912-.584-12.688-.685-.861-.052-1.672-.076-2.42-.076h-.99c-8.732-.514-15.622-2.858-20.508-6.974-1.6-1.291-2.916-2.714-3.905-4.222l-.112-.172.04-.2c.649-3.246 4.729-6.503 12.474-9.957 1.075-.44 2.086-.856 3.037-1.252h-8.927c-15.093-.81-27.818-2.654-37.851-5.483h-2.064c-7.648-1.521-13.381-2.285-17.139-2.285-6.498 0-11.667.478-15.363 1.418-3.93 1.973-5.922 3.916-5.922 5.774 0 .111.006.218.017.315 1.853.646 5.353 1.164 10.413 1.547 5.528.406 10.34.998 14.301 1.76l6.075-.009c6.925 0 12.974 2.955 17.976 8.78 2.873 3.336 4.853 6.596 5.884 9.689.032.057.076.178.122.338 2.37 2.031 5.855 3.731 10.361 5.055l.719.142c8.22 1.595 10.213 1.952 10.437 1.972 1.314.102 2.609.227 3.864.377l1.313-.146c3.489-.31 7.425-.281 11.75.075l58.235-.232zm-20.243-56.814h-24.541l-.127-.311c-.083-.204-.188-.411-.312-.624l-.065-.192c-.15-1.254-.328-2.447-.528-3.549l-.056-.305.248-.186c.244-.184.514-.334.804-.446l.207-.081.199.1c3.269 1.633 6.858 2.461 10.668 2.461h2.133c4.109 0 7.976-.979 11.49-2.908l.927-.51-.194 1.039c-.298 1.596-.564 3.303-.796 5.076l-.057.436zm-23.88-1H259.4c.17-1.271.359-2.504.564-3.688-3.416 1.695-7.131 2.555-11.058 2.555h-2.133c-3.885 0-7.552-.828-10.904-2.462-.042.021-.083.042-.124.065.175.998.332 2.066.467 3.181.069.117.13.233.185.349zm226.481-12.788c-8.689 0-14.838-1.953-18.273-5.807l-.081-.092-.029-.119c-.063-.24-.091-.505-.091-.808-.054-1.159-.078-1.8-.078-1.904 0-.956.544-2.429 1.661-4.503 1.271-2.364 1.539-3.536 1.539-4.104 0-.101-.018-.197-.051-.299l-.063-.197.092-.185c.836-1.676 1.457-2.733 1.899-3.231l.185-.209.274.047c.271.048.552.07.83.07 2.407.2 4.573.2 6.6.008.185-.058.373-.086.562-.086h.904l-.479.767c-.24.383-.489.83-.738 1.329-1.681 3.035-1.93 3.979-1.93 4.271 0 1.604.656 3.271 1.952 4.95 1.648 2.229 3.734 3.31 6.386 3.31 5.191 0 9.209-.502 11.938-1.492l.671-.243v1.551c0 1.543-.582 2.962-1.729 4.22l-.076.068c-2.466 1.784-6.46 2.688-11.875 2.688zm-17.44-6.375c3.255 3.566 9.12 5.375 17.438 5.375 5.169 0 8.951-.83 11.243-2.467.965-1.072 1.435-2.221 1.435-3.509v-.142c-2.805.881-6.705 1.326-11.609 1.326-2.948 0-5.364-1.246-7.184-3.707-1.428-1.851-2.154-3.721-2.154-5.553 0-.486.231-1.464 2.045-4.738.087-.172.174-.342.263-.506-1.96.156-4.06.141-6.267-.047-.213-.004-.433-.013-.662-.039-.283.383-.75 1.142-1.505 2.643.027.134.043.27.043.402 0 1.006-.542 2.504-1.658 4.578-1.274 2.363-1.542 3.494-1.542 4.027 0 .104.024.729.077 1.882.001.186.013.343.037.475zM34.49 157.232h-1.685c-5.415 0-9.41-.904-11.872-2.688l-.076-.068c-1.148-1.258-1.73-2.678-1.73-4.22 0-2.374.519-5.368 1.543-8.899.31-1.032.622-1.944.93-2.713.151-.453.339-.908.551-1.332.521-1.146 1.088-2.063 1.678-2.705.483-.426 1.011-.76 1.609-1.031l.111-.051.122.007c1.016.053 1.981.104 2.896.153l.139.027c1.53.541 3.285.917 5.217 1.117l.109.023c3.369 1.14 7.345 1.465 11.82.965l.246-.027.754.758-.371.356c-1.271 1.218-3.31 2.282-6.059 3.161-6.483 2.072-6.812 3.203-6.812 3.408 0 2.73 2.472 5.4 7.348 7.937 1.862.983 3.429 2.004 4.66 3.032l.65.543-.79.307c-.936.364-1.958.678-3.038.934-2.301.563-4.975.902-7.943 1.006h-.007zm-12.928-3.466c2.292 1.637 6.075 2.467 11.244 2.467h1.667c2.896-.101 5.5-.43 7.735-.978.725-.172 1.42-.369 2.078-.592-1.058-.799-2.33-1.593-3.792-2.365-5.23-2.72-7.883-5.688-7.883-8.821 0-.912.854-2.233 7.507-4.36 2.015-.646 3.613-1.382 4.771-2.196-4.181.352-7.902-.02-11.124-1.1-1.961-.206-3.751-.59-5.324-1.139-.855-.048-1.754-.096-2.697-.145-.464.222-.873.484-1.217.786-.479.526-.988 1.354-1.473 2.421-.198.396-.369.811-.515 1.244-.307.769-.609 1.652-.909 2.652-.997 3.438-1.502 6.336-1.502 8.616 0 1.29.469 2.437 1.434 3.51zm302.677.67c-3.205 0-6.775-.109-10.612-.326-14.678-.758-23.227-1.116-25.402-1.065-1.605.048-3.162.125-4.621.228l-.113.008-.106-.041c-2.649-1.051-5.646-1.913-8.901-2.564l-.672-.135.332-.6c1.012-1.821 2.006-3.785 2.953-5.834l.153-.33.362.045c8.185 1.01 19.675 1.676 34.15 1.979h22.079c4.668.559 8.997.792 13.013.684l1.539-.039-1.223.937c-1.74 1.334-3.977 2.636-6.645 3.866-3.016 1.381-5.868 2.367-8.483 2.931-2.394.172-4.995.256-7.803.256zm-35.544-2.398c2.781 0 11.188.36 24.984 1.071 7.161.402 13.288.428 18.221.076 2.475-.537 5.26-1.5 8.207-2.852 1.979-.913 3.707-1.861 5.162-2.831-3.594-.002-7.453-.224-11.488-.711l-22.03.004c-14.31-.299-25.708-.952-33.901-1.942-.809 1.731-1.649 3.4-2.507 4.975 3.017.637 5.808 1.455 8.304 2.438 1.438-.101 2.971-.175 4.553-.223.141-.003.306-.005.495-.005zm-117.251 2.398c-2.808 0-5.409-.084-7.733-.25-2.686-.574-5.539-1.562-8.552-2.941-2.67-1.232-4.906-2.532-6.647-3.866l-1.222-.937 1.539.039c4.011.107 8.357-.125 12.954-.68l22.15-.004c14.466-.303 25.956-.969 34.14-1.979l.361-.045.153.33c.952 2.057 1.946 4.02 2.955 5.834l.333.6-.671.135c-3.256.651-6.251 1.514-8.902 2.564l-.105.041-.114-.008c-1.46-.103-3.017-.18-4.627-.228-2.111-.05-10.717.31-25.4 1.065-3.836.219-7.407.33-10.612.33zm-21.031-6.932c1.456.969 3.186 1.918 5.165 2.831 2.945 1.351 5.73 2.313 8.275 2.86 4.782.332 10.992.316 18.148-.086 14.742-.76 23.29-1.113 25.481-1.066 1.585.048 3.117.122 4.558.223 2.497-.981 5.286-1.801 8.302-2.438-.854-1.568-1.695-3.237-2.507-4.975-8.192.99-19.592 1.645-33.891 1.942h-22.101c-3.975.484-7.825.698-11.43.709zm97.72.969h-.498l-.223-.223c-.876-.93-1.768-1.896-2.685-2.916-5.475-6.141-8.924-13.734-10.253-22.577-.153-1.173-.512-4.433-1.069-9.696-.203-1.723-.407-3.657-.61-5.794-.403-3.982-.838-7.458-1.292-10.329l-.004-.27c-.038-.09-.061-.17-.071-.246-.205-.683-.36-1.596-.462-2.717-.15-.947-.254-2.068-.306-3.299v-3.271l.061-.112c.598-1.097 1.128-2.208 1.576-3.302.985-2.608 1.486-5.342 1.486-8.114 0-2.766-.423-5.215-1.259-7.278l-.135-.267c-.441-.933-.984-1.795-1.617-2.576l-.112-.138v-5.706h34.363v5.704l-.11.137c-.194.242-.39.51-.583.802-.878 1.268-1.52 2.773-1.909 4.48l-.075.331-.336.052c-1.99.307-4.17.462-6.475.462-2.338 0-5.826-.051-10.371-.151-.901 0-1.779.042-2.604.125-.659.944-1.421 2.053-2.289 3.331.204 6.95.638 19.322 1.29 36.779.152 4.285.407 7.753.757 10.309.447 3.127 1.101 6.052 1.942 8.692 1.692 2.676 4.01 3.977 7.084 3.977 1.161 0 2.653-.636 4.436-1.89.935-.675 1.787-1.181 2.527-1.498l1.064-.456-.396 1.087c-1.535 4.194-3.662 8.06-6.322 11.483-.574.685-1.139 1.324-1.701 1.938-.908 1.063-1.811 2.066-2.671 2.979l-.148.158zM231.66 87.39v2.996c.049 1.172.15 2.254.298 3.197.103 1.112.25 1.975.442 2.596l.098.377v.305c.45 2.811.887 6.306 1.292 10.309.203 2.133.406 4.059.608 5.781.557 5.262.915 8.513 1.065 9.669 1.298 8.636 4.666 16.057 10.008 22.048.822.915 1.623 1.786 2.404 2.618.751-.806 1.533-1.683 2.327-2.61.565-.615 1.118-1.244 1.674-1.9 2.324-2.994 4.237-6.35 5.69-9.978-.379.228-.782.495-1.207.802-1.986 1.397-3.625 2.075-5.017 2.075-3.419 0-6.099-1.514-7.965-4.5l-.052-.112c-.868-2.708-1.541-5.709-2-8.918-.355-2.592-.613-6.094-.766-10.412-.657-17.595-1.093-30.026-1.295-36.947l-.004-.162.091-.134c.966-1.425 1.805-2.646 2.518-3.663l.13-.186.225-.025c.927-.103 1.919-.154 2.95-.154 4.548.101 8.03.151 10.359.151 2.127 0 4.14-.135 5.991-.401.424-1.696 1.088-3.204 1.977-4.486.171-.257.346-.501.521-.727v-4.355H231.66v4.353c.636.805 1.183 1.688 1.628 2.627l.148.296c.899 2.217 1.347 4.792 1.347 7.687 0 2.893-.523 5.746-1.556 8.48-.451 1.103-.976 2.21-1.567 3.303zm-169 47.298l-.434-.203c-.692-.321-1.492-.485-2.379-.485h-.808l-.147-.231c-.699-1.1-1.36-2.092-1.966-2.95l-.296-.419.425-.286c3.439-2.309 5.111-5.039 5.111-8.345 0-.815-.308-1.727-.916-2.708-1.034-1.74-2.637-2.582-4.907-2.582-2.141 0-3.954 1.008-5.545 3.081-1.51 1.887-4.113 3-7.742 3.317l-.06.005-.059-.009c-1.638-.249-3.349-.351-5.09-.3l-.531-.019c-.367-.104-.747-.239-1.127-.402l-.156-.105c-.127-.126-.255-.235-.382-.32l-.557-.372.515-.428c9.794-8.138 17.896-19.632 24.082-34.165 1.416-3.592 2.583-6.587 3.497-8.972l.58-1.513.374 1.576c.464 1.957.7 4.328.7 7.046 0 .421-.333 2.188-3.218 12.625-1.112 3.841-2.197 7.651-3.257 11.436.023 2.051 1.125 3.815 3.368 5.391.846.596 3.282 1.863 7.241 3.766l1.355.676-.204.441c-.611 1.322-1.272 2.722-1.985 4.197-2.182 4.668-3.953 8.313-5.262 10.829l-.22.428zm-3.072-1.69h.259c.853 0 1.644.133 2.357.396 1.28-2.484 2.972-5.977 5.035-10.391.634-1.312 1.225-2.561 1.776-3.747l-.48-.24c-4.001-1.924-6.486-3.219-7.376-3.846-2.517-1.769-3.793-3.88-3.793-6.276l.019-.135c1.066-3.81 2.159-7.646 3.276-11.506 2.767-10.011 3.18-12.037 3.18-12.353 0-1.894-.116-3.609-.347-5.122-.803 2.079-1.762 4.533-2.878 7.363-6.152 14.455-14.186 25.938-23.889 34.152.269.11.536.203.794.279h.311c1.697-.05 3.516.051 5.195.302 3.315-.298 5.665-1.285 6.983-2.932 1.761-2.296 3.894-3.464 6.332-3.464 2.615 0 4.554 1.031 5.762 3.063.702 1.134 1.061 2.222 1.061 3.226 0 3.475-1.727 6.462-5.134 8.886.49.708 1.012 1.493 1.557 2.345zm377.056 1h-.96c-1.173-.16-2.291-.479-3.396-.952l-.168-.071-.082-.164c-1.214-2.429-2.729-5.585-4.501-9.384-3.63-7.715-6.419-13.343-8.287-16.728-3.066-5.681-6.095-10.238-9.002-13.547l-.328-.374.372-.33c.438-.391.86-.813 1.252-1.253 2.036-2.424 3.073-5.032 3.073-7.742 0-1.282-.15-2.685-.447-4.169l-.107-.542.551-.053c4.572-.442 7.58-2.39 9.188-5.954.585-1.313.955-2.772 1.102-4.335l-.002-1.365.416-.071c.329-.056.665-.084.999-.084 1.048 0 2.109 1.229 3.347 3.869l.086.185-.067.193c-.67 1.91-1.767 3.975-3.259 6.136-1.314 1.85-2.602 3.648-3.867 5.399 7.154 14.355 12.695 25.514 16.474 33.171l.328.664-.738.056c-1.879.142-3.246.96-4.181 2.503-.61.985-.92 1.896-.92 2.711 0 3.306 1.673 6.036 5.11 8.345l.425.285-.295.418c-.599.85-1.261 1.842-1.967 2.951l-.149.232zm-3.794-1.801c.97.398 1.944.67 2.904.806l.342-.005c.55-.855 1.07-1.642 1.558-2.344-3.408-2.424-5.136-5.412-5.136-8.886 0-1.005.358-2.093 1.066-3.234.973-1.604 2.396-2.575 4.235-2.889-3.792-7.682-9.271-18.713-16.294-32.807l-.136-.271.178-.245c1.319-1.826 2.665-3.704 4.035-5.632 1.388-2.01 2.42-3.929 3.065-5.702-1.376-2.879-2.146-3.107-2.354-3.107-.139 0-.277.006-.415.018v.549c-.158 1.718-.557 3.283-1.187 4.698-1.682 3.723-4.863 5.9-9.463 6.479.242 1.353.365 2.638.365 3.83 0 2.952-1.116 5.776-3.316 8.396-.314.354-.643.692-.98 1.012 2.857 3.331 5.819 7.822 8.809 13.358 1.876 3.398 4.675 9.046 8.314 16.782 1.733 3.705 3.214 6.796 4.41 9.194zm-123.782-1.321l-.02-.001c-5.773-.405-11.808-1.047-17.935-1.908-2.726-.404-5.333-.736-7.753-.988l-.588-.062.158-.57c.754-2.711 1.469-5.573 2.125-8.506l.032-.142.419-.419.23.018c2.535.203 5.709.433 9.515.685 7.448.709 14.55 1.785 21.119 3.199h36.511c3.867 0 7.563-.204 10.986-.607l.783-.092-.25.748c-.262.778-.603 1.617-1.014 2.492l-.089.188-.196.07c-1.41.505-3.031 1.045-4.814 1.606-7.319 2.186-14.582 3.576-21.592 4.135l-27.627.154zm-25.013-3.83c2.266.245 4.687.558 7.203.931 6.094.856 12.1 1.495 17.844 1.899l27.556-.152c6.903-.552 14.097-1.929 21.342-4.092 1.683-.529 3.224-1.042 4.575-1.521.23-.499.436-.984.613-1.451-3.233.348-6.695.524-10.303.524l-36.669-.011c-6.547-1.412-13.627-2.485-21.042-3.191-3.641-.241-6.712-.462-9.197-.66-.6 2.653-1.247 5.248-1.922 7.724zm-97.44 3.83h-.019l-27.575-.152c-7.046-.56-14.308-1.951-21.621-4.134-.193-.064-.341-.125-.46-.184-1.402-.428-2.751-.861-3.973-1.269-.149-.069-.254-.11-.381-.152l-.203-.068-.091-.194c-.413-.878-.753-1.716-1.012-2.493l-.25-.747.782.092c1.693.2 3.502.353 5.376.454 1.841.102 3.729.153 5.61.153h36.51c6.572-1.415 13.673-2.49 21.106-3.198 3.871-.254 7.094-.483 9.682-.687l.434-.034.094.425c.657 2.979 1.373 5.892 2.127 8.66l.155.568-.585.061c-2.42.252-5.027.584-7.749.987-6.129.861-12.164 1.503-17.938 1.909l-.019.003zm-53.505-6.765c.089.035.169.07.238.104 1.151.379 2.493.809 3.962 1.265.16.072.265.113.391.156 7.23 2.159 14.423 3.536 21.362 4.089l27.519.151c5.747-.404 11.75-1.043 17.847-1.899 2.515-.373 4.936-.685 7.204-.93-.667-2.481-1.302-5.072-1.892-7.717-2.515.195-5.598.413-9.247.652-7.399.705-14.479 1.778-21.027 3.19l-.105.011H142.8c-1.9 0-3.806-.052-5.665-.154-1.604-.086-3.16-.21-4.64-.369.179.465.384.95.615 1.451zm27.41-16.392h-8.198c-5.378-.612-10.364-1.383-14.877-2.295l-2.683-.614c-2.145-.51-4.207-1.076-6.129-1.685-9.524-2.913-14.834-5.92-16.229-9.192l-.2-.469 1.237-.497c1.839-.715 3.719-1.385 5.591-1.991l.132-.024c1.208-.052 2.521-.078 3.906-.078 1.058 0 3.409-.076 6.987-.227 2.132-.101 4.725-.204 7.774-.305 7.559-.356 17.867-.863 30.917-1.523h.006c1.129 0 7.437.179 18.773.532 7.515.204 13.559.381 18.13.535l.438.015.042.437c.152 1.564.331 3.122.532 4.629l.07.522-.525.042c-8.809.708-22.354 1.068-40.26 1.068-2.064 0-4.49.527-7.209 1.567-1.269.464-2.951 1.116-5.125 1.986 2.314 1.079 4.084 2.43 5.271 4.028.695.961 1.182 1.938 1.451 2.907l.178.632zm-25.172-3.792l2.306.52c4.474.904 9.432 1.67 14.725 2.276l6.791-.003c-.252-.648-.614-1.302-1.083-1.95-1.255-1.689-3.259-3.095-5.95-4.171l-1.156-.462 1.155-.466c2.732-1.102 4.781-1.9 6.261-2.442 2.828-1.081 5.374-1.63 7.56-1.63 17.527 0 30.864-.344 39.656-1.023-.157-1.213-.299-2.455-.424-3.705-4.515-.149-10.411-.322-17.688-.519-11.349-.353-17.648-.532-18.725-.532-13.026.66-23.335 1.167-30.902 1.523-3.051.101-5.639.204-7.77.305-3.595.151-5.96.228-7.032.228-1.344 0-2.62.025-3.795.074-1.833.595-3.672 1.25-5.469 1.949l-.256.101c1.583 2.785 6.751 5.532 15.378 8.171 1.889.598 3.911 1.154 6.015 1.655.137.008.272.042.403.101zm172.446 2.095l-.846-.138c-3.064-.501-5.98-.936-8.669-1.292-.906-.1-1.771-.203-2.586-.304l-3.209-.458c-.213-.05-.377-.07-.539-.07-1.164-.106-2.232-.207-3.248-.308l-.168-.048h-.582l.001-.6c.606-4.008 1.145-8.204 1.597-12.471l.046-.435.438-.012c1.88-.051 4.015-.101 6.4-.153 2.364-.1 5.034-.177 7.926-.228.252-.048.639-.076 1.072-.076.86 0 1.774-.026 2.717-.077 1.584-.05 3.058-.101 4.426-.151 8.449-.25 13.406-.381 14.341-.381 27.034 1.364 42.403 2.056 45.702 2.056 1.385 0 2.699.026 3.906.078l.133.024c1.867.604 3.748 1.274 5.589 1.989l1.247.501-.209.474c-.436.977-1.223 1.958-2.342 2.918l-.146.126-.191-.005c-3.593-.102-6.971-.153-10.043-.153-1.089 0-3.533.179-7.266.532-3.971.402-6.619.733-7.871.982l-46.713.163c-.124.033-.35.089-.618.164-.912 1.229-1.382 2.691-1.397 4.351l1.102 3.002zm-15.782-3.261c.191 0 .43.03.663.088l3.15.447c.802.099 1.661.203 2.573.303 2.461.326 5.101.715 7.865 1.161l-.574-1.655c0-1.982.574-3.726 1.707-5.182l.101-.129.155-.045c.371-.106.688-.184.953-.237l46.713-.163c1.188-.246 3.869-.581 7.873-.987 3.82-.361 6.229-.537 7.363-.537 3.025 0 6.348.05 9.875.148.75-.663 1.317-1.325 1.696-1.976l-.253-.101c-1.798-.699-3.639-1.354-5.466-1.948-1.175-.049-2.451-.074-3.796-.074-3.315 0-18.701-.692-45.729-2.056-.898 0-5.847.132-14.281.381-1.367.05-2.842.101-4.416.151-.949.052-1.881.078-2.76.078-.38 0-.71.023-.98.069-2.957.057-5.618.134-7.984.234-2.212.048-4.199.095-5.969.142-.426 3.963-.926 7.862-1.484 11.604.949.094 1.945.188 2.983.284h.022zm-211.715-2.487l-.478-.342c-1.471-1.051-2.721-2.407-3.716-4.03-1.566-2.61-2.359-5.491-2.359-8.564 0-2.846-1.816-5.394-5.397-7.571-1.913-1.137-3.364-2.274-4.31-3.378l-.197-.23 1.332-3.328c.255-.665.518-1.269.779-1.789 1.22-2.831 2.309-4.162 3.417-4.162.333 0 .669.028.998.084l.416.071v1.412c.145 1.517.516 2.976 1.1 4.292 1.61 3.561 4.616 5.508 9.189 5.951l.55.053-.108.542c-.296 1.485-.447 2.887-.447 4.169 0 2.709 1.037 5.317 3.082 7.752.381.428.802.85 1.244 1.243l.373.331-.33.374c-1.501 1.702-3.023 3.757-4.524 6.108l-.067.083c-.117.118-.211.25-.287.403l-.26.526zm-15.3-24.311c.877.953 2.176 1.943 3.866 2.948 3.904 2.374 5.882 5.208 5.882 8.428 0 2.89.745 5.597 2.214 8.046.827 1.348 1.843 2.499 3.025 3.423.037-.043.074-.086.113-.127 1.413-2.209 2.847-4.165 4.268-5.818-.339-.32-.665-.656-.972-1.001-2.21-2.631-3.326-5.455-3.326-8.406 0-1.191.123-2.477.365-3.83-4.598-.58-7.779-2.756-9.461-6.477-.629-1.418-1.028-2.982-1.185-4.654l-.001-.596c-.138-.012-.277-.018-.415-.018-.227 0-1.077.258-2.511 3.584-.258.517-.508 1.091-.754 1.732l-1.108 2.766zm32.242 6.876l-.174-.158c-1.05-.95-2.344-1.99-3.845-3.091-.231-.136-.475-.298-.691-.46l-.933-.702 1.151-.191c1.47-.244 2.631-.563 3.45-.949 1.708-.74 2.531-2.11 2.531-4.195 0-1.97-.965-3.286-2.95-4.024-1.399-.483-3.395-.73-5.919-.73h-.286l-.145-.247c-1.071-1.821-1.592-3.325-1.592-4.596 0-1.467.213-2.876.633-4.188.167-.447.326-.818.485-1.137l.11-.221.243-.047c1.854-.361 4.245-.543 7.104-.543.261 0 .804 0 5.942 2.646 2.566 1.184 4.957 1.965 7.088 2.312.884.148 1.753.223 2.585.223h1.295c3.436 0 7.299-.077 11.484-.229 4.125-.102 8.631-.281 13.399-.533 11.724-.607 23.455-1.452 34.867-2.513 6.851-.103 14.349-.487 22.324-1.143 2.991-.248 5.73-.504 8.139-.761.241-.05.556-.079.891-.079h.587l-.094.58c-.299 1.845-.45 3.843-.45 5.938l.086 4.402-.528-.019c-8.734-.305-15.058-.532-18.968-.686h-.003c-2.532 0-8.675-.539-18.238-1.602-9.534-1.11-14.973-1.672-16.169-1.672-3.145 0-10.421 1.111-21.628 3.302.3.399.633.832.998 1.297 1.151 1.57 2.052 2.847 2.765 3.916l.518.777h-.934c-.327 0-.632.023-.908.069l-2.334.159c-7.405.051-13.322.835-17.617 2.334-1.486.495-2.81 1.094-3.942 1.784-1.355.802-3.114 1.949-5.232 3.412-1.414.764-3.033 1.27-4.86 1.531l-.235.034zm-3.142-3.842c1.343.995 2.497 1.923 3.462 2.785 1.616-.252 3.045-.709 4.25-1.358 2.091-1.447 3.869-2.606 5.238-3.417 1.191-.725 2.584-1.356 4.134-1.873 4.393-1.532 10.418-2.336 17.903-2.386l2.255-.152c.039-.007.079-.013.121-.019-.618-.901-1.37-1.956-2.242-3.147-.553-.704-1.04-1.343-1.449-1.905l-.251-.346.302-.302c.184-.184.376-.222.506-.222 11.512-2.271 19.054-3.428 22.319-3.428 1.252 0 6.579.549 16.282 1.679 9.528 1.059 15.635 1.596 18.148 1.596 3.849.15 9.997.372 18.456.667l-.065-3.356c0-1.925.124-3.766.369-5.488-.052.007-.103.016-.152.026-2.461.265-5.207.521-8.207.77-7.998.658-15.518 1.043-22.353 1.145-11.387 1.06-23.131 1.906-34.868 2.514-4.777.251-9.292.431-13.421.533-4.191.152-8.067.229-11.514.229h-1.295c-.888 0-1.813-.08-2.749-.236-2.218-.362-4.696-1.169-7.363-2.4-4.396-2.263-5.315-2.533-5.508-2.544-2.665 0-4.905.161-6.663.479-.11.238-.22.504-.33.798-.381 1.19-.578 2.497-.578 3.86 0 1.019.441 2.312 1.313 3.844 2.501.019 4.508.284 5.968.788 2.401.893 3.612 2.563 3.612 4.966 0 2.492-1.05 4.21-3.12 5.106-.648.303-1.492.571-2.51.794zm196.708-3.411l.032-.541c.201-3.356.329-6.399.38-9.044V63.04l-.222-3.914c-.058-.132-.082-.244-.082-.352-.046-.28-.097-.606-.146-.909l-.098-.582h.59c.336 0 .65.029.937.085.101-.012.28.019.465.076 1.968.206 4.149.408 6.487.602.332.001.738.025 1.162.079 7.955.654 15.453 1.038 22.266 1.139 11.453 1.063 23.184 1.908 34.904 2.515 7.49.354 14.175.585 19.865.685l4.594.081-4.504.909c-11.027 2.226-23.064 3.971-35.776 5.187l-22.962.002-.061-.015c-2.016-.503-6.022-1.217-11.912-2.123l-8.526.005 1.827 8.836h-.613c-.27 0-.52.022-.742.066l-7.865.174zm1.047-17.265c.02.124.037.25.058.38l.079.272.229 4.828v2.209c-.049 2.524-.166 5.397-.35 8.553l6.694-.142c.067-.016.15-.03.242-.042l-1.836-8.87h9.831c5.938.907 9.956 1.622 12.021 2.132h22.791c10.899-1.044 21.332-2.483 31.054-4.285-4.587-.124-9.688-.318-15.231-.581-11.738-.607-23.482-1.454-34.91-2.516-6.797-.099-14.316-.484-22.313-1.143-.405-.05-.769-.074-1.103-.074-2.406-.198-4.613-.403-6.603-.611l-.108-.024c-.102-.034-.197-.051-.297-.051-.089-.012-.17-.024-.248-.035z"/>
  </g>
  <path fill="#171717" d="M487.214 130.708c-2.448-3.694-5.519-6.604-9.13-8.654.502-2.013.757-4.234.757-6.607 0-4.51-1.135-8.326-3.374-11.345-1.258-1.679-3.832-3.979-7.863-7.028-3.859-3.007-6.828-5.847-8.818-8.435-3.091-4.138-5.368-9.379-6.77-15.579-1.687-7.418-4.935-13.624-9.647-18.441-4.058-4.21-8.799-7.075-14.099-8.516-2.45-.638-4.765-.934-6.9-.866-2.105-4.221-6.567-6.36-13.271-6.36-.596 0-1.209.017-1.83.049-1.844.051-3.895.285-6.093.694-4.522.813-9.728 2.281-15.478 4.367-6.074 2.341-7.305 2.753-7.438 2.786-7.563 0-22.616-1.076-44.741-3.198-21.498-2.104-32.936-3.127-34.963-3.127l-39.432.008c-6.066-.918-11.458-1.065-15.606-.462-3.064-.05-5.719.106-7.778.457h-36.471l-.141-.002c-2.028 0-13.464 1.023-34.962 3.127-22.125 2.122-37.178 3.198-44.683 3.202-.193-.037-1.424-.45-7.506-2.794-5.742-2.083-10.946-3.551-15.471-4.363-11.246-1.984-18.353-.092-21.191 5.617-2.133-.066-4.448.228-6.906.867-5.295 1.44-10.037 4.305-14.09 8.512-4.715 4.817-7.963 11.022-9.652 18.445-1.4 6.199-3.677 11.44-6.764 15.573-1.996 2.594-4.965 5.434-8.818 8.436-4.036 3.053-6.609 5.353-7.869 7.035-2.239 3.018-3.374 6.834-3.374 11.343 0 2.372.254 4.592.757 6.607-3.613 2.051-6.683 4.961-9.128 8.653-3.695 5.544-5.568 12.326-5.568 20.16 0 4.354 1.903 9.191 5.654 14.383 5.71 7.973 14.227 12.016 25.315 12.016 8.44 0 17.119-2.949 25.797-8.77 7.842-5.294 12.126-10.355 12.743-15.053 7.065-.973 11.71-4.812 13.811-11.416.719-2.314 1.188-5.252 1.393-8.734.201-4.339.359-5.16.42-5.316.945-2.289 4.129-7.174 9.463-14.52 1.348-1.843 2.512-3.548 3.467-5.079.986 1.148 2.137 2.304 3.429 3.446-.121.675-.182 1.456-.182 2.327 0 2.751.835 5.973 2.482 9.578 2.102 4.612 5.142 8.691 9.031 12.121 3.156 2.861 6.771 5.211 10.752 6.984-.886 2.497-1.318 4.354-1.318 5.67 0 1.896.975 4.258 2.978 7.21 2.202 3.327 5.187 6.47 8.871 9.336 2.215 1.712 4.594 3.257 7.07 4.591.514.428 1.077.854 1.684 1.273-4.974.366-9.403 1.227-13.185 2.563-4.754 1.688-8.448 4.022-10.981 6.944-1.265.815-2.371 1.667-3.29 2.534-3.641 3.484-5.487 8.682-5.487 15.443 0 2.841.078 5.049.231 6.563l.018.174.122.125c.968.994 2.177 2.621 3.62 4.871 1.841 2.366 4.215 3.913 7.058 4.598 1.292.311 8.23 1.508 21.211 3.664 6.403 1.051 11.902 3 16.35 5.799 3.031 1.856 5.318 4.996 6.794 9.326 1.719 5.209 3.531 8.666 5.542 10.568.478.447 2.453 1.654 14.035 6.945l.097.031c.971.223 2.001.453 3.09.688 10.093 2.182 18.688 3.287 25.547 3.287l1.917-.004c4.359.558 11.656.918 21.694 1.072l24.094.141c.47-.092.972-.164 1.491-.216 1.068.149 2.252.226 3.516.226 3.717 0 8.051-.412 12.798-1.219h2.972c6.857 0 15.453-1.105 25.547-3.287 3.543-.766 6.558-1.495 8.969-2.17l.08.209.512-.309c1.818-1.099 3.412-2.188 4.74-3.237 3.408-2.739 5.896-6.272 7.392-10.498 1.748-4.698 3.539-8.159 5.329-10.297 3.264-4.056 8.066-6.843 14.271-8.281 6.141-1.409 14.162-2.508 23.897-3.271 6.169-1.162 10.44-4.1 12.696-8.729l.048-.168c.155-1.527.231-3.688.231-6.602 0-6.289-1.595-11.233-4.685-14.623-.987-1.596-2.84-3.325-5.655-5.283-4.127-2.956-7.992-4.674-11.494-5.105-1.985-1.01-4.414-1.654-7.143-1.902-1.384-.365-3.003-.551-4.813-.551l-.429.006c-.491-.066-1.127-.129-1.926-.189 1.335-1.221 2.636-2.591 3.876-4.086.745-.516 1.488-1.059 2.212-1.614 3.685-2.864 6.668-6.007 8.867-9.331 2.006-2.957 2.981-5.318 2.981-7.214 0-1.313-.433-3.172-1.318-5.67 3.979-1.772 7.595-4.122 10.747-6.979 3.894-3.435 6.935-7.514 9.036-12.125 1.646-3.606 2.481-6.829 2.481-9.578 0-.869-.062-1.65-.183-2.327 1.291-1.14 2.441-2.296 3.429-3.446.96 1.537 2.124 3.242 3.468 5.078 3.479 4.789 6.059 8.569 7.67 11.238.848 1.396 1.453 2.504 1.795 3.287.06.153.22.978.418 5.318.207 3.482.676 6.419 1.396 8.731 2.099 6.603 6.743 10.439 13.81 11.412.615 4.697 4.899 9.759 12.744 15.055 8.677 5.818 17.355 8.77 25.796 8.77 11.09 0 19.606-4.043 25.313-12.015 3.753-5.192 5.656-10.032 5.656-14.385.003-7.836-1.87-14.618-5.564-20.163zm-53.63-12.174c-.708 1.142-1.066 2.229-1.066 3.234 0 3.474 1.728 6.461 5.136 8.886-.486.702-1.008 1.489-1.558 2.344h-.412c-.806 0-1.55.131-2.219.391-.178-.33-.354-.673-.532-1.025-1.21-2.42-2.72-5.569-4.489-9.36-3.641-7.737-6.438-13.385-8.314-16.782-2.988-5.536-5.949-10.027-8.809-13.358.339-.32.666-.657.98-1.012 2.2-2.619 3.316-5.444 3.316-8.396 0-1.192-.123-2.478-.365-3.83 4.6-.58 7.781-2.757 9.463-6.479.63-1.415 1.027-2.98 1.187-4.698V67.9c.138-.012.275-.018.415-.018.211 0 1.011.237 2.433 3.274.254.606.532 1.289.838 2.053.967 2.343 2.812 7.03 5.486 13.945 6.146 14.44 14.179 25.923 23.884 34.139-.271.112-.534.204-.794.28h-.296c-1.789-.052-3.533.05-5.211.302-3.316-.298-5.665-1.285-6.977-2.924-1.769-2.304-3.9-3.472-6.339-3.472-.285 0-.574.029-.8.078-2.192.165-3.861 1.168-4.957 2.977zm13.282 25.943c1.116-2.074 1.658-3.572 1.658-4.578 0-.135-.016-.27-.043-.402.755-1.501 1.222-2.26 1.505-2.643.229.026.449.035.662.039 2.404.203 4.69.205 6.792 0l.114-.024c.101-.034.196-.052.388-.06 1.363-.25 2.7-.584 3.973-.988 1.961-.207 3.753-.59 5.327-1.139.854-.048 1.754-.096 2.698-.145.463.222.868.482 1.177.749.518.563 1.026 1.39 1.521 2.474.193.391.363.803.517 1.258.299.744.602 1.629.897 2.623.898 3.039 1.404 5.664 1.503 7.779v.838c0 1.288-.47 2.438-1.435 3.508-2.292 1.637-6.074 2.467-11.243 2.467-8.318 0-14.185-1.808-17.439-5.375-.023-.133-.035-.287-.036-.472-.053-1.153-.077-1.778-.077-1.882-.001-.533.267-1.664 1.541-4.027zM264.023 64.999c-.176.226-.351.47-.521.727-.945 1.366-1.638 2.987-2.057 4.817-.361 1.551-.545 3.255-.545 5.065 0 4.038 1.05 8.001 3.121 11.784v2.974c-.049 1.194-.147 2.276-.303 3.25-.099 1.084-.244 1.946-.437 2.563l-.099.261.006.343c-.457 2.9-.896 6.396-1.299 10.386-.926 8.899-1.474 13.953-1.674 15.445-.447 3.147-1.184 6.164-2.184 8.962-1.499 4.099-3.575 7.871-6.158 11.199-.555.656-1.107 1.285-1.674 1.9-.795.93-1.576 1.807-2.327 2.61-.781-.832-1.583-1.703-2.404-2.618-5.342-5.991-8.71-13.413-10.008-22.048-.151-1.158-.509-4.409-1.065-9.669-.203-1.722-.405-3.648-.608-5.781-.405-4.003-.842-7.498-1.292-10.309v-.305l-.098-.377c-.192-.621-.339-1.484-.441-2.596-.148-.942-.249-2.024-.298-3.197V87.39c.591-1.092 1.116-2.199 1.567-3.302 1.032-2.734 1.556-5.587 1.556-8.48 0-2.895-.448-5.47-1.347-7.687l-.148-.296c-.445-.94-.992-1.823-1.628-2.628v-4.353h32.363v4.355h.002zm-17.248 103.888h2.133c3.927 0 7.642-.857 11.058-2.555-.204 1.184-.396 2.417-.565 3.688h-23.002c-.056-.115-.117-.23-.183-.349-.143-1.169-.308-2.286-.492-3.319 3.391 1.682 7.109 2.535 11.051 2.535zM96.609 78.2c2.07-.896 3.12-2.614 3.12-5.106 0-2.403-1.211-4.073-3.612-4.966-1.459-.504-3.466-.769-5.968-.788-.871-1.532-1.313-2.825-1.313-3.844 0-1.363.197-2.67.578-3.86.11-.294.22-.56.33-.798 1.756-.318 3.997-.479 6.664-.479.194.012 1.119.285 5.507 2.544 2.667 1.231 5.146 2.039 7.363 2.4.936.156 1.86.236 2.749.236h1.295c3.449 0 7.325-.077 11.514-.229 4.126-.102 8.642-.281 13.421-.533 11.737-.608 23.482-1.454 34.868-2.514 6.834-.102 14.354-.486 22.353-1.144 3-.249 5.746-.506 8.207-.771.05-.01.101-.018.152-.026-.245 1.722-.369 3.563-.369 5.488l.076 3.886c.049 2.095.141 4.401.276 6.863-7.255-.201-16.925-.451-28.963-.743-2.037-.255-4.095-.461-6.113-.612-8.173-.706-14.762-.811-19.595-.313-1.985-.4-4.248-.603-6.728-.603-3.998 0-7.725.103-11.079.305l-2.255.152c-7.484.05-13.51.854-17.903 2.386-1.55.517-2.943 1.147-4.134 1.873-1.37.812-3.148 1.971-5.238 3.417-1.205.649-2.634 1.106-4.25 1.358-.965-.861-2.119-1.79-3.462-2.785 1.015-.22 1.859-.488 2.509-.794zm17.198 15.698c1.796-.699 3.636-1.354 5.469-1.949 1.176-.049 2.452-.074 3.795-.074 1.074 0 3.438-.077 7.032-.228 2.131-.101 4.719-.204 7.77-.305 7.564-.356 17.869-.863 30.915-1.523 1.113.001 7.408.18 18.712.532 7.277.197 13.173.37 17.688.52.144 1.429.309 2.848.492 4.217.282 2.498.614 4.967.986 7.348-7.765.82-17.665 2.262-29.36 4.283l-24.928.003c-5.293-.606-10.25-1.373-14.725-2.276l-2.306-.52c-.131-.059-.266-.093-.403-.101-2.104-.501-4.126-1.057-6.015-1.655-8.627-2.639-13.795-5.386-15.378-8.171l.256-.101zm23.328 29.131c1.859.103 3.765.154 5.665.154h36.563l.105-.011c6.548-1.412 13.628-2.485 21.027-3.19 3.649-.239 6.732-.458 9.247-.652.589 2.645 1.225 5.236 1.892 7.716-2.268.246-4.689.558-7.204.931-6.103.857-12.114 1.497-17.828 1.899l-27.538-.151c-6.939-.553-14.132-1.93-21.362-4.089-.126-.042-.231-.083-.391-.156-1.469-.456-2.812-.886-3.962-1.265-.069-.035-.149-.069-.238-.104-.231-.5-.436-.986-.614-1.451 1.478.158 3.035.282 4.638.369zm74.904 29.237c-1.441-.101-2.973-.175-4.558-.223-2.188-.051-10.736.307-25.481 1.066-3.818.216-7.369.324-10.554.324h-.003c-2.784 0-5.362-.084-7.591-.236-2.545-.551-5.33-1.514-8.275-2.862-1.979-.913-3.709-1.862-5.165-2.831 3.581-.007 7.455-.225 11.43-.707h22.101c14.299-.299 25.699-.951 33.891-1.941.812 1.735 1.653 3.404 2.507 4.974-3.015.635-5.805 1.453-8.302 2.436zm-61.699 38.711c3.758 0 9.491.767 17.139 2.285h2.064c10.032 2.83 22.757 4.676 37.851 5.484h79.242c13.064-.559 27.851-2.354 43.951-5.342.25-.051.524-.1.74-.143l2.841-.011c7.55-1.51 13.283-2.274 17.041-2.274 6.499 0 11.667.478 15.361 1.418 3.932 1.974 5.924 3.916 5.924 5.774 0 .11-.006.218-.018.315-1.853.645-5.353 1.164-10.412 1.547-5.53.406-10.342.998-14.207 1.751h-6.17c-3.672 0-7.109.84-10.203 2.489-1.246.623-2.43 1.387-3.502 2.256-1.396 1.035-2.73 2.291-3.94 3.703l-.333.336c-1.688 1.996-3.09 3.97-4.174 5.882l-1.682 3.739c-.052.104-.102.236-.147.402-2.371 2.031-5.854 3.731-10.315 5.042-8.841 1.72-10.973 2.104-11.23 2.128-1.469.15-2.858.277-4.117.377-3.643-.15-7.518-.254-11.516-.305h-.008l-58.229.23c-4.326-.358-8.26-.385-11.75-.075l-1.314.146c-1.254-.15-2.549-.275-3.864-.377-.225-.02-2.218-.377-10.437-1.972l-.719-.142c-4.506-1.322-7.991-3.022-10.361-5.055-.045-.16-.09-.281-.122-.338-1.031-3.095-3.011-6.354-5.884-9.689-5.002-5.826-11.051-8.78-17.976-8.78l-6.075.009c-3.962-.762-8.774-1.354-14.301-1.76-5.061-.383-8.561-.901-10.413-1.547-.011-.1-.017-.204-.017-.315 0-1.858 1.993-3.803 5.922-5.774 3.694-.937 8.862-1.414 15.36-1.414zm189.767-40.642c-2.948 1.351-5.732 2.313-8.207 2.853-4.933.354-11.062.326-18.221-.076-13.798-.713-22.203-1.072-24.984-1.072-.189 0-.354.002-.497.005-1.582.048-3.113.122-4.554.222-2.496-.98-5.285-1.8-8.303-2.437.855-1.573 1.697-3.242 2.506-4.974 8.193.99 19.594 1.644 33.902 1.941l22.029-.004c4.037.487 7.896.709 11.49.711-1.454.969-3.182 1.918-5.161 2.831zm55.848-77.242c0 2.492 1.05 4.21 3.105 5.1.659.311 1.506.58 2.522.804-1.326.982-2.487 1.918-3.46 2.785-1.616-.253-3.043-.708-4.203-1.33-2.138-1.476-3.916-2.635-5.281-3.444-4.527-2.726-11.941-4.16-22.006-4.26-3.947-.304-8.445-.458-13.367-.458-2.479 0-4.742.203-6.729.603-4.832-.5-11.425-.394-19.589.312-2.025.151-4.084.357-6.068.608-8.555.2-16.064.404-22.318.608l-6.693.142c.184-3.156.301-6.029.35-8.553v-2.209l-.229-4.828-.08-.272c-.02-.13-.038-.256-.057-.379.078.01.158.022.246.037.1 0 .195.017.297.051l.108.024c1.988.208 4.196.414 6.603.611.334 0 .697.024 1.103.075 7.998.658 15.519 1.042 22.313 1.142 11.428 1.062 23.172 1.908 34.91 2.516 7.5.354 14.194.585 19.893.686 2.229.05 4.359.076 6.334.076 2.854 0 6.254-.887 10.131-2.646 4.379-2.253 5.298-2.523 5.484-2.535 2.67 0 4.91.161 6.666.479.11.237.219.499.321.774.39 1.214.587 2.521.587 3.884 0 .88-.341 1.982-.996 3.249-.11.186-.223.384-.334.595-2.494.02-4.494.285-5.963.792-2.388.889-3.6 2.558-3.6 4.961zm-88.846 31.803c-3.075-.503-6.002-.939-8.711-1.297-.912-.1-1.771-.204-2.573-.303l-3.15-.448c-.233-.057-.472-.087-.663-.087h-.02c-1.038-.096-2.034-.19-2.983-.284.56-3.741 1.06-7.64 1.484-11.604 1.771-.047 3.757-.094 5.969-.142 2.365-.1 5.027-.177 7.983-.234.271-.046.603-.069.981-.069.878 0 1.81-.026 2.761-.078 1.574-.05 3.049-.101 4.416-.151 8.396-.248 13.336-.38 14.293-.381 27.018 1.364 42.399 2.056 45.717 2.056 1.343 0 2.619.025 3.796.074 1.827.593 3.667 1.249 5.465 1.948l.253.101c-.402.692-1.02 1.396-1.833 2.095-2.528 2.082-7.084 4.126-13.538 6.078-6.646 2.012-14.533 3.544-23.395 4.549l-24.897.008c-3.955-.701-7.778-1.317-11.355-1.831zm2.011 24.981c-5.751-.404-11.763-1.043-17.862-1.9-2.518-.373-4.938-.686-7.203-.931.678-2.476 1.322-5.07 1.922-7.726 2.485.197 5.558.418 9.197.66 7.416.707 14.495 1.78 21.042 3.191l36.669.011c3.606 0 7.068-.176 10.303-.524-.179.466-.383.951-.613 1.451-1.352.479-2.893.992-4.576 1.521-7.244 2.163-14.438 3.541-21.341 4.092l-27.538.155zm-261.918 9.621c-.029.132-.043.266-.043.4 0 1.008.543 2.504 1.66 4.576 1.273 2.364 1.54 3.496 1.54 4.028 0 .103-.025.728-.076 1.904 0 .163-.012.313-.037.448-1.305 1.418-3.036 2.6-5.129 3.506-.893.347-1.87.646-2.909.893-2.238.549-4.843.878-7.727.979h-1.676c-5.169 0-8.952-.83-11.244-2.467-.965-1.072-1.434-2.221-1.434-3.509 0-2.28.506-5.181 1.502-8.616.3-1 .603-1.885.909-2.651.146-.435.316-.849.515-1.245.485-1.067.994-1.895 1.473-2.421.344-.302.753-.564 1.217-.786.943.049 1.842.097 2.697.145 1.573.549 3.364.933 5.324 1.139 3.436 1.15 7.452 1.494 11.958 1.021.007.007.014.015.021.021.333.526.823 1.41 1.459 2.635zm15.964-17.73c0-1.004-.358-2.092-1.061-3.226-1.208-2.033-3.146-3.063-5.762-3.063-2.438 0-4.57 1.168-6.332 3.464-1.318 1.647-3.667 2.634-6.983 2.932-1.679-.251-3.495-.35-5.195-.302h-.31c-.259-.076-.525-.169-.795-.279 9.703-8.215 17.736-19.698 23.889-34.152 1.422-3.608 2.59-6.606 3.509-9.004.249-.695.5-1.323.755-1.887l1.222-3.054c.246-.641.496-1.215.754-1.732 1.434-3.325 2.285-3.583 2.511-3.583.138 0 .277.006.415.018l.001.596c.157 1.671.556 3.236 1.185 4.654 1.682 3.72 4.863 5.897 9.461 6.477-.242 1.353-.365 2.639-.365 3.83 0 2.951 1.116 5.775 3.326 8.406.307.346.632.681.972 1.001-1.421 1.654-2.855 3.609-4.268 5.818-.174.184-.318.39-.404.571-1.373 2.083-2.765 4.428-4.133 6.964-1.521 2.738-3.653 6.976-6.339 12.602-.608 1.317-1.268 2.711-1.98 4.188-2.063 4.415-3.755 7.906-5.035 10.39-.714-.263-1.505-.396-2.357-.396h-.259c-.544-.853-1.066-1.637-1.557-2.344 3.407-2.427 5.135-5.414 5.135-8.889z"/>
</svg>