<svg xmlns="http://www.w3.org/2000/svg" width="500" height="262">
  <g fill="#E8E3D9">
    <path d="M370.557 95.791c-1.137 0-3.543.175-7.363.537-4.004.406-6.687.741-7.873.987l-46.713.163c-.266.052-.582.131-.953.237l-.156.045-.102.129c-1.133 1.456-1.707 3.199-1.707 5.183l.975 2.738.295.042c3.563.51 7.375 1.124 11.42 1.833h25.014l.026-.003c8.976-1.014 16.925-2.558 23.627-4.589 6.582-1.989 11.253-4.096 13.884-6.262l1.03-.848-1.333-.038c-3.586-.103-6.976-.154-10.071-.154zM255.725 117.195c-2.276 3.519-3.432 7.096-3.432 10.631 0 1.968 1.32 3.803 3.926 5.449l.276.175.271-.183c.721-.485 1.373-.854 1.938-1.099l.2-.086.072-.205c1.022-2.86 1.774-5.942 2.233-9.166.187-1.395.661-5.705 1.411-12.812l.188-1.765-1.08 1.408c-1.613 2.105-3.624 4.666-6.003 7.653zM285.047 118.262v1.86l1.86-1.86M235.302 164.951l-.967-.579.22 1.104c.049.248.1.523.149.822l.135.809.657-.488c.17-.127.363-.234.573-.317l1.04-.415-1.003-.498c-.293-.145-.56-.291-.804-.438zM366.971 191.439l-.1-.037c-3.78-.969-9.051-1.461-15.662-1.461-3.822 0-9.623.771-17.139 2.285l-2.825.006c-.31.053-.593.104-.847.154-16.049 2.977-30.787 4.77-43.784 5.323h-16.056l1.073.886c1.408 1.161 2.996 2.456 4.748 3.873 1.427 1.26 2.772 2.553 4.001 3.846.488 1.59 1.034 3.381 1.639 5.367.584 1.984 1.168 3.965 1.754 5.942l.037.127.097.092c.304.291.612.575.925.849.578.519 1.066 1.082 1.46 1.68l.033.734c1.514-.049 2.974-.103 4.383-.153 13.905-.554 22.806-1.433 26.467-2.618.728-.259 1.71-.662 3.005-1.232l.152-.066.081-.145c1.045-1.843 2.41-3.765 4.028-5.679l.334-.337c1.188-1.387 2.469-2.591 3.818-3.592 1.033-.838 2.156-1.561 3.35-2.156 2.959-1.578 6.238-2.379 9.744-2.379l6.265-.01c3.93-.756 8.702-1.342 14.187-1.743 5.479-.414 9.065-.974 10.961-1.709l.243-.095.063-.254c.06-.242.09-.514.09-.804-.002-2.307-2.137-4.496-6.525-6.694zM406.729 58.133l-.11-.219-.24-.047c-1.854-.361-4.244-.543-7.103-.543-.262 0-.805 0-5.92 2.634-3.725 1.689-6.986 2.546-9.696 2.546-1.981 0-4.104-.025-6.312-.076l-.056-.001-.056.011c-11 2.22-23.002 3.96-35.627 5.169H318.82c-2.062-.509-6.079-1.224-12.021-2.132h-9.83l1.834 8.87c-.113.013-.224.031-.328.052l.113.99c6.309-.206 13.816-.41 22.365-.612 2.027-.254 4.068-.458 6.074-.608 8.15-.706 14.709-.809 19.479-.306l.077.008.076-.016c1.936-.397 4.156-.598 6.604-.598 4.896 0 9.366.153 13.325.457 9.915.1 17.16 1.485 21.535 4.12 1.349.799 3.106 1.946 5.272 3.438 1.365.735 2.983 1.241 4.813 1.503l.231.033.176-.158c1.049-.95 2.342-1.99 3.805-3.065.271-.162.516-.324.73-.488l.926-.702-1.145-.19c-1.472-.244-2.632-.563-3.463-.955-1.695-.734-2.519-2.104-2.519-4.189 0-1.97.965-3.286 2.938-4.02 1.41-.487 3.406-.734 5.93-.734h.311l.139-.277c.146-.293.293-.562.453-.832.744-1.436 1.122-2.692 1.122-3.734 0-1.467-.213-2.876-.642-4.212-.153-.427-.311-.798-.471-1.117zM476.555 149.359c-.103-2.217-.622-4.922-1.543-8.041-.306-1.022-.618-1.935-.919-2.68-.154-.471-.344-.928-.552-1.346-.529-1.163-1.098-2.078-1.727-2.759-.442-.388-.971-.722-1.568-.994l-.11-.051-.122.007c-1.018.052-1.982.104-2.896.152l-.141.027c-1.528.542-3.283.918-5.216 1.117l-.102.021c-1.243.397-2.555.726-3.898.975l-.216.039-.117.188c-.261.416-.523.892-.774 1.396-1.833 3.31-2.045 4.288-2.045 4.735 0 1.832.728 3.703 2.154 5.554 1.818 2.46 4.234 3.707 7.184 3.707 5.312 0 9.442-.522 12.28-1.554l.347-.125-.019-.368zM457.852 122.537h.382l.136-.019c.368-.104.735-.235 1.126-.402l.156-.105c.127-.126.254-.234.382-.318l.561-.372-.518-.43c-9.797-8.139-17.899-19.633-24.077-34.149-2.685-6.941-4.531-11.634-5.486-13.945-.306-.765-.586-1.453-.842-2.064l-.502-1.199-.431 1.227c-.642 1.827-1.697 3.813-3.135 5.894-1.37 1.928-2.716 3.806-4.035 5.632l-.178.245.136.271c7.217 14.482 12.804 25.733 16.604 33.438l.17.344.376-.075c.225-.044.441-.066.664-.066 2.141 0 3.954 1.008 5.552 3.088 1.503 1.879 4.104 2.993 7.735 3.309l.061.005.059-.009c1.362-.207 2.784-.312 4.229-.312.284 0 .572.004.875.012zM431.428 131.553l.61 1.221c.258.516.514 1.004.771 1.467l.232.418.428-.215c.638-.317 1.381-.479 2.213-.479l.07-.995c-1.017-.146-2.051-.44-3.071-.879l-1.253-.538z"/>
  </g>
  <g fill="#CFC4AD">
    <path d="M333.841 145.761h-22.079c-14.492-.303-25.982-.969-34.15-1.978l-.362-.045-.153.33c-.953 2.062-1.947 4.022-2.953 5.834l-.332.599.67.135c3.265.653 6.26 1.517 8.903 2.565l.106.042.113-.009c1.426-.101 2.981-.178 4.621-.229 2.156-.05 10.719.309 25.402 1.064 3.837.218 7.408.326 10.611.326 2.809 0 5.41-.084 7.804-.26 2.608-.563 5.463-1.548 8.481-2.931 2.666-1.229 4.902-2.53 6.646-3.865l1.223-.937-1.539.039c-4.022.105-8.361-.123-13.012-.68zM316.854 217.389c-3.562 1.151-12.371 2.016-26.184 2.563-1.096.041-2.225.082-3.384.121-.466-.767-1.065-1.479-1.79-2.13-.271-.237-.539-.481-.803-.73-.572-1.936-1.144-3.872-1.715-5.816-.621-2.039-1.179-3.869-1.677-5.485l-.034-.112-.08-.085c-1.271-1.343-2.666-2.687-4.162-4.007-1.767-1.43-3.351-2.723-4.756-3.881l-.14-.114h-9.103l1.755.94c4.177 2.24 7.27 4.109 9.188 5.556.361.274.682.534.965.78.349.301.684.609 1.016.941.338.313.658.633.966.963l.511.524c2.205 2.506 3.801 5.36 4.746 8.495.457 1.521.771 3.143.934 4.811.074.896.11 1.83.11 2.776 0 1.538-.126 3.142-.375 4.763l-.087.564.571.012c2.965.061 5.884.148 8.674.266l.029.002 1.024-.08c1.024-.088 2.094-.188 3.155-.303.124 0 .354 0 11.414-2.152 4.722-1.385 8.372-3.188 10.853-5.36l.119-.103.037-.151c.057-.229.1-.323.124-.375l1.513-3.406.783-1.55-1.277.563c-1.253.549-2.241.956-2.92 1.2zM290.913 58.738c0 .108.024.219.082.352l.222 3.914v2.961c-.051 2.646-.179 5.688-.38 9.045l-.032.541 7.865-.174c.221-.043.471-.066.741-.066h.614l-1.828-8.836 8.525-.005c5.895.906 9.902 1.62 11.914 2.123l.061.015 22.961-.002c12.705-1.214 24.742-2.959 35.775-5.186l4.506-.909-4.596-.081c-5.68-.1-12.363-.331-19.863-.686-11.732-.607-23.465-1.453-34.905-2.515-6.813-.101-14.31-.484-22.265-1.139-.426-.054-.798-.092-1.164-.078-2.359-.196-4.543-.398-6.487-.602-.185-.057-.37-.083-.464-.076-.283-.057-.599-.086-.936-.086h-.588l.096.581c.049.301.1.629.146.909zM248.908 167.852h-2.132c-3.811 0-7.4-.828-10.669-2.461l-.201-.102-.208.084c-.291.115-.559.266-.799.443l-.249.186.056.307c.2 1.102.378 2.295.528 3.549l.065.192c.467.798.727 1.47.769 1.957v.615l.461.036c6.535.514 10.634.764 12.531.764.917 0 3.418-.125 7.672-.384.895-.101 1.884-.177 2.938-.228l.431-.021.043-.429c.254-2.416.586-4.733.985-6.891l.192-1.039-.924.508c-3.514 1.934-7.379 2.914-11.489 2.914zM264.188 96.628c.035-.086.058-.166.067-.24.206-.684.361-1.597.458-2.685.133-.833.225-1.774.271-2.796l.18-3.778-1.155 3.601c-.87 2.716-2.001 5.434-3.358 8.079-2.461 4.872-6.748 11.172-12.742 18.727-4.862 6.081-8.523 10.962-10.88 14.51l-.142.214.091.239c1.802 4.748 4.41 9.056 7.751 12.801.917 1.021 1.808 1.987 2.684 2.915l.223.223h.498l.148-.155c.859-.908 1.761-1.914 2.671-2.978.563-.613 1.126-1.254 1.702-1.937 2.66-3.429 4.787-7.291 6.322-11.484l.397-1.089-1.065.458c-.556.239-1.154.569-1.824 1.004-2.117-1.402-3.19-2.891-3.19-4.43 0-3.339 1.101-6.733 3.242-10.047 2.354-2.952 4.368-5.517 5.985-7.625l.086-.113.016-.143c.081-.846.169-1.734.266-2.664.402-3.973.838-7.449 1.299-10.409v-.198h-.001zM438.617 116.518l.738-.056-.328-.664c-3.778-7.659-9.319-18.818-16.474-33.171 1.267-1.75 2.553-3.549 3.867-5.399 1.492-2.161 2.589-4.226 3.259-6.137l.067-.193-.086-.185c-1.236-2.64-2.3-3.869-3.347-3.869-.335 0-.672.028-1 .085l-.414.071.002 1.364c-.146 1.563-.517 3.022-1.102 4.335-1.608 3.564-4.616 5.511-9.188 5.954l-.551.053.107.542c.297 1.479.447 2.882.447 4.169 0 2.71-1.037 5.318-3.071 7.742-.394.441-.813.862-1.254 1.253l-.372.33.328.374c2.906 3.309 5.936 7.865 9.002 13.546 1.868 3.383 4.656 9.012 8.287 16.728 1.773 3.8 3.288 6.956 4.501 9.381l.082.164.168.072c1.102.473 2.221.791 3.396.954h.961l.147-.231c.698-1.099 1.36-2.092 1.966-2.952l.295-.418-.425-.285c-3.391-2.277-5.11-5.084-5.11-8.345 0-.816.31-1.727.919-2.711.937-1.54 2.304-2.359 4.183-2.501zM352.885 122.147h-36.511c-6.578-1.415-13.679-2.491-21.119-3.199-3.806-.252-6.979-.482-9.515-.685l-.23-.018-.419.419-.032.142c-.656 2.932-1.371 5.794-2.125 8.506l-.158.57.589.061c2.426.254 5.032.586 7.752.989 6.141.862 12.175 1.504 17.935 1.908l.02.001 27.631-.155c7.004-.558 14.268-1.947 21.592-4.134 1.842-.58 3.416-1.104 4.816-1.607l.195-.07.088-.188c.412-.875.752-1.712 1.014-2.492l.25-.748-.783.092c-3.427.404-7.123.608-10.99.608zM475.885 148.914c-2.728.99-6.744 1.493-11.938 1.493-2.65 0-4.736-1.08-6.386-3.31-1.296-1.681-1.952-3.347-1.952-4.951 0-.293.249-1.234 1.93-4.271.246-.494.494-.94.738-1.329l.479-.766h-.904c-.188 0-.376.027-.56.085-2.027.192-4.192.192-6.602-.009-.277 0-.558-.022-.832-.069l-.273-.046-.184.208c-.441.498-1.063 1.556-1.899 3.231l-.092.184.063.195c.034.104.052.203.052.301 0 .566-.268 1.738-1.539 4.104-1.117 2.074-1.661 3.548-1.661 4.503 0 .104.024.745.078 1.904 0 .301.028.564.09.809l.03.119.082.092c3.436 3.852 9.584 5.805 18.272 5.805 5.414 0 9.408-.903 11.871-2.686l.076-.068c1.147-1.258 1.729-2.678 1.729-4.221v-1.553l-.668.246zM376.652 90.941l-.133-.024c-1.213-.052-2.527-.078-3.906-.078-3.295 0-18.662-.691-45.703-2.056-.934 0-5.756.128-14.34.381-1.369.051-2.842.101-4.426.152-.945.051-1.859.077-2.717.077-.434 0-.818.028-1.074.076-2.871.05-5.541.126-7.924.228-2.388.052-4.521.103-6.402.153l-.438.012-.046.435c-.452 4.267-.989 8.463-1.597 12.47l-.001.6h.581l.169.048c1.016.102 2.085.203 3.249.308.16 0 .326.021.539.07l3.207.458c.814.102 1.68.205 2.587.304 2.698.357 5.614.792 8.669 1.293l.846.138-1.104-3.005c.017-1.661.486-3.123 1.397-4.352.271-.074.494-.131.618-.164l46.713-.163c1.252-.249 3.901-.58 7.871-.982 3.732-.353 6.178-.532 7.266-.532 3.09 0 6.467.051 10.041.153l.193.005.146-.126c1.119-.959 1.906-1.941 2.342-2.918l.21-.474-1.247-.5c-1.836-.712-3.717-1.382-5.586-1.987z"/>
  </g>
  <path fill="#FFF" d="M250.432 221.164c-1.114-2.506-3.656-5.189-7.584-7.993-7.473-4.595-13.414-8.358-17.657-11.187-2.025-1.35-3.962-2.75-5.757-4.168-9.032-7.096-15.037-14.987-17.85-23.453-.331-.994-.622-2.006-.865-3.008-.234-.973-.437-1.961-.601-2.929-.299-1.97-.451-3.995-.451-6.019 0-3.137.317-6.372.943-9.617.446-2.301 1.056-4.665 1.813-7.023 1.05-3.227 2.413-6.547 4.05-9.875 1.194-2.447 2.686-5.138 4.433-7.997.413-.673.842-1.355 1.291-2.049 2.573-4.054 5.705-8.541 9.312-13.34 4.693-6.351 8.385-11.388 10.974-14.976 2.017-2.828 3.379-4.795 4.053-5.85.302-.48.595-.952.879-1.415l.471-.768-38.797.274-.188.038c-3.06 1.267-6.495 2.531-10.21 3.757l-.473.156.723 2.218c.927 3.015 1.731 6.039 2.388 8.984.573 2.668 1.045 5.347 1.403 7.962l.02.141.09.109c1.743 2.116 2.627 4.29 2.627 6.461l.001.314c-.055 1.004-.246 4.216-.571 9.629-.063.899-.126 1.865-.191 2.93 0 4.771-1.22 9.26-3.624 13.342-.541.914-1.158 1.832-1.836 2.734-1.139 1.52-2.492 3.021-4.021 4.473-4.296 4.106-10.212 8.012-17.583 11.604l-.396.191.141.418c.113.334.228.666.345.996.656 1.869 1.365 3.699 2.107 5.439.332.768.678 1.523 1.034 2.26 1.519 3.271 3.234 6.381 5.099 9.241.473.728.975 1.463 1.498 2.198h-.038l.573.793c.321.443.653.892.996 1.341 2.291 3.042 4.944 6.12 7.885 9.147 1.358 1.406 2.787 2.811 4.24 4.164.23.223.461.439.692.653.111.104.231.21.349.31.239.218.5.438.774.66 1.981 1.674 4.947 3.765 8.815 6.209 1.163.74 2.41 1.516 3.741 2.328 4.265 2.58 9.461 5.558 15.436 8.844.623.355 1.26.713 1.909 1.067.056.031.108.063.199.119.277.147.553.297.829.451l.745.382v-.005c4.295 2.388 7.943 4.435 10.946 6.136l.118.067.135-.002c4.012-.052 7.846-.103 11.503-.152l.164-.002.13-.099c.193-.146.365-.268.493-.354 2.034-1.243 2.981-2.298 2.981-3.321-.003-.952-.222-1.941-.655-2.938z"/>
  <g fill="#EDEAE5">
    <path d="M224.357 220.549l-.743-.375v.008c-.021-.011-.043-.021-.064-.033-.071-.047-.144-.09-.225-.135-.647-.354-1.278-.707-1.903-1.064-5.97-3.284-11.153-6.254-15.405-8.825-1.324-.81-2.565-1.581-3.726-2.317-3.83-2.423-6.759-4.483-8.713-6.138-.267-.215-.514-.425-.753-.642-.117-.098-.224-.192-.326-.289-.228-.209-.454-.424-.685-.646-1.447-1.348-2.863-2.738-4.21-4.134-2.913-2.999-5.539-6.045-7.806-9.056-.135-.178-.269-.354-.4-.53h.037l-.584-.796c-.721-.98-1.407-1.975-2.041-2.948-1.84-2.821-3.532-5.89-5.034-9.124-.354-.73-.694-1.475-1.019-2.227-.733-1.717-1.434-3.526-2.083-5.377-.067-.188-.133-.379-.199-.569 7.28-3.584 13.146-7.479 17.438-11.584 1.569-1.486 2.959-3.032 4.131-4.597.7-.93 1.338-1.881 1.898-2.825 2.497-4.239 3.763-8.9 3.762-13.82.064-1.03.127-1.994.19-2.895.326-5.421.516-8.634.572-9.667v-.342c0-2.41-.961-4.798-2.856-7.097l-1.119-1.358.237 1.743c.335 2.457.577 4.917.719 7.307.076 1.582.114 3.176.114 4.737 0 1.41-.311 2.993-.921 4.701-.481 1.304-1.149 2.714-1.987 4.198-2.292 4.138-5.608 7.958-9.854 11.354-.286.229-.575.455-.867.678-3.912 2.996-8.37 5.511-13.251 7.475-4.082 1.652-8.562 2.964-13.315 3.896-6.262 1.232-13.201 1.857-20.623 1.857h-.906c-13.598-.227-26.64-5.518-38.78-15.74-2.079-1.6-4.155-3.369-6.174-5.266-.52-.48-1.037-.973-1.55-1.477l-.601-.59-.231.811c-.205.719-.41 1.512-.612 2.371-1.036 3.938-1.54 6.497-1.54 7.82v.406c.185 3.596 2.638 11.272 7.5 23.469l.305.762c1.425 3.58 3.066 7.557 4.878 11.816.705 1.676 1.442 3.401 2.21 5.182l1.562 3.656c.648 1.508 1.296 3.006 1.943 4.498l.066.109c4.094 5.205 8.494 11.32 13.08 18.176 4.28 6.336 6.807 10.239 7.512 11.604l.079.153.157.07c4.253 1.952 9.542 3.604 15.721 4.91 1.966.414 9.011 1.189 21.537 2.37l.284.026.167-.23c1.962-2.698 6.612-4.501 13.823-5.357 6.318-.748 14.017-.762 22.86-.037l2.086.192c1.207-.051 2.455-.075 3.721-.075l1.943-.039c7.649-.154 14.835-.295 21.556-.418l.479-.047c3.454-.058 6.786-.119 9.995-.183l1.821-.036-1.584-.898c-3.173-1.8-7.071-3.985-11.693-6.552zM243.141 70.895c-.566-1.861-1.872-4.229-3.88-7.04l-.149-.209h-3.685c-1.482 0-2.908-.038-4.241-.114-1.16-.057-2.277-.146-3.369-.267l-27.503-.375c-7.722 1.154-15.936.721-24.415-1.286l-1.128-.267.58 1.004c.844 1.459 1.647 2.95 2.389 4.436 1.214 2.337 2.322 4.732 3.294 7.118l.303.756c1.051 2.679 1.968 5.418 2.72 8.119.026.111.053.217.104.39l.228.53c.075.177.155.351.228.494.816 1.946 1.596 3.9 2.31 5.791.086.257.176.516.27.772.413 1.155.805 2.305 1.176 3.452l.155.479.478-.158c3.702-1.221 7.13-2.481 10.189-3.745l38.08-.269.144-.241c1.217-2.031 2.264-4.008 3.111-5.875 1.653-3.616 2.616-6.953 2.861-9.909.053-.531.079-1.06.079-1.573-.003-.597-.112-1.273-.329-2.013z"/>
  </g>
  <path fill="#7B6855" d="M166.57 107.169c-.011-.367-.023-.725-.039-1.074l-.029-.146c-.766-2.143-1.664-4.58-2.67-7.249-.313-.806-.63-1.607-.955-2.405-.91-2.269-1.874-4.543-2.865-6.762-.464-1.023-.935-2.04-1.412-3.053l-.114-.241-.263-.04c-3.397-.52-6.345-1.278-8.756-2.252-5.265-2.198-9.277-3.313-11.924-3.313-5.064 0-8.881 2.686-11.347 7.984-.385.833-.724 1.668-1.008 2.482-.878 2.524-1.323 5.066-1.323 7.554 0 .872.039 1.745.117 2.602.897 8.71 6.44 16.041 16.471 21.785 2.415 1.403 5.139 2.733 8.097 3.954 1.965.811 4.316 1.722 6.987 2.709l.17.063.171-.062c.692-.248 1.381-.521 2.094-.833 1.771-.991 3.277-2.207 4.494-3.635.563-.729 1.077-1.52 1.526-2.347.261-.467.512-.967.745-1.49 1.342-3.046 2.022-6.907 2.021-11.513-.07-.96-.133-1.873-.188-2.718z"/>
  <path fill="#56483A" d="M127.104 89.038c2.319-4.982 5.733-7.404 10.439-7.404 2.514 0 6.396 1.089 11.543 3.238 2.489 1.006 5.512 1.785 8.985 2.316l.926.142-.398-.848c-2.175-4.639-4.553-9.188-7.064-13.517-.787-1.379-1.609-2.769-2.445-4.127-1.052-1.717-2.119-3.388-3.17-4.965-.445-.677-.892-1.338-1.362-2.023l-.129-.194c-4.007-5.827-8.177-10.975-12.394-15.3C120.9 34.89 108.851 28.535 96.287 27.475c-2.904-.622-6.112-.492-9.516.384-5.719 1.392-10.576 4.499-14.439 9.237-2.21 2.735-3.88 5.84-4.963 9.227-1.026 3.222-1.547 6.784-1.547 10.587 0 .492.271 1.945 2.609 8.821l.496 1.754c.591 2.02 1.238 4.204 1.944 6.556l.195.651.54-.364c1.973 5.196 4.145 10.199 6.457 14.874 1.274 2.549 2.573 4.979 3.861 7.226 4.594 7.944 9.36 14.012 14.166 18.033 1.434 1.204 2.897 2.245 4.349 3.097 1.768 1.865 3.586 3.579 5.476 5.144l.612.343c1.474.823 2.995 1.61 4.523 2.339 1.333.632 2.674 1.226 4.007 1.77.699.25 1.481.503 2.326.752.217.132.414.264.59.396l.136.072c7.485 2.597 15.408 3.914 23.549 3.914 3.163 0 6.063-.233 8.681-.708 1.402-.439 2.818-.916 4.2-1.412.256-.086.514-.177.761-.268l1.914-.643-1.328-.491c-2.659-.983-4.999-1.891-6.952-2.697-2.917-1.203-5.6-2.513-7.979-3.896-9.738-5.577-15.113-12.649-15.975-21.016-.075-.821-.113-1.664-.113-2.505 0-2.376.426-4.807 1.267-7.225.272-.781.599-1.586.97-2.389z"/>
  <path fill="#171717" d="M487.214 130.673c-2.447-3.693-5.518-6.604-9.13-8.655.502-2.013.757-4.233.757-6.607 0-4.509-1.135-8.325-3.374-11.345-1.259-1.679-3.832-3.979-7.863-7.028-3.858-3.007-6.827-5.847-8.818-8.436-3.091-4.138-5.368-9.379-6.77-15.579-1.688-7.42-4.935-13.626-9.647-18.442-4.058-4.21-8.798-7.075-14.099-8.516-2.451-.638-4.773-.934-6.9-.866-2.104-4.221-6.567-6.36-13.27-6.36-.597 0-1.211.017-1.832.049-1.843.051-3.894.284-6.093.693-4.522.813-9.728 2.282-15.478 4.367-6.075 2.341-7.305 2.753-7.438 2.786-7.563 0-22.616-1.076-44.741-3.198-21.5-2.104-32.937-3.127-34.963-3.127l-39.432.008c-.57-.086-1.133-.169-1.688-.247l-.189-.167c-4.395-3.877-10.339-5.736-17.635-5.535-3.371.086-6.716.56-9.943 1.408-7.16-.315-11.283-.506-12.258-.567-8-.458-22.085-1.943-41.859-4.416-8.966-1.152-15.806-2.031-20.523-2.641-1.648-1.987-3.46-3.971-5.39-5.9C133.881 7.599 116.489.118 96.943.118 69.226.118 50.9 10.345 42.475 30.513c-2.701 6.42-4.302 13.806-4.76 21.949-.255 4.167-.229 8.317.075 12.295 0 12.564 2.043 22.893 6.074 30.701 2.409 4.618 5.727 9.023 9.863 13.099-2.792 10.451-4.335 18.001-4.587 22.448-.153 3.353-.051 9.902.304 19.447 0 .108 0 .212 3.294 13.389.667 2.357 1.373 4.72 2.097 7.019l.229.76.128.316c.335 1.17.717 2.352 1.134 3.508 1.221 3.662 2.505 7.258 3.818 10.689.863 2.182 1.761 4.364 2.671 6.488.591 1.378 1.19 2.729 1.799 4.054l1.907 4.005c1.65 3.35 3.361 6.488 5.143 9.408 1.285 1.424 2.973 3.379 5.027 5.826 2.243 2.499 4.546 4.672 6.847 6.46 5.012 3.851 11.434 8.165 19.074 12.819 1.022.668 4.034 1.881 9.21 3.711l.089.031.095-.004c3.95-.142 6.854-1.705 8.64-4.651 2.586 1.192 5.761 2.339 9.447 3.411 8.987 2.593 18.79 4.209 29.142 4.807 2.381 2.826 6.966 5.51 13.636 7.98.921.334 1.863.668 2.922 1.018 4.552.609 9.443 1.757 14.509 3.398 1.466.574 6.529 1.679 15.457 3.371 1.194.276 2.305.556 3.333.834l.915.019c3.586.782 7.258 1.435 10.915 1.937 1.641.231 3.352.438 5.06.609.104.016.214.029.328.04 5.263.56 10.688.842 16.125.842 2.416 0 4.959-.052 7.522-.153 2.602.103 5.146.153 7.561.153 3.582 0 7.229-.103 10.748-.31.379.053.786.08 1.211.08 3.607 0 6.711-2.281 9.229-6.781 1.103-.16 2.237-.339 3.34-.53h2.972c1.348 0 2.791-.038 4.295-.116 6.013-.355 13.162-1.422 21.252-3.17 2.103-.455 4.055-.904 5.805-1.338 1.148-.287 2.209-.566 3.177-.838l.086.203.494-.299c1.824-1.104 3.417-2.191 4.739-3.237 3.408-2.739 5.896-6.272 7.392-10.498 1.748-4.698 3.539-8.159 5.329-10.297 3.266-4.058 8.066-6.843 14.271-8.282 6.144-1.408 14.166-2.507 23.898-3.271 6.168-1.162 10.439-4.099 12.696-8.728l.048-.17c.064-.648.118-1.439.156-2.352.05-1.186.074-2.614.074-4.25v-.891c-.004-.127-.004-.258 0-.422l-.076-1.514c-.012-.124-.025-.245-.04-.35-.011-.096-.025-.191-.038-.228-.016-.146-.026-.292-.039-.468-.016-.133-.028-.262-.039-.428-.021-.151-.049-.303-.077-.426-.063-.418-.144-.826-.231-1.203-.621-3.088-1.779-5.734-3.441-7.857-.24-.318-.491-.622-.699-.839-.975-1.574-2.88-3.354-5.656-5.284-4.127-2.956-7.994-4.674-11.492-5.105-1.988-1.01-4.418-1.653-7.144-1.902-1.381-.364-3-.549-4.813-.549l-.428.005c-.49-.066-1.125-.13-1.926-.189 1.329-1.216 2.629-2.585 3.876-4.085.741-.514 1.484-1.057 2.212-1.615 1.276-.992 2.481-2.027 3.581-3.08 2.073-1.979 3.853-4.082 5.286-6.25 2.006-2.957 2.98-5.317 2.98-7.215 0-1.314-.432-3.173-1.317-5.67 3.979-1.772 7.594-4.121 10.747-6.979 3.895-3.435 6.936-7.513 9.037-12.125 1.646-3.605 2.48-6.828 2.48-9.578 0-.872-.062-1.653-.183-2.327 1.293-1.142 2.442-2.298 3.43-3.446.96 1.537 2.123 3.242 3.466 5.078 3.483 4.795 6.063 8.576 7.67 11.238.85 1.397 1.453 2.505 1.795 3.287.061.153.221.977.42 5.319.205 3.479.675 6.416 1.395 8.729 2.098 6.603 6.742 10.44 13.811 11.415.615 4.695 4.899 9.757 12.743 15.052 8.678 5.819 17.356 8.771 25.797 8.771 11.088 0 19.604-4.043 25.313-12.014 3.753-5.195 5.656-10.035 5.656-14.387-.005-7.831-1.878-14.613-5.572-20.157zM277.85 144.818c8.178.99 19.577 1.643 33.901 1.941l22.03-.004c4.023.487 7.912.703 11.488.712-1.455.97-3.187 1.919-5.162 2.83-2.953 1.353-5.737 2.315-8.207 2.853-4.93.352-11.06.326-18.221-.076-13.798-.713-22.203-1.072-24.984-1.072-.189 0-.354.002-.498.005-1.614.052-3.145.126-4.553.224-2.492-.98-5.28-1.799-8.303-2.438.854-1.564 1.695-3.232 2.509-4.975zM78.958 88.756c-2.312-4.674-4.484-9.682-6.461-14.901-.05-.119-.099-.24-.146-.365l-.123-.322h-.345l-.223.021c-.64-2.136-1.23-4.129-1.771-5.979l-.502-1.777c-2.231-6.562-2.564-8.157-2.564-8.523 0-3.7.504-7.159 1.5-10.283 1.045-3.269 2.656-6.264 4.787-8.901 3.72-4.563 8.396-7.556 13.905-8.896 3.262-.84 6.221-.98 9.126-.367 12.38 1.049 24.216 7.303 35.181 18.589 4.177 4.285 8.311 9.389 12.279 15.158l.16.24c.442.644.886 1.301 1.329 1.974 1.046 1.569 2.106 3.229 3.151 4.936.831 1.351 1.648 2.73 2.43 4.103 2.499 4.307 4.863 8.83 7.026 13.444.475 1.01.944 2.022 1.405 3.038.985 2.204 1.943 4.466 2.85 6.725.323.795.639 1.591.948 2.389.992 2.628 1.879 5.036 2.638 7.157.013.32.025.649.035 1.001.056.866.12 1.781.189 2.71 0 4.429-.652 8.154-1.937 11.07-.22.493-.457.966-.707 1.413-.427.786-.912 1.532-1.426 2.2-1.124 1.318-2.539 2.459-4.161 3.37-.648.282-1.317.546-1.979.784l-.583.194c-.252.092-.501.18-.759.267-1.377.495-2.78.967-4.109 1.388-2.499.45-5.339.678-8.443.678-8.003 0-15.791-1.29-23.149-3.833-.199-.146-.42-.291-.664-.438l-.118-.052c-.85-.249-1.635-.502-2.312-.745-1.295-.53-2.62-1.115-3.936-1.739-1.508-.72-3.01-1.497-4.467-2.311l-.532-.289c-1.804-1.503-3.608-3.207-5.365-5.064l-.111-.088c-1.424-.83-2.861-1.851-4.273-3.035-4.716-3.947-9.407-9.925-13.941-17.766-1.278-2.231-2.567-4.644-3.832-7.175zm168.606 137.832c-.125.084-.267.184-.424.299-3.608.051-7.388.102-11.343.15-3.357.066-6.847.131-10.472.189l-.492.047c-6.581.123-13.604.26-21.067.41l-1.933.039c-1.27 0-2.532.024-3.687.077l-2.023-.19c-8.926-.731-16.683-.719-23.067.041-7.406.879-12.103 2.689-14.339 5.533-12.146-1.147-19.259-1.931-21.146-2.328-6.032-1.274-11.197-2.879-15.356-4.77-.823-1.529-3.277-5.314-7.489-11.549-4.584-6.854-8.986-12.971-13.084-18.186-.638-1.472-1.277-2.949-1.916-4.435l-1.562-3.657c-.768-1.777-1.503-3.502-2.208-5.176-1.81-4.256-3.448-8.225-4.871-11.799l-.304-.762c-4.753-11.924-7.253-19.713-7.429-23.123v-.381c0-1.221.507-3.767 1.51-7.58.127-.539.254-1.049.381-1.527.319.307.64.607.96.902 2.04 1.916 4.141 3.707 6.229 5.313 12.304 10.361 25.557 15.731 39.399 15.962h.914c7.486 0 14.49-.632 20.815-1.877 4.816-.945 9.357-2.273 13.497-3.949 4.965-1.998 9.502-4.558 13.486-7.607.297-.229.593-.457.884-.691 4.348-3.479 7.747-7.396 10.102-11.646.862-1.525 1.553-2.985 2.054-4.343.651-1.821.981-3.517.981-5.042 0-1.577-.039-3.187-.116-4.791-.144-2.421-.388-4.907-.726-7.389-.361-2.64-.838-5.343-1.418-8.04-.664-2.974-1.474-6.023-2.412-9.072l-.571-1.751c-.374-1.156-.769-2.316-1.187-3.484-.091-.25-.179-.5-.268-.767-.725-1.92-1.509-3.886-2.344-5.874-.077-.154-.148-.31-.215-.468l-.206-.466-.077-.309c-.767-2.755-1.695-5.526-2.785-8.303l-.281-.701c-.983-2.416-2.104-4.839-3.329-7.196-.581-1.163-1.201-2.333-1.85-3.491 5.079 1.124 10.082 1.693 14.888 1.693 2.968 0 5.927-.217 8.712-.64l27.373.377c1.063.121 2.201.211 3.379.269 1.348.077 2.793.115 4.294.115h3.17c1.86 2.629 3.067 4.829 3.586 6.535.189.644.285 1.225.285 1.725 0 .481-.025.977-.075 1.482-.236 2.849-1.169 6.074-2.774 9.585-.833 1.834-1.862 3.777-3.057 5.771-.282.459-.573.928-.871 1.402-.663 1.038-2.016 2.991-4.021 5.803-2.586 3.582-6.276 8.617-10.964 14.96-3.62 4.817-6.767 9.326-9.352 13.398-.451.697-.884 1.386-1.302 2.066-1.764 2.886-3.271 5.604-4.478 8.077-1.658 3.369-3.038 6.734-4.104 10.008-.77 2.4-1.39 4.803-1.842 7.143-.638 3.309-.961 6.606-.961 9.808 0 2.073.156 4.149.464 6.177.169.999.376 2.01.616 3.006.25 1.028.548 2.067.888 3.088 2.875 8.654 8.992 16.704 18.18 23.924 1.815 1.434 3.774 2.852 5.821 4.213 4.252 2.834 10.204 6.604 17.659 11.188 3.752 2.681 6.182 5.226 7.221 7.563.376.865.567 1.722.567 2.543.002.351-.323 1.138-2.517 2.479zm11.631-54.754c-.915.051-1.776.121-2.549.208-4.209.256-6.69.38-7.586.38-1.803 0-5.849-.244-12.027-.727-.1-.603-.369-1.279-.818-2.062-.142-1.168-.307-2.284-.492-3.319 3.392 1.684 7.11 2.537 11.053 2.537h2.132c3.927 0 7.642-.859 11.06-2.558-.304 1.764-.564 3.621-.773 5.541zm4.089-75.691l-.099.258.006.346c-.457 2.902-.896 6.396-1.299 10.385-.097.931-.186 1.822-.267 2.665-.749 7.096-1.224 11.397-1.407 12.78-.449 3.152-1.185 6.169-2.184 8.962-1.498 4.096-3.575 7.869-6.158 11.199-.554.654-1.107 1.285-1.674 1.9-.795.93-1.576 1.807-2.327 2.609-.781-.832-1.583-1.703-2.404-2.617-3.202-3.59-5.714-7.71-7.469-12.248 2.345-3.504 5.938-8.288 10.686-14.226 6.038-7.608 10.361-13.967 12.85-18.896.744-1.448 1.421-2.919 2.025-4.399-.077.502-.17.93-.279 1.282zm103.286 96.214c3.931 1.975 5.924 3.918 5.924 5.776 0 .11-.006.216-.018.315-1.855.646-5.355 1.166-10.412 1.547-5.521.404-10.334.997-14.207 1.751h-6.17c-3.672 0-7.109.84-10.203 2.489-1.245.623-2.43 1.387-3.502 2.256-1.395 1.031-2.729 2.287-3.949 3.712l-.324.326c-1.688 1.995-3.091 3.97-4.177 5.887l-1.677 3.733c-.053.104-.103.236-.149.404-2.369 2.03-5.853 3.73-10.315 5.043-8.84 1.719-10.972 2.104-11.229 2.127-1.106.113-2.171.215-3.187.303l-.932.074c-2.617-.107-5.35-.193-8.129-.254.202-1.479.305-2.939.305-4.351 0-.974-.039-1.937-.115-2.865-.168-1.739-.494-3.425-.972-5.01-1.062-3.521-2.905-6.701-5.483-9.452l-.864-.886v.051c-.046-.044-.093-.087-.138-.13-.336-.334-.688-.661-1.055-.977-.298-.258-.635-.533-1.017-.821-1.685-1.269-4.232-2.845-7.591-4.698h19.65c13.066-.559 27.852-2.354 43.949-5.343.251-.05.525-.099.742-.142l2.841-.011c7.55-1.51 13.283-2.274 17.041-2.274 6.501.004 11.669.481 15.363 1.42zm-3.997-68.283c-1.339.476-2.841.976-4.575 1.522-7.251 2.164-14.443 3.541-21.342 4.091l-27.536.155c-5.736-.403-11.747-1.042-17.862-1.9-2.513-.372-4.933-.685-7.204-.932.679-2.478 1.324-5.072 1.923-7.725 2.485.197 5.558.418 9.197.66 7.407.706 14.487 1.779 21.042 3.191l36.669.011c3.605 0 7.068-.176 10.303-.524-.179.467-.383.952-.615 1.451zm17.721-28.016c-2.528 2.082-7.084 4.126-13.538 6.077-6.646 2.013-14.535 3.545-23.395 4.549l-24.896.008c-3.969-.704-7.793-1.319-11.354-1.83-3.064-.502-5.991-.938-8.711-1.298-.912-.1-1.772-.203-2.574-.303l-3.15-.448c-.234-.057-.472-.087-.662-.087h-.021c-1.039-.095-2.034-.189-2.983-.284.561-3.742 1.059-7.64 1.484-11.603 1.77-.047 3.757-.094 5.969-.142 2.385-.101 5.046-.177 7.984-.234.273-.046.604-.069.98-.069.875 0 1.809-.026 2.76-.077 1.574-.051 3.049-.102 4.416-.152 8.533-.251 13.342-.38 14.295-.381 27.023 1.364 42.406 2.056 45.716 2.056 1.339 0 2.614.025 3.796.074 1.829.594 3.669 1.25 5.465 1.948l.253.101c-.403.692-1.021 1.396-1.834 2.095zm25.558-29.35c-.109.186-.222.385-.334.597-2.492.02-4.492.285-5.961.792-2.39.889-3.602 2.558-3.602 4.961 0 2.492 1.05 4.209 3.105 5.1.659.311 1.506.58 2.522.803-1.327.984-2.488 1.919-3.46 2.786-1.617-.253-3.045-.709-4.203-1.33-2.139-1.476-3.917-2.636-5.281-3.444-4.527-2.726-11.941-4.16-22.006-4.26-3.949-.304-8.447-.458-13.367-.458-2.481 0-4.746.203-6.729.603-4.831-.5-11.423-.394-19.589.312-2.016.15-4.073.356-6.068.608-8.51.198-16.021.403-22.318.608l-6.693.142c.184-3.157.301-6.029.35-8.554v-2.209l-.229-4.828-.08-.271c-.02-.13-.038-.256-.057-.38.078.01.158.022.246.037.1 0 .196.017.297.051l.108.023c1.964.207 4.171.412 6.603.611.334 0 .696.024 1.103.074 7.997.659 15.519 1.043 22.313 1.143 11.416 1.061 23.16 1.907 34.91 2.516 7.512.355 14.204.586 19.893.687 2.214.05 4.345.076 6.334.076 2.854 0 6.255-.887 10.132-2.646 4.376-2.253 5.296-2.523 5.483-2.534 2.67 0 4.91.161 6.666.479.11.237.219.498.321.774.39 1.214.587 2.521.587 3.884 0 .879-.34 1.981-.996 3.247zm33.489 48.735c-.285 0-.574.029-.8.078-2.192.166-3.861 1.168-4.957 2.977-.708 1.142-1.066 2.229-1.066 3.234 0 3.475 1.728 6.462 5.136 8.885-.49.709-1.014 1.496-1.558 2.346h-.412c-.807 0-1.551.131-2.219.391-.178-.33-.354-.672-.532-1.027-1.209-2.418-2.719-5.566-4.489-9.359-3.641-7.736-6.438-13.384-8.314-16.782-2.988-5.537-5.949-10.027-8.809-13.358.34-.32.666-.658.981-1.012 2.2-2.62 3.315-5.444 3.315-8.396 0-1.195-.123-2.481-.365-3.83 4.6-.58 7.781-2.756 9.463-6.479.63-1.416 1.027-2.98 1.187-4.698v-.549c.138-.012.275-.018.415-.018.211 0 1.01.237 2.433 3.274.254.606.532 1.29.838 2.054.954 2.31 2.798 6.996 5.486 13.945 6.146 14.441 14.179 25.924 23.884 34.14-.273.112-.535.204-.794.28h-.297c-1.779-.048-3.536.051-5.21.302-3.316-.298-5.665-1.285-6.977-2.924-1.769-2.306-3.902-3.474-6.339-3.474zm36.215 34.78c0 1.288-.47 2.438-1.435 3.51-2.293 1.636-6.075 2.465-11.243 2.465-8.317 0-14.184-1.809-17.438-5.372-.024-.136-.036-.29-.037-.474-.053-1.154-.077-1.781-.077-1.883 0-.533.268-1.664 1.542-4.029 1.116-2.073 1.658-3.571 1.658-4.576 0-.135-.016-.27-.043-.402.755-1.502 1.223-2.261 1.505-2.645.229.027.436.047.662.041 2.404.203 4.691.203 6.793 0l.112-.024c.101-.034.197-.051.389-.06 1.366-.252 2.702-.586 3.972-.988 1.963-.206 3.754-.59 5.328-1.141.854-.047 1.754-.095 2.698-.143.465.223.869.482 1.177.747.519.565 1.027 1.394 1.521 2.476.194.391.364.805.517 1.258.3.748.603 1.631.897 2.621.898 3.041 1.404 5.666 1.503 7.78v.839h-.001z"/>
</svg>