<svg xmlns="http://www.w3.org/2000/svg" width="500" height="262">
  <g fill="#7B6855">
    <path d="M166.476 105.314c-.769-2.15-1.667-4.587-2.671-7.249-1.614-4.164-3.375-8.275-5.232-12.22l-.113-.241-.263-.04c-3.397-.52-6.345-1.278-8.756-2.252-5.266-2.198-9.277-3.313-11.924-3.313-5.063 0-8.881 2.686-11.347 7.984-1.547 3.351-2.331 6.727-2.331 10.036 0 12.048 8.305 21.583 24.685 28.341 1.966.811 4.317 1.723 6.987 2.709l.17.063.171-.062c.692-.248 1.381-.521 2.094-.833 1.771-.991 3.277-2.207 4.493-3.635.882-1.14 1.646-2.43 2.271-3.836 1.342-3.046 2.022-6.907 2.021-11.513-.101-1.364-.177-2.63-.227-3.793l-.028-.146zM432.741 58.766c-3.805 1.078-10.448 2.716-19.744 4.869-9.976 2.329-17.958 4.434-23.723 6.255-7.198 2.211-13.982 8.59-20.164 18.959-5.506 9.227-8.298 17.027-8.298 23.185 0 8.572 2.563 14.558 7.629 17.795.383.233.874.507 1.479.818l.147.076.163-.027c3.927-.656 7.825-1.65 11.586-2.955l.137-.073c.175-.132.371-.263.587-.395.842-.248 1.625-.501 2.349-.76 3.1-1.27 6.168-2.766 9.193-4.496 1.813-1.51 3.631-3.223 5.403-5.093 7.695-4.512 15.223-14.052 22.376-28.358 2.309-4.666 4.481-9.666 6.462-14.869l.535.359.194-.65c.914-3.049 1.728-5.82 2.432-8.286.807-2.373 1.437-4.3 1.872-5.729l.267-.876-.882.251z"/>
  </g>
  <g fill="#EDEAE5">
    <path d="M223.298 219.38c-16.389-8.976-26.759-15.46-30.827-19.275-6.489-5.986-11.767-12.08-15.688-18.111-2.258-3.462-4.295-7.281-6.053-11.35-.814-1.909-1.581-3.908-2.282-5.947 9.928-4.888 17.184-10.33 21.57-16.18 3.756-4.991 5.661-10.603 5.66-16.647.506-8.189.763-12.53.763-12.903 0-2.41-.961-4.798-2.856-7.097l-1.119-1.358.238 1.744c.553 4.049.833 8.101.833 12.044 0 2.49-.978 5.482-2.909 8.899-2.292 4.138-5.607 7.957-9.853 11.354-7.324 5.859-16.555 9.913-27.435 12.05-6.262 1.232-13.201 1.857-20.623 1.857-13.929 0-27.276-5.291-39.686-15.741-2.611-2.009-5.21-4.276-7.724-6.741l-.601-.588-.23.809c-.205.719-.41 1.512-.612 2.371-1.036 3.938-1.54 6.497-1.54 7.821 0 3.405 2.454 11.215 7.5 23.875l.305.761c1.972 4.955 4.357 10.675 7.088 16.998 1.168 2.744 2.337 5.462 3.505 8.154l.065.11c4.091 5.201 8.491 11.315 13.08 18.176 4.28 6.335 6.807 10.239 7.512 11.604l.079.153.157.071c4.253 1.952 9.542 3.604 15.721 4.91 1.967.414 9.012 1.189 21.537 2.37l.284.026.167-.23c1.961-2.698 6.612-4.501 13.822-5.358 6.784-.804 15.095-.754 24.947.156 1.207-.051 2.456-.076 3.722-.076l35.792-.723-1.583-.897c-3.374-1.917-7.656-4.302-12.726-7.091zM377.254 157.515c-.633.121-1.264.235-1.87.337l-3.146.379c-1.686.151-3.388.228-5.059.228-19.654 0-35.417-4.361-46.848-12.962-.407-.311-.811-.626-1.209-.945-4.243-3.394-7.56-7.214-9.857-11.357-1.928-3.414-2.905-6.406-2.905-8.895 0-11.816 2.525-24.313 7.506-37.144.582-1.495 1.221-3.054 1.921-4.696.304-1.107.635-2.215.985-3.294 1.285-4.032 2.941-8.095 4.923-12.08.882-1.788 1.851-3.598 2.88-5.379l.58-1.003-1.128.267c-5.386 1.274-10.691 1.92-15.77 1.92-2.919 0-5.827-.213-8.727-.64l-27.473.384c-2.201.251-4.744.378-7.561.378h-29.099c-2.816 0-5.36-.127-7.61-.381l-27.503-.375c-7.72 1.153-15.935.721-24.415-1.286l-1.128-.267.58 1.003c2.198 3.803 4.11 7.69 5.683 11.554 1.185 2.936 2.204 5.93 3.023 8.876.026.111.053.217.104.39l.228.53c.075.176.155.351.228.494.927 2.209 1.795 4.418 2.58 6.563.413 1.155.805 2.305 1.177 3.452l.155.478.478-.158c3.702-1.221 7.129-2.481 10.189-3.746l48.65-.386c.631-.098 3.692-.327 9.093-.681 6.835-.391 8.399-.579 8.87-.686l21.575-.151 2.792-.61h.664c1.1.769 2.39 1.567 3.836 2.373 7.201 4.052 8.276 5.953 8.282 6.649-.023.133-.4 1.89-2.66 12.152-1.827 8.019-2.754 14.72-2.754 19.916 0 10.099 3.664 18.78 10.894 25.803 7.881 7.574 18.479 11.414 31.501 11.414 5.058 0 9.743-.271 13.853-.801 1.189.025 2.411.039 3.668.039 7.695 0 14.359-2.163 19.809-6.431l1.691-1.547-1.676.322zM347.718 218.847c-4.001-3.792-9.314-5.407-15.858-4.78-5.541.564-10.821 2.514-15.695 5.797-2.042 1.395-3.653 2.767-4.792 4.079-2.617.66-5.573 1.521-8.774 2.557-.732.209-1.417.446-2.035.705l-2.303.961 3.608-.002c2.751-.251 5.459-.43 8.054-.532 5.934-.301 11.259-.202 15.971.305.276 0 .557.023.856.073 6.597.779 11.069 2.356 13.294 4.687l.185.193.265-.047c1.874-.334 3.984-.68 6.273-1.025 2.086-.326 4.269-.656 6.545-.99l.539-.08-.125-.529c-1.125-4.775-3.146-8.598-6.008-11.372z"/>
  </g>
  <path fill="#FFF" d="M416.035 138.579c-.206-.871-.41-1.665-.616-2.384l-.231-.807-.599.587c-2.514 2.465-5.112 4.732-7.741 6.755-9.387 7.905-19.356 12.892-29.632 14.821l-.125.023-.472.379c-5.267 4.125-11.724 6.217-19.19 6.217-1.249 0-2.465-.014-3.721-.035-4.142.528-8.784.797-13.8.797-12.755 0-23.12-3.746-30.806-11.133-7.026-6.826-10.589-15.266-10.589-25.084 0-5.121.918-11.747 2.729-19.697 2.679-12.162 2.679-12.212 2.679-12.295 0-1.139-.911-3.165-8.788-7.598-1.475-.821-2.779-1.631-3.877-2.408l-.13-.092h-1.036l-2.798.61-21.581.151-.128.018c-.359.098-2.166.293-8.736.669-5.512.361-8.516.586-9.113.685l-48.674.382-.188.038c-3.06 1.267-6.495 2.531-10.21 3.757l-.473.156.154.474c2.063 6.329 3.529 12.618 4.36 18.69l.02.141.09.109c1.744 2.116 2.627 4.29 2.627 6.461 0 .242-.132 2.666-.762 12.872 0 5.854-1.837 11.262-5.46 16.078-4.349 5.799-11.618 11.208-21.605 16.076l-.396.192.141.417c.747 2.207 1.572 4.372 2.452 6.437 1.781 4.122 3.845 7.992 6.133 11.501 3.966 6.101 9.298 12.258 15.845 18.297 4.126 3.871 14.565 10.405 31.027 19.421 5.066 2.787 9.345 5.17 12.716 7.081l.119.068.138-.003c5.026-.102 9.747-.177 14.151-.229 13.888.204 30.98.537 50.803.991l.106.002.098-.041c.582-.242 1.23-.467 1.941-.671 3.26-1.054 6.247-1.922 8.881-2.581l.156-.039.104-.123c1.085-1.281 2.666-2.635 4.695-4.021 4.733-3.188 9.859-5.083 15.232-5.63 6.216-.591 11.289.925 15.068 4.508 2.719 2.635 4.646 6.294 5.726 10.876l.105.448.455-.068c3.119-.467 6.42-.948 9.899-1.446l.164-.054c.674-.357 1.572-.731 2.659-1.107 1.256-.402 4.116-1.168 8.514-2.28 1.297-.36 3.054-1.063 5.222-2.086l.135-.064.078-.128c1.236-2.028 3.269-5.122 6.045-9.198 4.58-6.847 8.98-12.962 13.078-18.175l.065-.109c1.168-2.692 2.339-5.41 3.506-8.152 2.719-6.292 5.104-12.012 7.087-16.995l.307-.766c5.047-12.662 7.501-20.472 7.501-23.875.003-1.323-.501-3.88-1.534-7.811z"/>
  <g fill="#56483A">
    <path d="M149.064 68.202c-1.479-2.416-2.996-4.756-4.508-6.952-14.617-21.359-30.888-32.938-48.297-34.409-2.905-.623-6.113-.492-9.516.384-5.719 1.392-10.576 4.499-14.439 9.237-4.319 5.348-6.51 12.014-6.51 19.814 0 .492.271 1.945 2.609 8.821.712 2.489 1.525 5.261 2.439 8.31l.196.652.533-.361c1.981 5.204 4.154 10.204 6.463 14.87 7.151 14.303 14.679 23.843 22.375 28.356 1.768 1.865 3.586 3.579 5.475 5.144 1.666.948 3.394 1.851 5.136 2.683 1.333.632 2.674 1.225 4.007 1.77.699.25 1.481.503 2.326.752.217.132.414.264.59.396l.136.072c7.485 2.597 15.408 3.914 23.549 3.914 3.163 0 6.063-.233 8.681-.708 1.649-.516 3.323-1.083 4.961-1.68l1.915-.642-1.33-.492c-2.658-.982-4.997-1.89-6.953-2.696-15.969-6.588-24.066-15.813-24.066-27.417 0-3.163.753-6.399 2.238-9.616 2.319-4.982 5.733-7.404 10.439-7.404 2.514 0 6.396 1.089 11.543 3.238 2.489 1.006 5.512 1.785 8.985 2.316l.926.142-.397-.848c-2.857-6.103-6.056-12.04-9.506-17.646zM433.792 51.337c-.335-2.622-.96-5.122-1.859-7.433-1.063-2.688-2.522-5.192-4.343-7.445-3.861-4.736-8.719-7.843-14.431-9.233-3.415-.879-6.708-.996-9.459-.395-19.274 1.631-37.063 15.55-52.867 41.369-5.679 9.228-10.639 19.276-14.744 29.87-1.023 2.713-1.921 5.151-2.669 7.244l-.029.146c-.05 1.164-.126 2.429-.228 3.831 0 4.57.681 8.431 2.023 11.478.623 1.402 1.387 2.693 2.285 3.854 1.202 1.41 2.708 2.626 4.521 3.638.826.362 1.712.7 2.62 1.001 1.643.599 3.315 1.166 5.034 1.699.621.111 1.263.215 1.93.309 1.485.188 3.088.318 4.799.385h1.89c4.045 0 8.07-.323 11.964-.958l1.497-.245-1.35-.694c-.577-.297-1.049-.558-1.405-.776-4.751-3.036-7.159-8.738-7.159-16.947 0-5.975 2.744-13.603 8.157-22.672 6.05-10.15 12.644-16.38 19.602-18.517 5.744-1.814 13.702-3.912 23.651-6.235 9.312-2.157 15.971-3.799 19.792-4.881l.264-.075.078-.262c.668-2.22.745-2.841.745-3.115v-.771c-.028-1.444-.131-2.846-.309-4.17z"/>
  </g>
  <path fill="#171717" d="M462.208 52.454c-.457-8.14-2.059-15.525-4.762-21.95C449.021 10.335 430.696.108 402.98.108c-19.547 0-36.939 7.481-51.694 22.237-1.927 1.926-3.739 3.911-5.392 5.9-4.717.609-11.558 1.489-20.521 2.641-19.775 2.473-33.859 3.958-41.864 4.416-1.556.1-11.214.535-28.685 1.293h-.442c-1.523-.05-2.993-.101-4.452-.151-1.422.05-2.895.101-4.401.151h-.436c-17.493-.758-27.151-1.193-28.71-1.293-8-.458-22.083-1.943-41.859-4.416-8.965-1.152-15.806-2.031-20.523-2.641-1.648-1.987-3.461-3.972-5.39-5.9C133.854 7.59 116.461.108 96.916.108c-27.717 0-46.043 10.227-54.468 30.395-2.701 6.42-4.302 13.806-4.76 21.949-.254 4.167-.229 8.317.075 12.295 0 12.563 2.043 22.892 6.075 30.701 2.408 4.617 5.726 9.023 9.863 13.099-2.792 10.451-4.335 18.001-4.587 22.448-.153 3.353-.051 9.902.304 19.447 0 .109 0 .212 3.294 13.389.667 2.361 1.374 4.725 2.098 7.018l.228.76.128.316c.333 1.163.715 2.345 1.134 3.509 1.222 3.663 2.506 7.258 3.818 10.689.862 2.181 1.761 4.363 2.671 6.488 2.808 6.55 5.766 12.401 8.848 17.467 1.285 1.423 2.973 3.379 5.027 5.826 2.243 2.499 4.546 4.672 6.847 6.46 5.012 3.85 11.434 8.165 19.074 12.82 1.022.667 4.034 1.88 9.21 3.71l.089.031.095-.003c3.95-.142 6.855-1.706 8.64-4.652 2.586 1.192 5.761 2.339 9.447 3.412 8.987 2.592 18.79 4.208 29.142 4.806 2.381 2.826 6.965 5.51 13.635 7.981.921.334 1.863.667 2.922 1.017 4.551.609 9.442 1.756 14.509 3.398 1.467.574 6.529 1.679 15.457 3.372 1.194.276 2.305.555 3.333.834l.916.018c10.431 2.274 21.341 3.428 32.427 3.428 2.417 0 4.96-.052 7.522-.153 2.602.102 5.146.153 7.562.153 9.658 0 19.21-.874 28.433-2.608 2.863-.81 5.374-1.422 7.468-1.82 3.493-.709 11.269-2.685 23.079-5.864 2.721-.547 5.104-.864 7.081-.942l.256-.055c1.075-.271 2.087-.512 3.048-.723l.203-.055c8.563-3.194 13.503-6.59 15.088-10.373.434-.118.907-.256 1.421-.412 11.112-.193 21.271-1.299 30.194-3.287 2.164-.478 4.146-.994 5.895-1.537 1.01 1.428 2.333 2.498 3.966 3.196.137.047.293.114.539.231.944.314 2.033.528 3.28.636h1.067c1.39 0 2.803-.131 4.205-.39.902-.173 1.808-.409 2.692-.703l.1-.046c4.644-2.78 8.081-5.021 10.216-6.659 6.697-5.123 11.593-9.479 14.551-12.946 5.378-6.343 8.805-10.803 10.192-13.268.401-.76 1.084-1.586 2.028-2.456l.107-.143c1.514-2.991 3.031-6.256 4.508-9.701 2.79-6.494 5.409-13.558 7.786-20.993l.171-.652h-.015c.012-.037.022-.074.034-.111.724-2.287 1.43-4.65 2.104-7.038 3.291-13.159 3.291-13.264 3.291-13.355.354-9.567.456-16.116.304-19.471-.252-4.443-1.796-11.993-4.587-22.443 4.134-4.072 7.451-8.478 9.864-13.101 4.03-7.809 6.074-18.138 6.073-30.661.303-4.02.328-8.169.075-12.332zm-298.411 68.534c-.593 1.332-1.316 2.553-2.133 3.611-1.124 1.318-2.539 2.459-4.161 3.37-.647.282-1.316.546-1.978.783l-.583.195c-1.637.596-3.296 1.158-4.869 1.654-2.499.45-5.339.678-8.443.678-8.003 0-15.792-1.29-23.149-3.833-.199-.146-.42-.291-.664-.438l-.117-.052c-.851-.249-1.635-.502-2.312-.745-1.295-.53-2.62-1.115-3.936-1.739-1.719-.822-3.426-1.713-4.999-2.599-1.804-1.503-3.608-3.207-5.365-5.064l-.111-.088c-7.547-4.398-14.965-13.811-22.046-27.974-2.366-4.781-4.589-9.917-6.608-15.265l-.157-.416-.431.107c-.033.008-.065.017-.097.026-.848-2.831-1.605-5.417-2.28-7.776-2.231-6.562-2.564-8.156-2.564-8.523 0-7.565 2.116-14.02 6.287-19.184 3.72-4.563 8.396-7.556 13.905-8.896 3.263-.84 6.223-.979 9.126-.367 17.158 1.453 33.179 12.888 47.619 33.988 1.502 2.183 3.01 4.507 4.48 6.91 3.431 5.575 6.612 11.479 9.457 17.546 1.847 3.923 3.598 8.013 5.203 12.151.989 2.622 1.876 5.029 2.638 7.157.05 1.152.125 2.401.224 3.711 0 4.43-.651 8.155-1.936 11.072zm-78.963 18.446c.127-.539.254-1.049.381-1.527 2.352 2.264 4.772 4.355 7.189 6.215 12.579 10.592 26.142 15.962 40.313 15.962 7.486 0 14.49-.632 20.815-1.877 11.04-2.167 20.416-6.289 27.867-12.249 4.348-3.479 7.747-7.398 10.101-11.646 2.014-3.565 3.036-6.723 3.036-9.387 0-3.988-.283-8.085-.842-12.179-.839-6.131-2.319-12.479-4.4-18.864-.375-1.156-.77-2.315-1.188-3.484-.791-2.162-1.665-4.385-2.612-6.639-.077-.154-.148-.31-.224-.488l-.197-.447-.077-.309c-.835-3.003-1.867-6.033-3.066-9.005-1.454-3.572-3.193-7.162-5.178-10.687 5.079 1.124 10.081 1.692 14.886 1.692 2.968 0 5.927-.217 8.712-.64l27.373.377c2.239.255 4.82.384 7.674.384h29.099c2.854 0 5.436-.129 7.624-.381l27.342-.386c7.511 1.123 15.466.77 23.681-1.047-.831 1.478-1.618 2.969-2.345 4.444-2.004 4.028-3.68 8.14-4.979 12.217-.354 1.091-.689 2.213-.975 3.271-.683 1.588-1.325 3.158-1.911 4.664-5.026 12.946-7.574 25.565-7.574 37.506 0 2.663 1.021 5.821 3.032 9.383 2.36 4.255 5.76 8.175 10.105 11.65.404.323.813.643 1.229.961 11.61 8.735 27.576 13.165 47.452 13.165 1.701 0 3.433-.078 5.163-.233l3.184-.384c.088-.015.177-.029.265-.045l-.054.051 1.665-.313c10.446-1.962 20.57-7.021 30.073-15.024 2.433-1.871 4.854-3.964 7.206-6.229.127.481.255.993.385 1.541 1 3.805 1.507 6.351 1.507 7.567 0 3.229-2.5 11.137-7.431 23.506l-.305.761c-1.982 4.981-4.363 10.691-7.078 16.975-1.159 2.723-2.32 5.418-3.479 8.09-4.102 5.221-8.504 11.339-13.081 18.182-2.725 4.001-4.74 7.064-5.991 9.109-2.054.965-3.711 1.626-4.916 1.961-4.405 1.114-7.286 1.886-8.572 2.297-1.106.383-2.025.764-2.734 1.133-3.451.493-6.726.972-9.819 1.435-2.28.336-4.467.666-6.553.992-2.191.331-4.222.662-6.037.983-2.467-2.428-6.956-3.998-13.686-4.792-.329-.055-.634-.077-.944-.081-4.677-.507-10.095-.609-16.069-.307-2.606.103-5.332.282-8.055.533h-1.056c-19.82-.454-36.916-.787-50.825-.991-4.42.053-9.144.128-14.173.229l-33.962.686c-1.271 0-2.534.025-3.687.078-9.796-.913-18.234-.966-25.09-.15-7.406.88-12.103 2.69-14.339 5.532-12.146-1.146-19.259-1.929-21.147-2.326-6.032-1.275-11.197-2.879-15.356-4.77-.823-1.529-3.277-5.313-7.489-11.549-4.587-6.857-8.989-12.975-13.084-18.185-1.159-2.672-2.318-5.367-3.478-8.092-2.729-6.315-5.11-12.026-7.079-16.975l-.304-.761c-4.93-12.365-7.429-20.273-7.429-23.504.001-1.22.508-3.766 1.511-7.579zm314.086-22.713l-.111.088c-1.762 1.862-3.567 3.565-5.294 5.014-2.915 1.659-5.944 3.135-8.984 4.381-.701.251-1.487.504-2.335.752l-.118.052c-.242.147-.463.292-.661.438-3.686 1.274-7.504 2.245-11.349 2.887-3.84.627-7.811.946-11.802.946H357.438l-.223-.002-.194.002-.187-.002-.153.002-.168-.002-.133.002c-1.647-.065-3.222-.192-4.672-.376-.646-.091-1.276-.192-1.824-.287-1.642-.514-3.3-1.076-4.943-1.674-.892-.296-1.749-.624-2.504-.951-1.665-.932-3.08-2.073-4.189-3.374-.835-1.079-1.558-2.3-2.147-3.628-1.285-2.917-1.938-6.643-1.938-11.036.099-1.346.174-2.596.225-3.748.74-2.07 1.628-4.478 2.636-7.153 4.082-10.533 9.016-20.526 14.663-29.703 15.63-25.534 33.159-39.293 52.161-40.906 2.754-.59 5.796-.464 9.069.378 5.502 1.339 10.178 4.332 13.897 8.894 1.755 2.171 3.164 4.588 4.188 7.179.869 2.233 1.474 4.653 1.799 7.197.173 1.289.273 2.654.301 4.047v.762c0 .184-.091.795-.702 2.826-.432 1.419-1.059 3.336-1.869 5.721-.668 2.336-1.426 4.921-2.272 7.752-.032-.009-.064-.018-.098-.026l-.432-.106-.156.415c-2.018 5.347-4.241 10.482-6.606 15.263-7.084 14.166-14.501 23.578-22.047 27.976z"/>
</svg>