<svg xmlns="http://www.w3.org/2000/svg" width="500" height="360">
  <path fill="#181818" d="M409.658 108.73c4.893 2.411 8.854 4.746 11.884 7.008 1.676 1.27 3.047 2.488 4.112 3.656 2.438 2.692 4.724 5.281 6.854 7.77.966.915 1.904 1.904 2.819 2.971 3.047 3.453 5.993 7.16 8.836 11.121 1.066 2.133 2.361 4.647 3.885 7.542.194.372.385.74.571 1.104.907-.567 1.681-1.138 2.323-1.714 2.132-1.879 6.145-4.723 12.034-8.532 3.557-2.285 6.298-4.088 8.228-5.409 1.778-3.503 2.921-6.347 3.428-8.531.406-1.828.838-6.018 1.295-12.568.406-5.535.609-9.014.609-10.436 0-15.59-5.407-28.743-16.226-39.458-.508-.508-1.039-1.016-1.6-1.523-3.353-3.098-6.221-5.637-8.605-7.617-.713-.508-1.475-1.042-2.285-1.6-2.744-1.879-5.41-3.58-7.999-5.104-4.013-2.336-7.82-4.24-11.426-5.713-8.228-2.691-17.394-2.666-27.5.077-.709.203-1.42.406-2.131.609-1.168 1.016-2.388 2.107-3.658 3.275-.914 1.219-2.131 2.768-3.654 4.647-1.678 2.031-3.76 4.443-6.247 7.236-2.396 2.713-4.49 5.011-6.284 6.894 2.951 4.373 5.631 7.939 8.036 10.702.608.762 1.22 1.448 1.829 2.057.861 1.421 1.751 2.945 2.666 4.57 3.503 6.246 6.17 11.705 7.998 16.377 1.015 2.589 1.775 4.926 2.285 7.008.71.253 1.445.559 2.207.913.203.102.434.203.687.305 1.78.799 3.456 1.586 5.029 2.363zm-98.034-.989c-.204-.559-.306-1.117-.306-1.676 0-2.183 1.066-4.087 3.201-5.713 2.69-2.031 7.082-3.605 13.176-4.722.355-.051.736-.102 1.144-.152.509-.102 1.041-.203 1.601-.305.406-.05.787-.101 1.143-.152 1.538-.208 3.111-.386 4.725-.533 7.75-.655 16.256-.478 25.518.533.15 0 .305.026.457.077 1.171.108 2.351.235 3.542.381 1.616.195 3.254.423 4.913.685-1.156-1.843-2.375-3.823-3.656-5.941-.816-1.316-1.654-2.687-2.514-4.113-1.271-2.184-2.615-4.495-4.039-6.932-.051-.051-.201-.229-.457-.533-1.217-1.219-4.493-4.443-9.825-9.673-1.879-1.879-4.062-4.012-6.552-6.399-.607-.559-1.192-1.117-1.75-1.676-1.303-.686-2.635-1.358-4-2.019-.668-.32-1.342-.638-2.019-.952-1.219-.559-2.438-1.117-3.657-1.676l-14.092-5.409c-2.537-.863-5.129-1.65-7.77-2.361-1.523-.457-3.072-.889-4.646-1.295l-6.553-1.523c-.762-.203-1.523-.381-2.285-.533v.077c-11.477-2.387-24.628-3.961-39.456-4.723h-4.724v.076h-5.027v-.079H242.993c-14.828.762-27.979 2.336-39.458 4.723v-.077c-.762.152-1.523.33-2.285.533l-6.55 1.523c-1.574.406-3.123.838-4.646 1.295-2.641.711-5.231 1.499-7.771 2.361l-14.092 5.409c-1.219.559-2.437 1.117-3.655 1.676-.807.374-1.607.754-2.4 1.143-1.23.597-2.436 1.206-3.618 1.828-.559.559-1.143 1.117-1.752 1.676-2.488 2.387-4.672 4.52-6.551 6.399-6.551 6.398-9.979 9.8-10.283 10.207-1.422 2.438-2.768 4.748-4.037 6.932-.969 1.608-1.909 3.145-2.819 4.608-1.17 1.935-2.287 3.75-3.351 5.446 1.512-.238 2.997-.455 4.456-.647 1.356-.158 2.689-.298 3.999-.419.152-.051.305-.077.458-.077 9.081-.991 17.448-1.181 25.098-.571 1.747.153 3.46.344 5.142.571.355.051.736.102 1.143.152.558.102 1.092.203 1.599.305.408.051.789.101 1.143.152 5.15.944 9.087 2.214 11.807 3.809.497.295.955.599 1.372.914.589.449 1.096.919 1.523 1.41 1.117 1.289 1.675 2.723 1.675 4.303 0 .754-.164 1.516-.494 2.285-.25.58-.592 1.164-1.03 1.753-.05.05-.076.101-.076.152l-.076.076c-.051.051-.102.102-.152.153-.153.152-.305.304-.458.457l-2.817 1.676c-.406.101-.813.178-1.219.228-.457.051-.915.076-1.372.076-.608 0-1.93-.254-3.96-.762-.103-.051-.204-.076-.305-.076h-.076c-.052 0-.126-.025-.229-.076-.655-.164-1.226-.291-1.714-.381-.164-.035-.317-.061-.457-.077-.44-.091-.797-.142-1.066-.152h-.115c-2.589 0-5.154.051-7.693.152-1.918.075-3.81.177-5.674.305-1.829.14-3.632.305-5.409.495-5.026.543-9.864 1.317-14.511 2.324-.406.051-.812.126-1.218.229-1.432.314-2.841.657-4.228 1.028-19.563 4.999-35.647 14.228-48.255 27.689-2.184 2.691-4.164 5.18-5.941 7.465-.102.101-.178.228-.229.381-.863 2.301-1.727 4.751-2.59 7.35-.203.616-.406 1.238-.609 1.867-2.76 8.04-5.591 17.435-8.494 28.184-.185.736-.375 1.473-.571 2.209-.304.965-.584 1.93-.837 2.895-7.973 29.809-11.959 52.535-11.959 68.176 0 10.258 2.514 18.638 7.542 25.138 5.078 6.551 13.33 12.086 24.756 16.604 8.43 3.25 19.627 6.373 33.592 9.369-.102.103-.203.254-.305.457.864.152 1.727.305 2.59.457v.076c.965.152 1.904.33 2.818.533 6.45 1.219 12.492 2.209 18.129 2.971.254 0 .508.025.762.076.153 0 .305.024.457.076.254 0 .508.024.762.075 1.117.152 2.209.279 3.276.382 3.482.674 7.05 1.27 10.702 1.791 7.837 1.114 16.063 1.877 24.68 2.284 1.599.076 3.212.138 4.837.189h1.905c1.119 0 2.59.025 4.418.076h26.051c7.872-.051 13.915.278 18.13.989.051-.354.102-.659.151-.913 1.067.051 2.159.102 3.276.151 1.321.051 2.666.103 4.038.152 1.065 0 2.132.024 3.198.076.508-.052 1.017-.076 1.522-.076 1.372-.051 2.718-.103 4.038-.152 1.117-.051 2.208-.102 3.273-.151.052.254.103.559.154.913 4.215-.711 10.258-1.04 18.127-.989 18.485.051 29.276.024 32.375-.076 14.473-.457 27.879-1.879 40.219-4.266 8.582-.966 18.182-2.515 28.793-4.646-.102-.203-.202-.354-.303-.457 13.963-2.996 25.161-6.119 33.592-9.369 11.426-4.52 19.677-10.055 24.756-16.604 5.026-6.5 7.541-14.879 7.541-25.137 0-15.642-3.986-38.367-11.96-68.177-.253-.965-.532-1.93-.837-2.896-.198-.747-.402-1.483-.61-2.209-2.879-10.755-5.698-20.15-8.455-28.183-.214-.664-.43-1.311-.646-1.943-.403-1.231-.811-2.425-1.22-3.579-.441-1.273-.887-2.504-1.333-3.695-.051-.153-.128-.28-.229-.381-1.776-2.285-3.758-4.773-5.94-7.465-2.394-2.555-4.907-4.955-7.54-7.199-11.406-9.711-25.13-16.592-41.174-20.643-1.245-.305-2.502-.598-3.77-.875-.406-.102-.813-.178-1.219-.229-6.431-1.393-13.223-2.345-20.377-2.856-1.72-.109-3.459-.198-5.219-.267-2.538-.101-5.104-.152-7.693-.152-.607 0-1.726.203-3.352.61-.102.05-.178.076-.229.076h-.075c-.103 0-.204.025-.306.076-2.033.508-3.353.762-3.961.762-.457 0-.914-.025-1.371-.076-.405-.05-.813-.127-1.219-.228l-2.818-1.676c-.152-.152-.307-.305-.457-.457-.051-.051-.103-.102-.151-.153l-.078-.076c0-.051-.024-.102-.075-.152-.61-.811-1.016-1.599-1.22-2.36zM189.899 239.33c-.427 1.021-.859 2.023-1.294 3.008-.203.406-.406.813-.61 1.219-.101.154-.177.33-.228.535l-8.76 14.014c-.762.916-1.523 1.804-2.285 2.666-.406.459-.814.916-1.218 1.373-.255.203-.482.406-.686.609-.61.607-1.195 1.193-1.752 1.75-.204.154-.381.307-.533.457l-8.608 6.018c-.812.457-1.625.863-2.437 1.219-.102.054-.178.104-.229.154-.203.051-.381.127-.533.228-.102 0-.203.024-.305.077-.305.152-.609.277-.914.382-.66.252-1.321.508-1.98.762-2.567.877-5.221 1.522-7.96 1.941-1.706.254-3.446.418-5.218.495-.864.052-1.727.076-2.59.076-20.464 0-35.826-6.221-46.084-18.664-3.301-4.061-5.865-8.528-7.693-13.405-1.219-3.302-1.828-5.688-1.828-7.16 0-16.147 3.326-31.129 9.979-44.94 1.236-2.582 2.582-5.121 4.038-7.617 1.242-2.113 2.562-4.194 3.96-6.247 5.84-8.583 12.417-15.742 19.729-21.482 4.672-3.757 9.649-6.905 14.93-9.445l.077-.076c1.574-.762 3.173-1.473 4.798-2.132.613-.243 1.222-.472 1.829-.686.57-.214 1.141-.417 1.714-.609 1.453-.518 2.887-.974 4.303-1.371.102-.051.203-.077.305-.077l1.447-.381c.152-.051.305-.076.458-.076 3.679-.866 7.209-1.297 10.587-1.295 6.929-.013 13.225 1.791 18.892 5.408 11.984 7.719 17.977 22.192 17.977 43.419 0 3.147-.533 8.1-1.599 14.854-1.677 10.818-4.19 20.721-7.542 29.707-.704 1.814-1.414 3.577-2.137 5.292zm308.424-118.412c-1.27 6.196-3.503 12.543-6.702 19.043-2.234 4.52-7.771 11.122-16.606 19.805-2.59 2.54-5.052 4.774-7.388 6.704 0-.053-.025-.103-.077-.153-3.205 2.945-6.075 5.18-8.606 6.703.426 1.901.856 4.518 1.295 7.846.152 2.184.254 4.901.305 8.151 1.676 6.602 2.515 12.264 2.515 16.987 0 .963.938 8.379 2.817 22.24 1.93 13.862 2.896 25.289 2.896 34.278 0 12.392-1.221 21.963-3.657 28.715-3.301 9.347-9.727 17.294-19.272 23.845-11.477 7.871-29.604 14.955-54.386 21.252-6.704 2.641-15.87 5.256-27.5 7.846-8.683 1.879-18.483 3.683-29.401 5.408-9.699 1.422-15.057 2.209-16.072 2.361h-.532c-18.74 4.52-33.06 6.297-42.962 5.332h-33.517c-16.402.203-31.51-1.242-45.322-4.342-2.691-.255-5.181-.56-7.466-.914l-6.702-.076c-1.016-.152-6.374-.939-16.074-2.361-10.918-1.727-20.719-3.529-29.402-5.408-11.629-2.59-20.795-5.205-27.499-7.846-24.781-6.297-42.91-13.381-54.388-21.252-9.547-6.551-15.97-14.498-19.271-23.845-2.438-6.752-3.656-16.323-3.656-28.715 0-8.989.965-20.416 2.895-34.278 1.879-13.861 2.818-21.277 2.818-22.24 0-3.606.508-7.771 1.523-12.494.254-2.438.609-4.747 1.067-6.932v-.687c.051-.102.101-.203.152-.305.559-2.387 1.194-4.646 1.904-6.78.486-1.407 1.057-2.828 1.714-4.266-.037-.053-.075-.104-.114-.151-3.098-1.372-6.83-4.063-11.198-8.075-.05.051-.076.101-.076.153-2.336-1.93-4.799-4.165-7.389-6.704-8.836-8.683-14.372-15.285-16.605-19.805-3.199-6.5-5.434-12.847-6.704-19.043C.563 115.583.005 109.438.005 102.482c0-12.95 1.802-23.538 5.408-31.765 4.215-9.648 12.441-20.465 24.68-32.45 7.871-7.719 15.767-12.873 23.689-15.463 10.309-3.402 23.283-3.758 38.924-1.066 6.856 2.082 15.718 5.916 26.585 11.502 1.93 1.016 3.707 1.98 5.332 2.895 2.742.812 5.637 1.803 8.684 2.971 4.096 1.565 7.841 3.229 11.235 4.989.483-.413.979-.832 1.485-1.257 1.93-1.625 3.783-3.173 5.561-4.646.863-.559 1.727-1.117 2.589-1.676 3.656-2.539 7.897-5.104 12.721-7.693 1.574-1.066 3.3-2.209 5.18-3.428 1.422-.508 2.869-.965 4.341-1.371 2.896-1.27 8.48-2.488 16.758-3.657 4.977-.71 8.785-.837 11.426-.381 4.164-.101 8.354.077 12.569.533 12.44-.152 23.563.077 33.364.686 9.698-.609 20.616-.838 32.754-.686 4.215-.457 8.403-.634 12.567-.533 2.643-.457 6.451-.33 11.428.381 8.275 1.168 13.861 2.387 16.758 3.657 1.472.406 2.919.863 4.341 1.371 1.879 1.219 3.604 2.361 5.181 3.428 4.823 2.589 9.063 5.154 12.722 7.693 3.503 2.184 7.007 4.495 10.512 6.932 3.021-1.526 6.323-2.973 9.901-4.342 3.048-1.168 5.941-2.159 8.684-2.971 1.626-.915 3.402-1.879 5.332-2.895 10.868-5.586 19.729-9.42 26.585-11.502 12.543-2.184 23.386-2.362 32.526-.533 2.232.406 4.367.939 6.396 1.599 7.923 2.59 15.819 7.745 23.691 15.463 12.238 11.984 20.464 22.801 24.679 32.45 3.606 8.227 5.409 18.815 5.409 31.765-.002 6.96-.562 13.104-1.679 18.436zm-83.065 109.539c.016.145.028.299.037.455.102 2.186.153 4.42.153 6.705 0 1.471-.61 3.859-1.828 7.158-1.829 4.875-4.394 9.346-7.693 13.408-10.258 12.438-25.62 18.662-46.085 18.662-22.953 0-39.712-14.093-50.273-42.275-3.353-8.99-5.865-18.894-7.541-29.709-1.066-6.754-1.601-11.705-1.601-14.854 0-2.896.128-5.661.382-8.303.537-6.582 1.77-12.383 3.693-17.405 2.977-7.768 7.609-13.671 13.9-17.711 9.604-6.13 21.065-7.057 34.394-2.78 1.683.536 3.396 1.159 5.142 1.866 15.592 6.348 28.769 17.393 39.533 33.135 1.383 2.032 2.689 4.089 3.924 6.171 8.169 13.946 12.791 29.104 13.863 45.477zm-66.08-20.035c6.551 0 11.223-2.488 14.016-7.465 1.574-5.078 2.361-7.77 2.361-8.074 0-4.977-1.727-8.938-5.18-11.883-3.047-2.59-6.779-3.885-11.197-3.885-4.469.101-8.201 1.396-11.197 3.885-3.402 2.945-5.104 6.83-5.104 11.654 0 3.402 1.016 6.576 3.047 9.521 2.892 4.165 7.31 6.247 13.254 6.247zM48.98 54.953c-2.234 1.828-4.799 4.087-7.694 6.779-.559.507-1.091 1.016-1.599 1.523-5.789 5.738-10.03 12.213-12.721 19.424-2.336 6.145-3.504 12.822-3.504 20.033 0 1.422.203 4.901.609 10.436.457 6.55.889 10.74 1.295 12.568.507 2.184 1.65 5.027 3.428 8.531 1.929 1.32 4.671 3.124 8.226 5.409 5.891 3.809 9.903 6.653 12.035 8.532 1.007.902 2.34 1.791 4 2.666 2.476-4.547 6.806-11.784 12.987-21.709.61-.711 1.244-1.372 1.904-1.981 2.133-2.488 4.418-5.078 6.855-7.77 3.809-4.164 11.045-8.607 21.709-13.331.762-.354 1.498-.66 2.209-.913.508-2.083 1.27-4.419 2.285-7.008.436-1.114.919-2.27 1.448-3.466 1.699-3.852 3.882-8.155 6.55-12.911 3.961-7.059 7.719-12.899 11.273-17.52.114-.093.229-.182.343-.267-1.689-1.805-3.632-3.95-5.828-6.436-2.488-2.793-4.57-5.206-6.246-7.236-1.523-1.879-2.743-3.428-3.657-4.647-1.269-1.168-2.488-2.26-3.656-3.275-.711-.203-1.421-.406-2.133-.609-10.105-2.743-19.271-2.768-27.498-.077-5.891 2.387-12.365 5.993-19.424 10.816-.813.559-1.575 1.092-2.286 1.6-.301.255-.606.534-.91.839zM140.083 183c-3.453 2.945-5.18 6.906-5.18 11.883 0 .305.787 2.996 2.361 8.074 2.793 4.977 7.465 7.465 14.016 7.465 5.941 0 10.359-2.082 13.254-6.246 2.031-2.945 3.047-6.119 3.047-9.521 0-4.823-1.701-8.709-5.104-11.653-2.996-2.489-6.729-3.784-11.197-3.885-4.418-.002-8.151 1.293-11.197 3.883z"/>
  <path fill="#E9E4DA" d="M409.658 108.73c.342-1.267.697-2.587 1.066-3.96 3.758-14.067 6.652-22.345 8.685-24.833 5.229-6.601 12.035-11.171 20.414-13.711.508-.153 1.04-.304 1.6-.457 4.57-1.27 10.866-2.107 18.891-2.514 10.817 10.715 16.226 23.868 16.226 39.458 0 1.422-.203 4.901-.609 10.436-.457 6.55-.889 10.74-1.295 12.568-.507 2.184-1.648 5.027-3.428 8.531-1.93 1.32-4.671 3.124-8.228 5.409-5.891 3.809-9.902 6.653-12.034 8.532-.644.576-1.416 1.147-2.323 1.714-.188-.365-.377-.733-.571-1.104-1.522-2.895-2.817-5.409-3.885-7.542-2.843-3.961-5.789-7.668-8.836-11.121-.915-1.067-1.854-2.057-2.819-2.971-2.132-2.488-4.417-5.078-6.854-7.77-1.065-1.168-2.438-2.386-4.112-3.656-3.034-2.262-6.995-4.598-11.888-7.009zM243.83 322.93c-.913-.813-1.93-1.676-3.047-2.59-.102.609-.179 1.271-.229 1.98v.457c-.05.254-.101.559-.151.914-4.215-.711-10.258-1.041-18.13-.99H196.222c-1.829-.051-3.3-.076-4.418-.076H189.899c-1.625-.053-3.238-.113-4.837-.189-2.049-2.858-4.093-5.793-6.131-8.799-8.025-11.578-12.036-20.873-12.036-27.879 0-1.043.039-2.084.115-3.123.192-.811.445-1.725.762-2.742 1.604-1.662 3.317-3.668 5.142-6.018 5.94-8.633 9.395-13.66 10.359-15.084 1.777-2.59 3.504-7.031 5.181-13.33.586-2.201 1.068-4.244 1.446-6.131.723-1.715 1.433-3.479 2.133-5.295 3.352-8.986 5.865-18.889 7.542-29.707 1.066-6.754 1.599-11.705 1.599-14.854 0-21.228-5.993-35.701-17.977-43.419-5.667-3.618-11.963-5.421-18.892-5.408-1.066-5.863-1.599-9.494-1.599-10.893 0-2.082 2.794-6.475 8.379-13.178 1.577-1.877 2.934-3.528 4.075-4.951.488.09 1.059.217 1.714.381.103.05.177.076.229.076h.076c.102 0 .203.025.305.076 2.031.508 3.352.762 3.96.762.457 0 .915-.025 1.372-.076.406-.05.813-.127 1.219-.228l2.817-1.676c.153-.152.305-.305.458-.457.05-.051.101-.102.152-.153l.076-.076c0-.051.025-.102.076-.152.438-.589.78-1.173 1.03-1.753 3.533-.013 5.933-1.917 7.198-5.713.559-1.727.837-3.91.837-6.55 0-1.879-1.04-3.605-3.123-5.18-2.845-2.184-5.13-5.129-6.855-8.836-.509-1.066-1.168-3.631-1.98-7.693-.171-.85-.361-1.637-.571-2.361.007-1.081.021-1.69.037-1.829.61-3.453 2.997-8.76 7.161-15.92 1.219-2.082 5.282-5.103 12.188-9.064 11.479-2.387 24.63-3.961 39.458-4.723H247.717v.076h5.027v-.076h4.724c14.828.762 27.979 2.336 39.456 4.723v-.077c.762.152 1.523.33 2.285.533l6.553 1.523c1.573.406 3.122.838 4.646 1.295 2.641.711 5.23 1.499 7.77 2.361l14.092 5.409c1.22.559 2.438 1.117 3.658 1.676.676.314 1.35.632 2.019.952 1.364.661 2.696 1.333 3.999 2.019.558.559 1.143 1.117 1.751 1.676 2.489 2.387 4.672 4.52 6.551 6.399 5.332 5.23 8.608 8.455 9.826 9.673-4.978-.762-10.409-1.091-16.302-.99-2.924.063-5.74.228-8.455.496-8.266.789-15.553 2.503-21.86 5.142-9.142 3.859-13.711 8.785-13.711 14.777 0 1.778.508 3.479 1.522 5.104 1.879 3.047 5.054 4.57 9.521 4.57h.838c.204.762.61 1.549 1.219 2.362.051.05.075.101.075.152l.078.076c.05.051.101.102.151.153.15.152.305.304.457.457l2.818 1.676c.406.101.813.178 1.219.228.457.051.914.076 1.371.076.608 0 1.928-.254 3.961-.762.102-.051.203-.076.306-.076h.075c.051 0 .127-.025.229-.076 1.626-.407 2.743-.61 3.352-.61 2.59 0 5.156.051 7.693.152 1.76.069 3.499.158 5.219.267 7.154.512 13.946 1.464 20.377 2.856.405.051.813.126 1.219.229 1.268.278 2.523.57 3.77.875 16.044 4.051 29.768 10.932 41.174 20.643 2.633 2.244 5.146 4.644 7.541 7.199 2.182 2.691 4.163 5.18 5.939 7.465.102.101.179.228.229.381.446 1.191.892 2.422 1.333 3.695.409 1.154.815 2.348 1.22 3.579.217.632.433 1.28.646 1.943 2.757 8.032 5.576 17.428 8.455 28.184.208.725.412 1.461.61 2.209.305.965.584 1.93.837 2.895 7.974 29.809 11.96 52.535 11.96 68.176 0 10.258-2.515 18.638-7.541 25.138-5.079 6.551-13.33 12.086-24.756 16.604-8.43 3.25-19.629 6.373-33.592 9.369.101.103.201.254.303.457-10.611 2.133-20.211 3.682-28.793 4.646-12.34 2.387-25.746 3.809-40.219 4.266-3.099.102-13.89.127-32.375.076-7.869-.051-13.912.279-18.127.99-.053-.355-.104-.66-.154-.914-1.065.051-2.156.102-3.273.151-1.32.052-2.666.103-4.038.152-.507 0-1.016.025-1.522.076-1.066-.051-2.133-.076-3.198-.076-1.379-.049-2.724-.1-4.045-.15zm60.672-158.63c-5.154 7.98-7.73 15.864-7.73 23.651 0 22.445 2.666 41.719 7.998 57.814 11.172 33.771 32.119 50.655 62.842 50.655 33.01 0 49.513-18.002 49.513-54.008.151-3.453-.101-6.649-.763-9.599-.313-1.444-.707-2.715-1.18-3.809.027.479.053.961.076 1.449-1.072-16.373-5.693-31.531-13.863-45.477-1.233-2.082-2.541-4.14-3.924-6.171-10.766-15.742-23.941-26.787-39.533-33.135-1.746-.707-3.459-1.33-5.142-1.866-13.327-4.277-24.79-3.351-34.394 2.78-6.291 4.045-10.923 9.948-13.9 17.716zm-80.4 76.667c-.306.254-.585.584-.838.99-4.876 1.373-7.313 5.84-7.313 13.406 0 .102.278 1.93.838 5.486.913 4.215 2.26 8.073 4.037 11.577 5.789 11.07 14.955 16.605 27.498 16.605 11.781 0 22.166-5.562 31.154-16.683 3.25-4.063 5.916-8.379 7.998-12.949 1.828-3.963 2.742-6.905 2.742-8.836 0-7.01-2.412-10.03-7.236-9.063 0-.051-.024-.103-.075-.153-.052-.052-.077-.103-.077-.152-.71-1.117-1.648-1.953-2.816-2.514-1.625-1.98-4.063-2.97-7.313-2.97-4.267 0-10.183-.435-17.749-1.297-7.719-.863-12.975-1.293-15.768-1.293-8.533-.1-13.559 2.514-15.082 7.846zM102.454 94.677c-1.97.229-4 .342-6.094.342-5.231 0-11.604-2.056-19.12-6.169-2.894-1.625-8.835-5.459-17.824-11.502-4.875-3.2-7.694-7.033-8.456-11.502-.305-2.438-.534-4.291-.686-5.561-.254-2.032-.686-3.809-1.295-5.332.304-.305.609-.584.914-.838.71-.508 1.472-1.042 2.286-1.6 7.059-4.824 13.533-8.43 19.424-10.816 8.227-2.691 17.393-2.666 27.498.077l2.133.609c1.168 1.016 2.387 2.107 3.656 3.275.914 1.219 2.133 2.768 3.657 4.647 1.675 2.031 3.757 4.443 6.246 7.236 2.195 2.486 4.138 4.631 5.828 6.436-.115.085-.229.174-.343.267-3.554 4.621-7.312 10.461-11.273 17.52-2.669 4.756-4.853 9.06-6.551 12.911zm104.432 184.454l-.152.533.076-.23c.152-.149.305-.276.457-.381l.076-.074c-.204.099-.356.152-.457.152z"/>
  <path fill="#CFC4AD" d="M311.624 107.741h-.838c-4.47 0-7.644-1.523-9.521-4.57-1.017-1.625-1.523-3.326-1.523-5.104 0-5.992 4.57-10.918 13.711-14.777 6.309-2.639 13.596-4.353 21.861-5.142 2.713-.268 5.53-.433 8.455-.496 5.892-.101 11.323.229 16.301.99.255.305.406.482.457.533 1.423 2.438 2.769 4.748 4.037 6.932.859 1.426 1.697 2.797 2.515 4.113 1.28 2.118 2.5 4.098 3.655 5.941-1.658-.262-3.297-.49-4.912-.685-1.191-.146-2.371-.273-3.543-.381-.151-.051-.305-.077-.457-.077-9.26-1.01-17.766-1.188-25.518-.533-1.611.146-3.186.325-4.724.533-.354.051-.736.102-1.144.152-.559.102-1.09.203-1.6.305-.406.051-.787.101-1.143.152-6.094 1.117-10.485 2.691-13.178 4.722-2.134 1.625-3.199 3.53-3.199 5.713.002.562.104 1.12.308 1.679zm98.034.989c-1.573-.778-3.249-1.565-5.027-2.361-.253-.102-.482-.203-.686-.305-.762-.354-1.498-.66-2.209-.913-.508-2.083-1.271-4.419-2.284-7.008-1.828-4.672-4.495-10.131-7.998-16.377-.915-1.625-1.804-3.149-2.666-4.57-.61-.609-1.222-1.295-1.829-2.057-2.404-2.763-5.085-6.33-8.036-10.702 1.794-1.883 3.89-4.181 6.284-6.894 2.488-2.793 4.57-5.206 6.247-7.236 1.522-1.879 2.741-3.428 3.655-4.647 1.271-1.168 2.488-2.26 3.656-3.275l2.133-.609c10.105-2.743 19.271-2.768 27.499-.077 3.604 1.473 7.413 3.377 11.426 5.713 2.589 1.523 5.255 3.225 7.999 5.104.812.559 1.572 1.092 2.285 1.6 2.386 1.98 5.254 4.519 8.605 7.617.56.507 1.092 1.016 1.599 1.523-8.022.406-14.318 1.244-18.89 2.514-.56.153-1.092.304-1.6.457-8.379 2.54-15.185 7.11-20.414 13.711-2.031 2.488-4.928 10.766-8.686 24.833-.366 1.373-.721 2.693-1.063 3.959zm5.6 121.727c-.023-.488-.049-.971-.076-1.449.473 1.094.866 2.363 1.18 3.809.662 2.947.914 6.146.763 9.599 0 36.006-16.503 54.008-49.513 54.008-30.723 0-51.67-16.885-62.842-50.655-5.332-16.097-7.998-35.369-7.998-57.814 0-7.788 2.576-15.671 7.73-23.651-1.925 5.022-3.156 10.823-3.693 17.405-.254 2.641-.382 5.408-.382 8.303 0 3.148.533 8.1 1.601 14.854 1.676 10.816 4.188 20.72 7.541 29.71 10.563 28.184 27.32 42.274 50.273 42.274 20.465 0 35.827-6.223 46.085-18.662 3.3-4.063 5.864-8.533 7.693-13.408 1.218-3.299 1.828-5.688 1.828-7.157 0-2.285-.052-4.521-.153-6.705-.009-.162-.024-.316-.037-.461zM188.644 108.35c.33-.77.494-1.531.494-2.285 0-1.581-.558-3.015-1.675-4.303-.427-.491-.935-.96-1.523-1.41-.417-.314-.875-.619-1.372-.914-2.719-1.595-6.656-2.864-11.807-3.809-.354-.051-.735-.102-1.143-.152-.507-.102-1.042-.203-1.599-.305-.406-.05-.787-.101-1.143-.152-1.682-.228-3.396-.418-5.142-.571-7.65-.61-16.017-.419-25.098.571-.152 0-.305.026-.458.077-1.31.121-2.643.261-3.999.419-1.459.192-2.944.409-4.456.647 1.064-1.696 2.181-3.511 3.351-5.446.91-1.464 1.85-3 2.819-4.608 1.27-2.184 2.615-4.495 4.037-6.932.305-.406 3.732-3.809 10.283-10.207 1.879-1.879 4.063-4.012 6.551-6.399.609-.559 1.193-1.117 1.752-1.676 1.182-.622 2.388-1.231 3.618-1.828.793-.388 1.593-.769 2.4-1.143 1.218-.559 2.437-1.117 3.655-1.676l14.092-5.409c2.54-.863 5.13-1.65 7.771-2.361 1.523-.457 3.072-.889 4.646-1.295l6.55-1.523c.762-.203 1.523-.381 2.285-.533v.077c-6.906 3.961-10.969 6.982-12.188 9.064-4.164 7.161-6.55 12.467-7.161 15.92-.016.138-.03.748-.037 1.829.21.724.4 1.511.571 2.361.813 4.063 1.472 6.627 1.98 7.693 1.726 3.708 4.011 6.652 6.855 8.836 2.083 1.574 3.123 3.301 3.123 5.18 0 2.641-.278 4.824-.837 6.55-1.262 3.795-3.662 5.699-7.195 5.713zm-24.339 32.297c-3.378-.002-6.908.429-10.587 1.295-.152 0-.305.025-.458.076l-1.447.381c-.102 0-.203.025-.305.077-1.416.396-2.851.853-4.303 1.371-.573.192-1.144.395-1.714.609-.606.214-1.215.443-1.829.686-1.625.66-3.225 1.371-4.798 2.132l-.077.076c-5.281 2.54-10.257 5.688-14.93 9.445-7.313 5.74-13.889 12.899-19.729 21.482-1.398 2.052-2.718 4.133-3.96 6.247-1.456 2.496-2.801 5.035-4.038 7.617-6.653 13.813-9.979 28.793-9.979 44.94 0 1.474.609 3.858 1.828 7.16 1.828 4.877 4.393 9.346 7.693 13.405 10.258 12.443 25.62 18.664 46.084 18.664.864 0 1.727-.024 2.59-.076 1.772-.077 3.512-.241 5.218-.495 2.739-.418 5.393-1.064 7.96-1.941.66-.254 1.32-.51 1.98-.762.305-.104.609-.229.914-.381.102-.054.203-.078.305-.078.152-.101.33-.177.533-.228.051-.051.127-.102.229-.153.813-.355 1.625-.763 2.437-1.22l8.608-6.018c.152-.15.329-.303.533-.457.558-.557 1.143-1.143 1.752-1.75.204-.203.431-.406.686-.609.404-.457.812-.914 1.218-1.373.762-.862 1.523-1.75 2.285-2.666l8.76-14.014c.051-.205.126-.381.228-.535.204-.406.408-.813.61-1.219.436-.984.867-1.986 1.294-3.008-.378 1.887-.86 3.93-1.446 6.131-1.677 6.299-3.404 10.74-5.181 13.33-.964 1.424-4.418 6.451-10.359 15.084-1.824 2.35-3.538 4.355-5.142 6.018-.317 1.019-.57 1.933-.762 2.742-.076 1.039-.115 2.08-.115 3.123 0 7.006 4.011 16.301 12.036 27.879 2.038 3.006 4.082 5.939 6.131 8.799-8.617-.407-16.843-1.17-24.68-2.284-3.652-.521-7.22-1.117-10.702-1.791-1.066-.103-2.159-.229-3.276-.382-.254-.051-.507-.075-.762-.075-.152-.052-.304-.076-.457-.076-.253-.051-.508-.076-.762-.076-5.637-.762-11.679-1.752-18.129-2.971-.914-.203-1.854-.381-2.818-.533v-.076c-.864-.151-1.727-.305-2.59-.457.102-.203.203-.354.305-.457-13.965-2.996-25.163-6.119-33.592-9.369-11.426-4.52-19.678-10.055-24.756-16.604-5.028-6.5-7.542-14.879-7.542-25.137 0-15.642 3.986-38.367 11.959-68.176.253-.966.533-1.931.837-2.896.196-.736.386-1.474.571-2.209 2.903-10.749 5.734-20.144 8.494-28.184.203-.629.406-1.251.609-1.867.863-2.599 1.727-5.049 2.59-7.35.051-.153.126-.28.229-.381 1.777-2.285 3.758-4.773 5.941-7.465 12.608-13.461 28.693-22.69 48.255-27.689 1.387-.371 2.796-.713 4.228-1.028.406-.102.813-.178 1.218-.229 4.647-1.006 9.484-1.781 14.511-2.324 1.776-.19 3.58-.355 5.409-.495 1.864-.128 3.756-.23 5.674-.305 2.54-.101 5.104-.152 7.693-.152h.115c.269.011.626.062 1.066.152.14.016.293.042.457.077-1.141 1.423-2.498 3.074-4.075 4.951-5.585 6.703-8.379 11.096-8.379 13.178.007 1.4.54 5.031 1.606 10.894zm118.677 100.855c4.824-.967 7.236 2.055 7.236 9.064 0 1.93-.914 4.873-2.742 8.836-2.082 4.57-4.748 8.887-7.998 12.949-8.988 11.121-19.373 16.682-31.154 16.682-12.543 0-21.709-5.535-27.498-16.605-1.777-3.504-3.124-7.363-4.037-11.578-.56-3.557-.838-5.385-.838-5.485 0-7.566 2.437-12.033 7.313-13.406-.711 1.119-1.117 2.49-1.219 4.115-.052.252-.076.506-.076.762 0 .813.28 1.828.838 3.047 1.472 3.099 4.951 7.388 10.436 12.873.254.252.507.509.762.763.456.405.888.838 1.296 1.295.711.608 1.396 1.217 2.056 1.828.102.102.202.2.305.305 2.438 2.082 4.723 3.783 6.855 5.104 3.251 1.93 6.145 2.895 8.685 2.895 8.226 0 15.641-4.241 22.241-12.723.255-.305.508-.633.763-.988 2.285-3.149 4.239-6.5 5.864-10.057 1.32-2.893 1.98-4.797 1.98-5.713 0-1.014-.152-1.955-.458-2.816-.153-.411-.356-.792-.61-1.147zm-2.968-2.82c-1.424-.709-3.175-1.063-5.258-1.063-1.727 0-5.509.735-11.35 2.207-5.789 1.473-9.877 2.209-12.264 2.209-.103 0-1.905-.481-5.409-1.447-3.859-1.063-7.186-1.75-9.979-2.058-2.741-.305-5.077-.254-7.009.152-2.03.406-3.579 1.168-4.646 2.285 1.523-5.332 6.55-7.945 15.082-7.844 2.793 0 8.049.43 15.768 1.293 7.565.863 13.483 1.297 17.749 1.297 3.251 0 5.691.988 7.316 2.969zM48.98 54.953c.609 1.523 1.041 3.3 1.295 5.332.152 1.27.381 3.123.686 5.561.762 4.469 3.58 8.303 8.456 11.502 8.988 6.042 14.93 9.876 17.824 11.502 7.516 4.113 13.889 6.169 19.12 6.169 2.093 0 4.124-.114 6.094-.342-.529 1.196-1.012 2.352-1.448 3.466-1.015 2.589-1.777 4.926-2.285 7.008-.711.253-1.447.559-2.209.913-10.665 4.723-17.901 9.167-21.709 13.331-2.437 2.692-4.722 5.281-6.855 7.77-.66.609-1.294 1.27-1.904 1.981-6.182 9.926-10.511 17.162-12.987 21.709-1.659-.875-2.992-1.764-4-2.666-2.132-1.879-6.144-4.723-12.035-8.532-3.555-2.285-6.297-4.088-8.226-5.409-1.778-3.503-2.921-6.347-3.428-8.531-.406-1.828-.838-6.018-1.295-12.568-.406-5.535-.609-9.014-.609-10.436 0-7.211 1.168-13.889 3.504-20.033 2.691-7.211 6.932-13.686 12.721-19.424.508-.508 1.041-1.016 1.599-1.523 2.892-2.692 5.457-4.952 7.691-6.78z"/>
  <path fill="#FFF" d="M349.178 210.422c-5.941 0-10.359-2.082-13.254-6.246-2.031-2.945-3.047-6.119-3.047-9.521 0-4.823 1.7-8.709 5.104-11.653 2.996-2.489 6.729-3.784 11.197-3.885 4.418 0 8.15 1.294 11.197 3.885 3.453 2.944 5.18 6.906 5.18 11.883 0 .306-.787 2.996-2.361 8.074-2.794 4.975-7.465 7.463-14.016 7.463zM140.083 183c3.047-2.59 6.78-3.885 11.198-3.885 4.468.101 8.201 1.396 11.197 3.885 3.403 2.945 5.104 6.83 5.104 11.654 0 3.402-1.016 6.576-3.047 9.521-2.896 4.164-7.313 6.246-13.254 6.246-6.551 0-11.223-2.487-14.016-7.465-1.574-5.078-2.361-7.771-2.361-8.074-.001-4.976 1.725-8.937 5.179-11.882zm66.803 96.131c.101 0 .253-.053.457-.152l-.076.074c-.152.104-.305.23-.457.381l-.076.23.152-.533z"/>
  <path fill="#010101" d="M223.264 241.957c.253-.406.532-.736.838-.99 1.066-1.117 2.615-1.879 4.646-2.285 1.932-.406 4.268-.457 7.009-.152 2.793.308 6.119.992 9.979 2.058 3.504.965 5.307 1.447 5.409 1.447 2.387 0 6.475-.736 12.264-2.209 5.841-1.472 9.624-2.207 11.35-2.207 2.083 0 3.834.354 5.258 1.063 1.168.562 2.106 1.396 2.816 2.514 0 .052.025.103.077.152.051.053.075.104.075.154.254.355.457.736.608 1.143.306.861.458 1.804.458 2.816 0 .916-.66 2.82-1.98 5.713-1.625 3.557-3.579 6.906-5.864 10.057-.255.355-.508.685-.763.988-6.602 8.48-14.017 12.723-22.241 12.723-2.54 0-5.434-.965-8.685-2.895-2.133-1.32-4.418-3.021-6.855-5.104-.103-.104-.203-.203-.305-.305-.66-.611-1.345-1.22-2.056-1.828-.408-.457-.84-.89-1.296-1.295-.255-.254-.508-.511-.762-.763-5.484-5.485-8.964-9.774-10.436-12.873-.558-1.219-.838-2.233-.838-3.047 0-.256.024-.51.076-.763.1-1.622.507-2.993 1.218-4.112z"/>
  <path fill="#EEEAE6" d="M243.83 322.93c-1.117-.051-2.209-.102-3.276-.151v-.457c.051-.711.128-1.371.229-1.98 1.117.912 2.134 1.775 3.047 2.588z"/>
</svg>