<svg xmlns="http://www.w3.org/2000/svg" width="500" height="360">
  <path fill="#E8E3D9" d="M122.081 62.665c-1.672-1.786-3.62-3.937-5.794-6.399-2.462-2.765-4.547-5.18-6.186-7.166-1.511-1.864-2.726-3.408-3.61-4.587l-.246-.272c-1.278-1.176-2.522-2.291-3.699-3.313l-.335-.291-2.585-.739c-10.439-2.833-20.085-2.848-28.644-.047l-.129.047c-5.997 2.43-12.658 6.137-19.805 11.021-.825.566-1.597 1.107-2.317 1.623l-.115.089c-.326.271-.652.567-.978.889-2.244 1.84-4.838 4.127-7.696 6.785-.583.529-1.139 1.06-1.663 1.583-5.969 5.917-10.406 12.695-13.183 20.134-2.412 6.343-3.634 13.323-3.634 20.744 0 1.484.201 4.946.614 10.575.468 6.708.905 10.916 1.342 12.882.549 2.363 1.725 5.302 3.593 8.983l.232.456.422.289c1.941 1.329 4.725 3.159 8.27 5.438 5.781 3.737 9.75 6.547 11.787 8.341 1.125 1.008 2.606 2 4.401 2.946l1.746.92.944-1.733c2.433-4.469 6.755-11.694 12.847-21.477.528-.608 1.082-1.18 1.645-1.7l.162-.168c2.101-2.451 4.396-5.052 6.813-7.722 3.604-3.939 10.684-8.264 21.079-12.867.704-.328 1.389-.612 2.037-.843l1.015-.362.255-1.047c.485-1.987 1.227-4.259 2.205-6.753.421-1.077.897-2.216 1.416-3.388 1.664-3.773 3.839-8.06 6.464-12.74 3.84-6.843 7.529-12.59 10.966-17.085.032-.024.064-.049.097-.073l1.804-1.336-1.537-1.637zM318.818 48.998c-2.557-.869-5.213-1.676-7.84-2.384-1.551-.464-3.139-.907-4.767-1.327l-6.489-1.508c-.797-.212-1.606-.401-2.408-.562l-2.358-.398c-10.974-2.133-23.537-3.573-37.388-4.285l-4.826-.002-2 .076h-1.027v-.076h-6.723l-.103.002c-13.836.711-26.388 2.149-37.355 4.278v-.076l-2.394.48c-.801.161-1.611.35-2.345.546l-6.597 1.535c-1.58.408-3.168.85-4.667 1.3-2.679.722-5.334 1.529-7.966 2.425l-14.092 5.409-3.779 1.728c-.82.379-1.633.767-2.433 1.158-1.234.599-2.471 1.223-3.676 1.857l-.269.141-.214.215c-.539.539-1.102 1.077-1.723 1.646-2.5 2.398-4.713 4.561-6.564 6.412-9.937 9.706-10.28 10.164-10.486 10.438l-.127.192c-1.422 2.438-2.769 4.75-4.022 6.907-.964 1.6-1.899 3.128-2.817 4.606-1.164 1.925-2.275 3.73-3.334 5.418l-2.335 3.722 4.341-.684c1.495-.236 2.964-.45 4.375-.636 1.34-.156 2.658-.294 3.952-.414l.49-.08c8.913-.973 17.257-1.161 24.707-.567 1.707.15 3.406.339 5.031.559.351.051.726.101 1.125.15.526.097 1.029.192 1.509.289l.148.024c.392.048.76.098 1.028.135 4.895.897 8.648 2.097 11.147 3.562.435.258.833.523 1.178.784.479.365.892.746 1.226 1.13.798.92 1.187 1.899 1.187 2.993 0 .484-.109.974-.333 1.496-.178.415-.431.848-.751 1.288-.062.074-.118.151-.169.231l-.266.266-2.341 1.394c-.238.051-.47.091-.682.118-.384.042-.772.063-1.153.063-.11 0-.781-.033-3.332-.667-.182-.068-.372-.115-.576-.143l-.178-.044c-.701-.175-1.313-.311-1.785-.397-.194-.042-.377-.073-.548-.095-.515-.103-.946-.161-1.389-.177h-.114c-2.596 0-5.212.052-7.772.154-1.914.075-3.843.178-5.75.309-1.836.141-3.676.309-5.471.5-5.046.545-9.969 1.332-14.635 2.34-.453.06-.908.146-1.309.248-1.45.319-2.901.672-4.293 1.044-19.846 5.071-36.406 14.579-49.22 28.259l-.094.107c-2.159 2.661-4.147 5.159-5.91 7.424-.268.298-.468.643-.579.98-.868 2.314-1.748 4.812-2.617 7.426-.204.62-.409 1.246-.602 1.844-2.76 8.041-5.631 17.566-8.542 28.346-.183.727-.371 1.453-.54 2.096-.32 1.019-.611 2.023-.862 2.979-7.981 29.837-12.027 52.948-12.027 68.69 0 10.662 2.678 19.531 7.961 26.361 5.278 6.809 13.891 12.609 25.617 17.248 8.481 3.271 19.871 6.451 33.853 9.456l.91.195.735-.569c2.408-1.865 5.245-3.855 8.427-5.917 3.568-2.298 9.095-5.808 16.935-10.756 6.302-4.185 10.962-7.903 13.854-11.06 2.053-2.254 4.985-5.338 8.721-9.174 1.415-1.467 2.981-3.057 4.722-4.8.834-.864 1.708-1.764 2.604-2.68l2.07-2.072c.644-.692 1.337-1.411 2.118-2.192 4.663-4.92 8.439-9.401 11.206-13.295 1.5-2.045 2.753-3.994 3.721-5.782.534-.974.993-1.919 1.367-2.812l3.423-7.183c2.792-5.127 6.159-9.831 10.001-13.979 2.353-2.523 4.034-6.193 5.128-11.174l.382-1.566c1.376-5.7 2.243-8.02 2.729-8.963.292-.566 1.686-2.301 8.322-6.11 1.194-.688 2.521-1.42 3.942-2.177 11.874-6.32 14.786-8.45 15.95-9.508 4.388-4.022 7.792-8.045 10.113-11.949 1.449-2.415 2.899-5.67 4.438-9.97.815-2.344 2.004-6.113 3.511-11.142l2.422-6.599c.192-.454.381-.892.564-1.317l.697-1.615c.273-.596.548-1.168.818-1.713l3.644-5.952c.169-.253.336-.485.552-.755 3.555-4.768 8.116-8.693 13.538-11.654l1.899-1.006 1.85-.924c5.434-2.794 10.141-5.82 13.993-8.996l.258-.213.175-.285c.324-.529.651-1.078.975-1.635 2.959-5.062 6.365-11.947 10.119-20.462.77-1.738 1.516-3.41 2.246-5.027 5.899-13.315 9.889-22.138 11.855-26.222l.941-1.956-13.786-5.296zM199.173 189.527c0 3.029-.53 7.922-1.576 14.547-1.621 10.46-4.073 20.171-7.289 28.863l-.042.129c-.033.109-.07.22-.1.301-.699 1.81-1.409 3.572-2.111 5.242-.423 1.007-.849 1.998-1.239 2.887l-.565 1.13c-.127.211-.234.438-.318.679l-8.549 13.678c-.72.863-1.441 1.703-2.159 2.517l-1.111 1.25c-.262.217-.5.433-.707.642l-1.665 1.662c-.179.141-.339.276-.485.413l-8.397 5.87c-.723.402-1.454.768-2.174 1.083l-.12.058c-.071.037-.138.074-.203.112-.104.039-.205.081-.302.127-.185.048-.36.115-.524.2-.225.109-.449.205-.743.307-.664.254-1.328.508-1.913.737-2.45.835-5.012 1.46-7.606 1.854-1.642.242-3.328.402-5.043.478-.821.048-1.653.072-2.473.072-19.743 0-34.729-6.034-44.533-17.925-3.147-3.871-5.627-8.193-7.369-12.836-1.408-3.815-1.704-5.623-1.704-6.469 0-15.771 3.291-30.6 9.783-44.078 1.205-2.519 2.538-5.031 3.958-7.467 1.217-2.07 2.525-4.134 3.89-6.136 5.694-8.368 12.191-15.445 19.329-21.048 4.53-3.643 9.423-6.739 14.543-9.202l.301-.145.077-.076c1.434-.686 2.905-1.337 4.368-1.931.589-.234 1.175-.453 1.795-.673.547-.206 1.095-.401 1.681-.598 1.402-.5 2.805-.947 4.171-1.329l2.128-.512c3.502-.824 6.9-1.242 10.101-1.242h.101c6.479 0 12.448 1.714 17.736 5.089 11.319 7.294 17.058 21.336 17.058 41.74z"/>
  <path fill="#7B6855" d="M461.729 61.895c-.53-.531-1.088-1.062-1.657-1.579-3.368-3.113-6.291-5.699-8.688-7.688l-.115-.089c-.721-.514-1.491-1.054-2.316-1.623-2.771-1.896-5.499-3.638-8.123-5.182-4.072-2.371-8.001-4.334-11.675-5.836l-.135-.049c-8.562-2.801-18.183-2.792-28.671.055l-2.56.731-.335.292c-1.161 1.009-2.406 2.124-3.699 3.313l-.247.272c-.896 1.196-2.11 2.739-3.596 4.572l-2.032 2.442.401 1.086c.424 1.146.815 2.363 1.169 3.618l.037.118c1.927 5.529 6.092 16.072 12.38 31.334 3.431 8.326 5.821 14.21 7.101 17.467.387 1.017.674 1.792.863 2.325l.294.822.802.344c.322.138.668.299 1.053.492 4.278 2.09 8.945 4.79 13.855 8.015 4.86 3.261 6.681 4.708 7.353 5.347l.11.099c1.898 1.558 3.675 3.234 5.298 5.006 2.428 2.572 4.568 5.402 6.369 8.419 2.081 3.456 3.85 7.44 5.253 11.84l.883 2.765 2.271-1.81c2.245-1.79 5.843-4.288 10.688-7.421 3.531-2.27 6.315-4.1 8.274-5.441l.423-.289.231-.457c1.869-3.682 3.044-6.621 3.597-9.002.432-1.944.87-6.151 1.338-12.856.413-5.636.614-9.098.614-10.582.001-16.072-5.657-29.825-16.808-40.87z"/>
  <path fill="#FFF" d="M441.992 201.686c-.36-1.437-.745-2.898-1.151-4.369-7.214-27.079-13.875-46.737-19.795-58.425-1.38-2.759-2.912-5.589-4.555-8.413l-.233-.401-2.171-1.447c-9.698-7.235-10.16-7.466-10.466-7.619l-.174-.076c-5.991-2.316-11.158-4.455-15.356-6.355-9.351-4.238-10.86-6.145-11.09-6.545.013-.407.08-.748.201-1.015.678-1.498 3.343-1.812 5.459-1.812.26 0 .526.005.778.013 2.104.096 4.443.438 6.953 1.018l5.496 1.268-3.469-4.447c-1.57-2.013-3.263-4.4-5.031-7.098-.086-.156-.179-.297-.281-.424-.578-.869-1.155-1.761-1.743-2.691-2.902-4.503-6.111-9.876-9.511-15.924-5.03-9.501-8.484-16.004-10.354-19.487-.699-1.346-1.209-2.255-1.559-2.777l-.532-.8-.958-.083c-1.189-.103-2.225-.181-3.104-.232l-.287-.017-.28.065c-4.621 1.071-9.11 4.502-13.354 10.218l-1.878 2.585c-.155.235-.271.434-.349.59l-.051.105c-.471 1.098-.924 2.27-1.346 3.483l-1.936 6.645c-1.52 5.168-2.738 9.249-3.651 12.25-.456 1.512-.934 2.983-1.413 4.356-1.883 5.229-4.082 9.673-6.546 13.213-.739 1.072-1.538 2.128-2.368 3.134-2.373 2.859-5.197 5.548-8.394 7.99-2.056 1.566-4.313 3.054-6.672 4.401-.714.386-1.408.802-1.993 1.193-1.456.885-2.857 1.769-4.169 2.626-4.651 3.048-8.75 6.28-12.201 9.627l-1.371 1.372c-1.252 1.252-2.421 2.527-3.456 3.769-4.076 4.757-7.672 10.803-10.686 17.972-2.368 5.646-4.209 9.967-5.473 12.842l-.121.276-.035.299c-.312 2.713-.469 5.712-.469 8.914 0 3.373.125 8.853.381 16.682v1.447c0 .405-.055.784-.164 1.151l-.545.86-.189.19c-.582.613-1.234.9-2.053.9-1.057 0-1.938-.302-2.694-.92-1.334-1.092-2.392-3.099-3.14-5.966l-.078-.237c-.049-.121-.088-.265-.113-.424l-.042-.193c-.137-.502-.25-1.025-.339-1.559l-.049-.296-.069-.138c-.067-.323-.12-.639-.159-.954v-3.271l-2.895 1.446c-.336.168-.624.403-.852.692l-1.06.953-.657.524c-.111.068-.232.149-.365.248l-.033.017c-.217.108-.457.24-.719.396l-12.209 5.476c-.196.043-.389.108-.576.197-8.192 3.596-12.371 6.838-13.152 10.215-.364 1.623-1.008 4.738-1.914 9.264l-.039.207c-.023.087-.042.176-.055.267-.031.161-.063.331-.095.511-.05.133-.088.271-.114.413l-1.708 5.12c-.205.372-.394.729-.565 1.068l-.197.229c-1.263 1.717-2.583 3.581-3.913 5.522-3.646 5.216-7.739 11.419-12.187 18.474l-.888 1.48c-2.043 3.22-4.151 6.613-6.296 10.138-.191.335-.407.692-.633 1.058-1.84 2.881-4.047 5.892-6.546 8.926-5.13 6.076-11.812 12.555-19.861 19.254l-3.319 2.762 4.253.745c1.904.334 3.019 1.005 3.701 1.731-1.333.457-3.782 1.152-8.25 2.109-1.842.375-3.914.779-6.129 1.199-.48.067-.932.172-1.341.309l-.29.098-4.035 2.907c-8.004 5.617-14.051 9.895-18.478 13.066-1.542 1.091-2.882 2.046-4.017 2.868l-.26.225c-.173.094-.332.187-.471.27-4.664 2.656-7.028 6.061-7.028 10.116 0 .313 0 .313 1.277 5.506l.131.37c1.848 3.942 5.082 6.026 9.352 6.026 4.574 0 12.549-2.393 24.375-7.312 4.657-1.921 8.525-3.761 11.513-5.476l.891.303.847-.648c2.597-1.989 5.162-3.19 7.672-3.581.226-.041.452-.07.662-.091 1.288-.116 2.562-.021 3.861.3.758.176 1.529.439 2.291.787l.394.179h27.608c5.495 1.362 12.184 2.233 19.899 2.589l4.071.151c4.786.103 9.026.054 12.668-.15 2.498-.004 4.688-.233 6.517-.686h36.692l.198-.01c.533-.055 15.052-1.441 39.832-3.81 23.4-2.265 36.574-3.665 40.275-4.282 4.32-.712 10.063-1.677 17.227-2.897l.144-.03c8.871-2.188 16.438-4.496 22.499-6.859 9.448-3.736 16.899-8.238 22.13-13.364 1.283-1.23 2.454-2.539 3.474-3.879 5.281-6.828 7.96-15.697 7.96-26.359.008-14.977-3.653-36.621-10.869-64.316zm-69.678-6.875c-.105.549-.719 2.854-3.43 11.746-3.979 6.928-10.429 10.297-19.708 10.297-8.474 0-14.591-2.858-18.704-8.75-2.891-4.103-4.355-8.609-4.355-13.396 0-6.967 2.337-12.351 7.115-16.434 4.242-3.495 9.613-5.34 15.967-5.485 6.412.004 11.611 1.79 15.9 5.468 4.829 4.083 7.189 9.498 7.215 16.554zm-123.248 89.991v3.503h-.075v.826c-5.17 5.921-13.311 8.922-24.204 8.922-5.315 0-10.023-.96-14.009-2.859-5.701-2.657-5.701-5.313-5.701-6.186 0-.74.148-1.381.406-1.871.373-.627 1.121-1.461 3.307-1.461.644 0 2.969.225 11.318 1.725 8.958 1.526 11.176 1.703 12.066 1.703 1.35 0 2.657-.146 3.872-.431 5.213-1.187 9.216-4.876 11.899-10.969l.16-.363.009-.396c.031-1.354.068-2.627.112-3.793.132-2.637.32-4.902.557-6.739l.271-2.101-2.112-.15c-.702-.051-1.391-.077-2.051-.081-5.406-.808-9.653-2.524-12.602-5.088-.361-.323-.706-.658-1.019-.983-.494-.525-.947-1.06-1.339-1.578-1.223-1.642-1.897-3.234-2.002-4.736v-.392c0-2.437.475-4.688 1.409-6.688.814-1.73 2.016-3.326 3.556-4.727.494-.438 1.033-.873 1.606-1.293 2.048-1.503 4.388-2.673 6.956-3.476 1.178-.368 2.425-.668 3.693-.888 1.449-.24 2.969-.412 4.489-.508 5.91-.287 11.004.799 15.113 3.229.142.083.284.171.454.28.799.496 1.525 1.031 2.163 1.59l.926.923c1.926 2.096 2.862 4.556 2.862 7.521 0 3.711-1.441 7.228-4.407 10.748-.968 1.151-2.009 2.147-3.103 2.967-1.854 1.4-3.914 2.388-6.127 2.931l-.443.131c-.684.099-.852.113-.83.114h-3.454l.247 2.221c.25 2.251.438 5.137.559 8.532.01.653.021 1.334.039 2.037l.01.396.16.362c2.084 4.733 4.992 8.04 8.642 9.825 2.126 1.045 4.524 1.574 7.129 1.574.89 0 3.108-.178 12.083-1.707 8.331-1.498 10.656-1.722 11.302-1.722 2.188 0 2.937.835 3.261 1.375.305.576.452 1.216.452 1.957 0 .872 0 3.527-5.716 6.192-3.971 1.893-8.679 2.853-13.993 2.853-11.014 0-19.216-3.069-24.378-9.122l-3.523-4.129z"/>
  <g fill="#7C6854">
    <path d="M460.313 63.308c-8.023.406-14.319 1.244-18.891 2.514-.56.152-1.092.304-1.6.457-8.379 2.54-15.185 7.11-20.414 13.711-2.015 2.466-4.87 10.616-8.57 24.452.392 1.033.685 1.82.877 2.361.354.152.736.33 1.144.533 4.365 2.133 9.063 4.849 14.092 8.151 4.011 2.691 6.551 4.544 7.617 5.56 1.979 1.625 3.809 3.352 5.483 5.18 2.539 2.691 4.748 5.611 6.628 8.76 2.17 3.604 3.985 7.693 5.444 12.264 2.305-1.838 5.923-4.352 10.855-7.541 3.556-2.285 6.297-4.088 8.227-5.409 1.778-3.504 2.921-6.348 3.428-8.531.406-1.829.838-6.018 1.295-12.569.406-5.535.609-9.014.609-10.436.001-15.59-5.406-28.742-16.224-39.457zM415.258 230.508c-.012-.164-.023-.33-.039-.494-.333-4.777-.968-9.449-1.904-14.018-2.106-10.229-5.737-19.939-10.893-29.135-.548-.976-1.107-1.939-1.676-2.896-.962-1.582-1.965-3.146-3.008-4.686-.086-.141-.174-.281-.268-.418-10.767-15.742-23.943-26.788-39.533-33.136-1.746-.707-3.461-1.329-5.143-1.866-13.327-4.277-24.79-3.35-34.393 2.78-6.291 4.04-10.926 9.944-13.901 17.711-1.925 5.022-3.157 10.823-3.694 17.406-.254 2.642-.381 5.408-.381 8.304 0 3.147.533 8.1 1.6 14.854 1.677 10.816 4.189 20.719 7.543 29.707 10.562 28.186 27.318 42.277 50.272 42.277 20.464 0 35.827-6.224 46.085-18.662 3.301-4.064 5.864-8.533 7.693-13.408 1.218-3.301 1.828-5.688 1.828-7.16 0-2.285-.053-4.52-.153-6.703-.007-.158-.022-.311-.035-.457zm-44.524-23.156c-4.316 7.668-11.502 11.502-21.558 11.502-9.09 0-15.87-3.199-20.339-9.598-3.148-4.469-4.722-9.318-4.722-14.549 0-7.516 2.614-13.51 7.845-17.978 4.622-3.809 10.359-5.79 17.217-5.941 6.854 0 12.594 1.979 17.215 5.941 5.28 4.468 7.922 10.539 7.922 18.205 0 .459-1.194 4.595-3.58 12.418z"/>
  </g>
  <path fill="#56483A" d="M460.666 62.955c-.512-.514-1.051-1.028-1.613-1.538-3.349-3.095-6.251-5.664-8.653-7.657-.716-.51-1.479-1.045-2.295-1.606-2.74-1.877-5.44-3.6-8.028-5.124-4.015-2.336-7.879-4.269-11.522-5.756-8.28-2.709-17.626-2.688-27.792.071l-2.132.609c-.069.021-.135.056-.19.104-1.149 1-2.383 2.105-3.729 3.353-.906 1.21-2.133 2.769-3.641 4.628l-1.295 1.56c-.114.137-.146.326-.084.494.438 1.183.843 2.439 1.216 3.762 1.917 5.503 6.071 16.02 12.351 31.257 3.434 8.334 5.828 14.227 7.117 17.512.076.192.262.317.466.317.009 0 .019 0 .028-.001.216-.012.398-.161.455-.37 3.664-13.703 6.516-21.866 8.479-24.271 5.144-6.489 11.929-11.046 20.166-13.543.504-.151 1.032-.302 1.59-.454 4.513-1.254 10.83-2.094 18.781-2.496.197-.01.37-.135.441-.32.068-.182.024-.391-.116-.531z"/>
  <g fill="#EDEAE5">
    <path d="M307.727 267.973c-2.028 0-4.082 1.764-6.311 5.446-.578 1.304-1.134 2.513-1.666 3.63-.387.172-.734.322-1.057.46-2.461 1.132-6.08 1.706-10.76 1.706-5.621 0-10.384-.367-14.149-1.095-4.501-.867-7.694-2.267-9.497-4.161.003-.605.016-1.113.035-1.507l.039-.382c.01-.096-.03-.301-.075-.387-.044-.652-.068-1.211-.074-1.675.703-.782 1.138-1.884 1.294-3.349-.102-1.754-.152-3.129-.152-4.085 0-.189-.106-.363-.276-.447-.168-.084-.372-.067-.524.049-2.016 1.524-4.261 2.599-6.673 3.19-.065.016-.126.051-.178.099-1.177.175-1.41.188-1.454.188h-1.221c-.143 0-.276.062-.373.168-.094.104-.139.246-.123.389.255 2.287.445 5.209.568 8.675.01.649.021 1.325.037 2.023.002.065.016.13.043.188 1.938 4.401 4.606 7.457 7.93 9.084 1.92.942 4.096 1.42 6.469 1.42 1.311 0 5.174-.551 11.818-1.684 6.439-1.157 10.332-1.744 11.565-1.744 2.218 0 3.722.719 4.586 2.174.416.786.627 1.682.627 2.658 0 2.975-2.209 5.514-6.569 7.547-4.174 1.989-9.101 2.998-14.64 2.998-11.473 0-20.059-3.246-25.519-9.648-.139-.159-.355-.221-.555-.145-.006.002-.012.004-.018.008-.066-.029-.139-.043-.21-.039-.14.006-.271.069-.361.176-5.458 6.402-14.044 9.648-25.518 9.648-5.54 0-10.465-1.009-14.643-3-4.357-2.031-6.567-4.57-6.567-7.545 0-.979.211-1.873.616-2.638.877-1.478 2.381-2.194 4.597-2.194 1.233 0 5.125.587 11.571 1.745 6.64 1.132 10.504 1.683 11.813 1.683 1.235 0 2.427-.133 3.539-.394 4.725-1.075 8.378-4.478 10.859-10.11.026-.06.041-.123.042-.188.031-1.361.068-2.642.114-3.834.134-2.675.325-4.981.568-6.855.018-.137-.022-.274-.109-.381s-.214-.173-.352-.183c-.719-.051-1.419-.069-2.021-.072-5.762-.841-10.314-2.686-13.525-5.477-.39-.349-.762-.709-1.112-1.072-.531-.564-1.019-1.141-1.449-1.711-1.417-1.898-2.191-3.781-2.301-5.596-.015-.242-.199-.438-.438-.467-.239-.035-.465.115-.538.346-.259.823-.42 1.67-.48 2.549v.572c0 1.541.751 3.377 2.294 5.611 1.503 2.229 3.265 4.04 5.241 5.393.486.324 1.688.928 3.528 1.768 1.998 1.176 2.594 2.063 2.75 2.622.045.137.121.558.125 1.848-.319.577-.71 1.12-1.158 1.612-2.317 2.459-6.86 3.738-13.5 3.804h-.988c-1.404-.45-3.029-.975-4.853-1.567-7.274-2.744-8.36-4.559-8.36-5.396 0-2.117 2.236-6.26 6.644-12.312 1.758-2.391 3.893-5.141 6.342-8.166.97-1.17 1.985-2.389 3.052-3.664.607-.756 1.213-1.488 1.818-2.195.029-.034.054-.07.073-.111.898-1.91 2.217-3.664 3.917-5.209.529-.471 1.105-.935 1.715-1.381 2.182-1.602 4.67-2.846 7.396-3.697 1.242-.39 2.553-.703 3.897-.936.184-.032.335-.164.392-.342s.009-.373-.123-.506l-.086-.086c-.004-.035-.012-.069-.024-.104-.938-2.72-1.664-5.016-2.158-6.824 1.858-5.156 5.778-9.945 11.659-14.244.912-.686 1.982-1.439 3.185-2.248.584.705 1.151 1.377 1.7 2.013 2.296 8.411 6.291 12.675 11.879 12.675 5.121 0 8.746-4.85 10.771-14.413 1.019-4.882 1.534-10.194 1.526-15.883-.558-3.097-1.117-6.22-1.675-9.372-.592-3.241-1.021-5.794-1.281-7.59 2.259-11.34 3.781-17.966 4.525-19.702.844-2.032 4.125-6.63 9.748-13.659.246-.294.516-.588.812-.884 2.606-2.658 6.22-6.27 10.754-10.753 1.646-1.8 2.925-3.524 3.8-5.125.108-.199.07-.445-.093-.602-.164-.157-.413-.182-.604-.066-1.441.876-2.83 1.751-4.127 2.6-4.571 2.997-8.596 6.168-11.963 9.434l-1.371 1.371c-1.221 1.22-2.357 2.461-3.377 3.684-3.977 4.638-7.488 10.551-10.44 17.575-2.373 5.655-4.218 9.984-5.481 12.865-.021.046-.033.094-.039.144-.306 2.657-.461 5.598-.461 8.743 0 3.355.125 8.818.381 16.682v1.447c0 .605-.094 1.193-.252 1.681l-.781 1.279-.275.276c-.874.92-1.9 1.367-3.143 1.367-1.416 0-2.607-.412-3.644-1.259-1.585-1.297-2.811-3.565-3.661-6.807-.089-.224-.156-.47-.211-.783-.148-.549-.273-1.122-.369-1.703-.009-.049-.047-.103-.069-.146 0-.036-.005-.072-.013-.107-.097-.441-.17-.886-.217-1.264v-.152c0-.173-.09-.334-.236-.426-.147-.09-.332-.1-.486-.021-.165.082-.301.205-.396.357l-1.183 1.063-.782.637c-.119.061-.285.173-.501.342-.036.009-.071.021-.106.039-.215.105-.455.238-.666.372l-12.487 5.6c-.137.015-.269.054-.384.111-7.638 3.348-11.668 6.351-12.323 9.185-.362 1.61-1.003 4.717-1.917 9.326v.063c-.045.07-.069.146-.065.222-.045.228-.091.476-.137.743-.047.085-.084.191-.097.328l-1.77 5.334c-.258.465-.491.902-.665 1.261-.084.127-.165.229-.292.362-1.253 1.703-2.563 3.554-3.892 5.494-3.633 5.195-7.713 11.379-12.131 18.385l-.907 1.515c-2.039 3.211-4.142 6.597-6.26 10.074-.2.351-.425.726-.671 1.121-1.872 2.933-4.116 5.991-6.664 9.088-5.187 6.144-11.932 12.683-20.048 19.438-.15.125-.213.324-.163.514.05.188.205.33.396.363 2.88.504 4.731 1.779 5.646 3.896-.939.555-3.52 1.473-10.153 2.894-1.849.377-3.928.782-6.217 1.215-.391.056-.753.14-1.078.246-.048.018-.093.039-.134.069l-3.803 2.74c-8 5.615-14.044 9.889-18.473 13.063-1.538 1.087-2.872 2.039-4.07 2.917l-.146.147c-.007.007-.013.014-.019.021-.23.119-.444.24-.637.355-4.161 2.37-6.271 5.336-6.271 8.813 0 .097 0 .133 1.267 5.239 1.606 3.426 4.295 5.163 7.994 5.163 4.373 0 12.16-2.354 23.804-7.198 4.856-2.002 8.833-3.909 11.824-5.671.21.013.419.054.623.122.159.053.332.024.465-.077 2.798-2.143 5.592-3.441 8.316-3.864.267-.05.532-.084.794-.109 1.454-.134 2.903-.022 4.335.333.855.198 1.72.495 2.573.882.065.029.135.045.207.045h27.36c5.432 1.364 12.083 2.235 19.769 2.589.222.026.404-.112.484-.307.081-.194.032-.418-.123-.561-1.005-.925-2.219-1.945-3.61-3.036l-.838-.646c-6.648-5.238-8.778-7.802-9.306-9.055 3.622-2.155 6.908-4.116 9.799-5.856 2.971-1.237 5.239-1.865 6.739-1.865 1.351 0 6.053.332 13.976.987 7.957.657 14.146.99 18.397.99 13.233 0 23.685-3.947 31.021-11.692.646-.541 1.166-1.117 1.509-1.66 4.575-5.399 6.896-10.532 6.896-15.254 0-3.615-1.093-6.674-3.253-9.098-1.004-1.101-2.08-1.657-3.203-1.657zM374.768 106.516l.453.151c.053.018.106.026.159.026.19 0 .372-.111.455-.294.81-1.787 3.106-2.692 6.826-2.692.276 0 .562.005.848.015 2.194.1 4.624.455 7.224 1.055.041.01.08.011.123.013.306.01.508-.221.508-.5 0-.161-.075-.305-.193-.396-1.591-2.046-3.302-4.464-5.059-7.138-.074-.152-.154-.27-.184-.285-.607-.911-1.214-1.846-1.837-2.831-.25-.351-.478-.677-.678-.978-.097-.143-.228-.234-.431-.222-3.896.103-7.356.703-10.283 1.781-.948.338-1.782.709-2.477 1.101-.216.121-.416.241-.589.354-1.877 1.153-2.827 2.565-2.827 4.196.001 2.81 2.607 4.984 7.962 6.644zM318.709 120.252c.057 0 .113-.009.169-.029 3.576-1.28 8.158-4.073 13.62-8.303 3.049-2.38 6.441-5.259 10.083-8.555.033-.03.063-.064.086-.103 1.505-2.37 2.867-5.38 4.056-8.957l.42-1.374c.711-2.336 1.752-5.79 3.113-10.334.449-1.234.866-2.81 1.238-4.676.332-1.565.643-3.384.91-5.35.115-.454.25-.896.406-1.335 1.104-3.256 3.138-6.074 6.045-8.375 1.931-1.524 3.658-2.896 5.184-4.115.188-.149.241-.409.131-.621-.674-1.298-1.156-2.16-1.475-2.637-.084-.126-.223-.208-.373-.221-1.174-.102-2.194-.179-3.061-.229-.048-.001-.097.001-.144.012-4.265.988-8.462 4.229-12.479 9.638l-1.842 2.532c-.113.173-.199.318-.27.46-.459 1.064-.898 2.203-1.317 3.409l-1.903 6.55c-1.521 5.174-2.74 9.26-3.654 12.26-.463 1.534-.946 3.026-1.438 4.431-1.926 5.354-4.187 9.915-6.721 13.558-.765 1.108-1.589 2.198-2.449 3.24-2.446 2.946-5.353 5.713-8.64 8.225-.195.15-.254.42-.137.636.092.167.262.263.442.263z"/>
    <path d="M268.316 237.093c-.127.198-.099.459.068.625l.608.608c.096.096.224.146.354.146.063 0 .129-.014.19-.039.187-.076.31-.26.31-.461v-.229c0-.46-.482-.681-.935-.849-.218-.081-.466.001-.595.199zM416.966 232.656c-.094-.199-.187-.385-.28-.561-.312-.57-.654-1.063-1.02-1.467-.143-.156-.366-.207-.563-.127-.195.08-.318.273-.309.484.102 2.181.152 4.428.152 6.681 0 1.403-.604 3.755-1.797 6.983-1.801 4.802-4.362 9.266-7.61 13.267-10.112 12.263-25.487 18.479-45.699 18.479-22.616 0-39.374-14.114-49.805-41.951-3.325-8.913-5.854-18.875-7.517-29.61-1.059-6.696-1.595-11.668-1.595-14.774 0-2.865.128-5.644.38-8.256.024-.265-.162-.503-.426-.541-.26-.046-.511.135-.563.396-.104.511-.204 1.047-.311 1.628-.761 5.326-1.224 11.316-1.376 17.818 0 4.596 1.877 13.433 5.58 26.267 1.922 6.623 4.152 14.032 6.617 21.972.053.264.616 2.779 1.688 7.518 1.684 5.457 4.166 10.503 7.385 14.998 10.207 14.138 26.541 21.306 48.547 21.306 19.972 0 34.348-8.912 42.727-26.487 3.356-7.013 5.512-14.227 6.405-21.441.331-2.618.499-5.293.499-7.947.005-1.65-.373-3.216-1.109-4.635z"/>
  </g>
  <g fill="#FFF">
    <path d="M202.164 282.914l.076-.227c.151-.154.305-.281.457-.381l.076-.076c-.204.1-.355.149-.457.149l-.152.535zM162.478 183.053c-2.996-2.488-6.729-3.786-11.197-3.886-4.418 0-8.151 1.293-11.198 3.886-3.453 2.945-5.18 6.904-5.18 11.881 0 .308.787 2.998 2.361 8.076 2.793 4.977 7.465 7.465 14.016 7.465 5.941 0 10.359-2.082 13.254-6.246 2.031-2.944 3.047-6.119 3.047-9.521.001-4.825-1.701-8.71-5.103-11.655zM239.411 272.098c0-1.117-.05-1.828-.151-2.133-.253-.914-1.244-1.879-2.971-2.895-1.879-.861-3.047-1.447-3.504-1.752-1.93-1.32-3.63-3.072-5.104-5.256-1.473-2.133-2.209-3.91-2.209-5.332v-.572c.057-.814.21-1.613.457-2.398v-.457c0-2.742.532-5.256 1.6-7.541-.609.711-1.219 1.447-1.829 2.209-1.061 1.268-2.076 2.486-3.047 3.656-2.459 3.039-4.579 5.768-6.36 8.189-4.494 6.17-6.741 10.371-6.741 12.606 0 1.726 2.896 3.681 8.684 5.863 1.879.61 3.529 1.144 4.951 1.6h1.066c6.817-.065 11.438-1.387 13.863-3.961.51-.557.942-1.164 1.295-1.826zM360.375 183.053c-3.047-2.592-6.779-3.886-11.197-3.886-4.469.1-8.201 1.397-11.197 3.886-3.402 2.945-5.104 6.83-5.104 11.654 0 3.402 1.016 6.576 3.047 9.521 2.895 4.164 7.313 6.246 13.254 6.246 6.551 0 11.223-2.488 14.016-7.466 1.574-5.077 2.361-7.771 2.361-8.075 0-4.976-1.727-8.935-5.18-11.88zM258.455 242.314c2.641 2.184 4.037 3.274 4.189 3.274.762 0 1.295-.127 1.601-.381.151-.254.253-.381.304-.381.104-.254.204-.433.305-.533.051-.051.076-.433.076-1.144 0-1.287-.494-2.379-1.484-3.274-.846-.778-2.051-1.412-3.618-1.903-3.453-1.017-5.181-.533-5.181 1.446 0-.166.864.455 2.59 1.867.367.311.773.654 1.218 1.029z"/>
    <path d="M440.052 202.172c-.355-1.422-.736-2.869-1.144-4.342-7.211-27.067-13.761-46.416-19.651-58.045-1.371-2.742-2.87-5.51-4.493-8.302-.611-.407-1.22-.813-1.83-1.219-6.397-4.773-9.801-7.262-10.207-7.465-6.043-2.336-11.197-4.468-15.461-6.399-8.178-3.707-12.267-6.449-12.267-8.227 0-.762.128-1.421.381-1.98-.151-.051-.303-.102-.456-.152-5.078-1.574-7.617-3.631-7.617-6.17 0-1.451.862-2.708 2.59-3.771.177-.115.367-.229.571-.343.677-.382 1.476-.737 2.399-1.066 2.895-1.066 6.271-1.65 10.13-1.752.204.305.435.635.687.99-2.945-4.57-6.145-9.928-9.598-16.072-5.027-9.497-8.48-15.997-10.359-19.5-1.522 1.218-3.25 2.589-5.181 4.113-2.999 2.373-5.067 5.242-6.208 8.607-.158.446-.298.902-.418 1.372-.277 2.013-.583 3.804-.915 5.37-.37 1.856-.776 3.392-1.219 4.608-1.37 4.57-2.411 8.023-3.122 10.359-.143.465-.281.922-.42 1.372-1.178 3.544-2.51 6.49-3.999 8.836-3.655 3.309-7.009 6.152-10.056 8.531-5.444 4.217-9.938 6.959-13.48 8.227-2.134 1.625-4.443 3.149-6.934 4.57-.658.354-1.295.736-1.904 1.143-.862 1.574-2.105 3.25-3.73 5.027-4.57 4.52-8.15 8.1-10.742 10.741-.303.304-.582.609-.836.914-5.688 7.109-8.963 11.705-9.828 13.787-.762 1.776-2.284 8.404-4.569 19.88.255 1.778.687 4.343 1.296 7.693.559 3.15 1.117 6.272 1.675 9.371 0 5.586-.507 10.815-1.522 15.69-1.979 9.345-5.407 14.017-10.283 14.017-5.383 0-9.191-4.14-11.426-12.416-.66-.762-1.346-1.573-2.057-2.438-1.371.914-2.564 1.752-3.58 2.515-6.044 4.418-10.004 9.293-11.884 14.625.507 1.879 1.245 4.215 2.209 7.008 0 .052.025.127.076.229.052.051.103.102.153.151 1.523-.254 3.098-.432 4.722-.532 6.349-.306 11.757.862 16.226 3.504.162.096.328.196.494.305.913.568 1.739 1.178 2.477 1.828.406.152.609.279.609.381v.229c.141.139.279.279.42.42 2.26 2.459 3.39 5.42 3.39 8.873 0 4.164-1.625 8.176-4.876 12.035-1.066 1.27-2.209 2.363-3.428 3.275 0 .967.051 2.336.152 4.113-.152 1.371-.585 2.412-1.296 3.123 0 .508.025 1.143.076 1.903 0 .103.024.205.077.306-.012.116-.025.244-.039.381-.025.465-.038 1.049-.038 1.752 1.858 2.057 5.159 3.543 9.901 4.457 3.82.736 8.567 1.104 14.246 1.104 4.771 0 8.43-.584 10.969-1.752.355-.152.762-.328 1.219-.533.559-1.168 1.143-2.436 1.751-3.809 3.2-5.281 6.095-6.5 8.685-3.656 2.084 2.338 3.123 5.256 3.123 8.76 0 4.623-2.261 9.601-6.777 14.933-.356.557-.84 1.09-1.448 1.6-7.313 7.717-17.545 11.576-30.698 11.576-4.266 0-10.385-.33-18.357-.988-7.972-.66-12.645-.989-14.015-.989-1.574 0-3.885.635-6.932 1.903-3.047 1.828-6.449 3.857-10.207 6.094.405 1.728 3.604 4.951 9.597 9.673.284.219.564.434.84.647 1.367 1.072 2.562 2.074 3.579 3.01 1.321.052 2.666.101 4.038.15 4.772.104 8.962.053 12.568-.15 2.487 0 4.596-.229 6.321-.686h36.943c.51-.051 13.786-1.32 39.84-3.81 23.104-2.235 36.486-3.655 40.143-4.266 4.316-.711 10.056-1.676 17.215-2.896 8.837-2.183 16.25-4.441 22.243-6.777 9.242-3.656 16.401-7.973 21.479-12.949 1.219-1.168 2.311-2.389 3.275-3.657 5.027-6.5 7.542-14.879 7.542-25.138-.003-14.881-3.609-36.158-10.82-63.834zm-22.967 43c-.892 7.197-3.012 14.293-6.36 21.289-8.328 17.469-22.42 26.203-42.274 26.203-21.938 0-37.985-7.031-48.142-21.098-3.199-4.471-5.638-9.422-7.313-14.854-1.066-4.726-1.626-7.213-1.678-7.467-2.487-8.022-4.696-15.361-6.627-22.015-3.707-12.848-5.561-21.557-5.561-26.127.152-6.5.609-12.416 1.371-17.748.102-.559.202-1.092.305-1.6.537-6.583 1.771-12.384 3.694-17.406 2.976-7.767 7.61-13.671 13.901-17.711 9.603-6.13 21.064-7.057 34.393-2.78 1.682.537 3.396 1.159 5.143 1.866 15.59 6.348 28.768 17.394 39.532 33.136.095.138.183.277.269.418 1.043 1.542 2.046 3.104 3.008 4.686.568.955 1.128 1.92 1.676 2.895 5.154 9.195 8.785 18.906 10.893 29.136.938 4.567 1.571 9.239 1.904 14.019.016.164.027.329.039.493.016.146.028.3.037.457.343.379.659.836.952 1.371.088.164.177.343.267.533.711 1.371 1.066 2.844 1.066 4.418 0 2.648-.165 5.277-.495 7.886z"/>
  </g>
  <g fill="#CFC4AD">
    <path d="M215.693 208.055c-.199-.106-.447-.066-.602.098-.471.5-.957 1.023-1.459 1.563l-.106.114c-5.445 5.875-11.739 13.949-18.707 24.003-1.021-.226-1.85-.451-2.466-.673-.128-.047-.271-.036-.396.023-.123.063-.214.174-.253.307-.042.143-.09.283-.139.418-.705 1.822-1.42 3.601-2.127 5.281-.427 1.017-.857 2.018-1.281 2.978l-.578 1.164c-.119.178-.212.383-.276.61l-8.681 13.896c-.758.91-1.517 1.796-2.275 2.654l-1.159 1.313c-.27.217-.511.432-.724.646l-1.702 1.706c-.223.17-.418.335-.517.444l-8.567 5.992c-.793.446-1.598.85-2.422 1.211-.089.047-.167.094-.233.143-.165.05-.319.113-.458.193-.127.02-.25.06-.366.118-.285.142-.569.259-.871.362-.661.252-1.323.506-1.963.755-2.534.864-5.183 1.511-7.872 1.92-1.693.251-3.431.415-5.174.49-.85.05-1.711.075-2.561.075-20.212 0-35.588-6.219-45.696-18.479-3.25-3.998-5.812-8.461-7.612-13.264-1.193-3.23-1.797-5.581-1.797-6.987 0-15.998 3.341-31.046 9.93-44.726 1.223-2.557 2.575-5.106 4.018-7.58 1.233-2.098 2.56-4.189 3.943-6.219 5.78-8.496 12.383-15.686 19.629-21.373 4.619-3.715 9.61-6.872 14.833-9.384.05-.024.095-.056.134-.095l.018-.018c1.533-.74 3.111-1.441 4.69-2.082.607-.241 1.21-.467 1.821-.683.564-.212 1.129-.413 1.706-.606 1.435-.511 2.871-.969 4.27-1.361.031-.009.142-.043.17-.058.043 0 .086-.005.127-.017l1.476-.39c.141-.046.283-.031.416-.063 3.614-.851 7.128-1.282 10.472-1.282h.01c.254-.026.51-.22.51-.5 0-.08-.019-.156-.052-.223-1.04-5.729-1.567-9.319-1.567-10.669 0-1.342 1.434-4.663 8.262-12.856 1.574-1.875 2.948-3.544 4.083-4.96.108-.135.139-.317.081-.481-.058-.164-.197-.285-.367-.321-.181-.038-.349-.066-.459-.077-.471-.097-.846-.15-1.167-.163h-.114c-2.577 0-5.172.052-7.714.153-1.899.074-3.813.177-5.693.306-1.821.14-3.646.306-5.424.496-5.024.542-9.924 1.328-14.519 2.325-.423.052-.853.133-1.264.236-1.429.314-2.859.662-4.244 1.032-19.565 4.999-35.882 14.363-48.52 27.858-2.176 2.682-4.177 5.196-5.905 7.425-.157.155-.275.35-.345.56-.862 2.298-1.735 4.777-2.596 7.37-.204.617-.407 1.24-.608 1.861-2.749 8.008-5.609 17.502-8.505 28.225-.185.731-.375 1.467-.563 2.179-.313.996-.597 1.979-.843 2.918-7.947 29.711-11.977 52.691-11.977 68.303 0 10.324 2.572 18.885 7.646 25.443 5.111 6.594 13.511 12.234 24.971 16.769 8.408 3.24 19.723 6.399 33.629 9.39.035.007.07.011.105.011.11 0 .218-.036.306-.104 2.441-1.892 5.313-3.907 8.534-5.993 3.567-2.296 9.098-5.809 16.917-10.743 6.202-4.118 10.769-7.758 13.575-10.819 2.064-2.267 5.007-5.363 8.75-9.207 1.42-1.471 2.992-3.065 4.723-4.799.836-.867 1.712-1.769 2.622-2.697l2.032-2.032c.655-.706 1.363-1.438 2.129-2.205 4.615-4.869 8.346-9.295 11.085-13.149 1.459-1.988 2.676-3.88 3.615-5.615.518-.944.961-1.857 1.307-2.691l3.455-7.251c2.857-5.255 6.305-10.077 10.247-14.332 2.135-2.29 3.74-5.828 4.768-10.506l.383-1.573c.113-.514.228-1.006.341-1.477.049-.218-.053-.447-.253-.554zM68.326 127.542c2.11-2.461 4.414-5.072 6.845-7.758 3.745-4.093 10.993-8.538 21.551-13.214.746-.347 1.475-.649 2.166-.896.159-.057.278-.189.318-.352.501-2.052 1.263-4.389 2.265-6.944.429-1.096.913-2.255 1.439-3.446.072-.164.051-.354-.055-.499s-.279-.222-.46-.2c-1.938.225-3.97.339-6.036.339-5.122 0-11.475-2.055-18.875-6.106-2.873-1.613-8.858-5.476-17.794-11.483-4.732-3.105-7.503-6.863-8.234-11.147-.305-2.437-.533-4.289-.686-5.561-.259-2.066-.705-3.901-1.327-5.456-.059-.148-.186-.259-.339-.299-.155-.04-.318-.004-.442.098-2.236 1.83-4.833 4.118-7.713 6.796-.565.513-1.104 1.027-1.615 1.539-5.814 5.763-10.133 12.359-12.836 19.602-2.347 6.172-3.537 12.972-3.537 20.211 0 1.427.206 4.95.611 10.47.456 6.542.896 10.795 1.307 12.647.514 2.213 1.681 5.121 3.469 8.644.038.075.094.139.164.187 1.928 1.32 4.7 3.143 8.237 5.416 5.843 3.777 9.873 6.633 11.973 8.484 1.034.926 2.414 1.847 4.1 2.736.075.039.154.058.233.058.177 0 .349-.094.439-.261 2.458-4.514 6.823-11.81 12.928-21.624.596-.694 1.223-1.347 1.904-1.981zM129.801 96.708c1.508-.237 2.989-.453 4.436-.645 1.352-.157 2.681-.296 3.987-.417.038-.004.076-.012.112-.024.102-.034.202-.051.354-.054 9.006-.983 17.427-1.174 25-.57 1.73.152 3.453.343 5.115.568.358.052.743.103 1.124.149.556.102 1.086.202 1.628.31.403.05.78.1 1.114.148 5.068.929 8.985 2.19 11.643 3.747.482.286.928.583 1.323.881.56.427 1.047.878 1.449 1.34 1.045 1.205 1.554 2.506 1.554 3.976 0 .682-.153 1.385-.455 2.088-.066.155-.05.333.042.473.093.14.25.224.417.224h.002c3.756-.014 6.337-2.051 7.672-6.059.572-1.766.862-4.021.862-6.705 0-2.036-1.117-3.913-3.318-5.576-2.767-2.125-5.023-5.035-6.709-8.656-.487-1.021-1.14-3.57-1.941-7.576-.167-.832-.355-1.616-.561-2.332.011-1.37.027-1.644.03-1.672.597-3.379 2.985-8.68 7.099-15.755 1.168-1.995 5.208-4.984 12.005-8.883.155-.089.251-.331.251-.51 0-.15-.067-.292-.183-.387-.117-.095-.27-.133-.416-.104-.771.155-1.55.336-2.3.537l-6.562 1.526c-1.562.403-3.131.841-4.651 1.296-2.648.713-5.272 1.511-7.819 2.377l-14.122 5.421-3.657 1.677c-.811.375-1.614.757-2.408 1.146-1.235.599-2.446 1.211-3.633 1.835-.044.023-.085.053-.121.089-.554.554-1.132 1.107-1.745 1.668-2.491 2.39-4.698 4.545-6.555 6.402-8.832 8.627-10.127 9.99-10.366 10.313-1.422 2.438-2.768 4.749-4.033 6.926-.968 1.606-1.906 3.14-2.818 4.608-1.168 1.932-2.284 3.745-3.347 5.439-.104.166-.102.377.006.541.108.165.305.253.495.22zM267.492 141.534c-.188-.138-.465-.108-.643.044-.979.849-2.025 1.817-3.108 2.878-3.558 3.507-7.337 7.724-11.235 12.535-3.408 4.232-5.372 6.93-6 8.24-2.613 5.226-7.618 12.579-14.875 21.853-1.91 2.422-3.547 4.507-4.914 6.247-.148.188-.142.455.015.636.098.113.237.174.378.174.085 0 .171-.021.25-.066 1.209-.696 2.55-1.438 3.985-2.201 8.803-4.686 13.919-7.725 15.641-9.29 4.28-3.923 7.591-7.831 9.841-11.614 1.379-2.297 2.827-5.556 4.31-9.69.809-2.323 1.989-6.072 3.506-11.127l2.461-6.706c.194-.458.385-.9.57-1.329.094-.215.008-.446-.182-.584zM330.332 55.202c-.053-.13-.155-.232-.285-.283l-4.465-1.717-.838-.305c-.171-.063-.363-.026-.5.094-3.944 3.457-7.061 7.547-9.262 12.155-5.672 11.735-9.338 19.535-10.896 23.189-3.13 2.783-4.759 5.977-4.843 9.494-3.054 5.331-7.228 11.919-12.408 19.585-.618.914-1.215 1.789-1.788 2.625-.133.194-.113.454.049.625.098.104.229.157.363.157.089 0 .178-.023.258-.071.608-.366 1.233-.716 1.881-1.054l1.932-1.022 1.833-.917c5.338-2.745 9.956-5.712 13.726-8.819.042-.035.079-.077.108-.125.317-.518.638-1.055.957-1.608 2.932-5.012 6.311-11.847 10.042-20.312.771-1.741 1.52-3.417 2.246-5.027 5.906-13.33 9.902-22.167 11.877-26.266.059-.123.065-.268.013-.398z"/>
  </g>
  <g fill="#E9E4DA">
    <path d="M108.547 50.359c-1.523-1.879-2.743-3.428-3.657-4.647-1.269-1.168-2.488-2.26-3.656-3.275-.711-.203-1.421-.406-2.133-.609-10.105-2.743-19.271-2.768-27.498-.077-5.891 2.387-12.365 5.993-19.424 10.817-.813.559-1.575 1.092-2.286 1.6-.305.253-.61.533-.914.837.609 1.523 1.041 3.301 1.295 5.332.152 1.27.381 3.123.686 5.561.762 4.469 3.58 8.303 8.456 11.503 8.988 6.042 14.93 9.876 17.824 11.501 7.516 4.114 13.889 6.17 19.12 6.17 2.093 0 4.124-.114 6.094-.342 1.699-3.852 3.882-8.155 6.55-12.912 3.961-7.059 7.719-12.898 11.273-17.52.114-.093.229-.182.343-.267-1.689-1.805-3.632-3.95-5.828-6.436-2.487-2.793-4.569-5.205-6.245-7.236zM318.175 50.892c-2.538-.863-5.129-1.65-7.771-2.361-1.522-.457-3.071-.889-4.646-1.295l-6.553-1.523c-.763-.203-1.522-.381-2.285-.534v.077c-11.478-2.387-24.628-3.961-39.456-4.723h-4.724v.076h-5.027v-.076H242.99c-14.828.762-27.979 2.336-39.458 4.723-6.906 3.961-10.968 6.982-12.188 9.064-4.164 7.16-6.55 12.467-7.16 15.92-.017.138-.03.748-.038 1.828.21.724.401 1.511.571 2.361.813 4.062 1.472 6.627 1.98 7.693 1.727 3.708 4.012 6.653 6.855 8.837 2.083 1.574 3.123 3.3 3.123 5.179 0 2.641-.278 4.824-.837 6.551-1.265 3.795-3.665 5.7-7.199 5.713-.249.58-.592 1.164-1.028 1.752-.051.051-.077.102-.077.152l-.076.077c-.051.051-.102.101-.153.152-.152.152-.304.305-.457.457l-2.818 1.676c-.406.101-.813.178-1.219.229-.458.05-.914.076-1.372.076-.609 0-1.93-.253-3.96-.762-.102-.05-.203-.076-.305-.076h-.076c-.051 0-.127-.025-.229-.076-.655-.164-1.226-.291-1.714-.381-1.141 1.423-2.499 3.074-4.075 4.952-5.586 6.703-8.379 11.095-8.379 13.178 0 1.398.533 5.029 1.599 10.893 6.929-.013 13.226 1.791 18.892 5.408 11.984 7.719 17.977 22.193 17.977 43.42 0 3.146-.533 8.098-1.599 14.854-1.648 10.635-4.111 20.387-7.389 29.25.707.254 1.66.508 2.856.762 7.065-10.211 13.35-18.285 18.853-24.223.539-.58 1.06-1.141 1.563-1.676-.113.473-.229.969-.343 1.484 1.148-4.756 2.114-7.894 2.894-9.406.826-1.609 3.859-3.92 9.104-6.932 1.366-1.74 3.004-3.824 4.913-6.246 7.313-9.346 12.289-16.657 14.93-21.938.609-1.271 2.59-3.987 5.942-8.15 3.908-4.825 7.643-8.989 11.195-12.493 1.085-1.063 2.114-2.016 3.086-2.856.547-1.271 1.092-2.452 1.639-3.542l3.73-6.094c.204-.305.406-.584.609-.837 3.744-5.023 8.479-9.099 14.207-12.227-.653.341-1.287.696-1.904 1.067.574-.837 1.171-1.713 1.79-2.628 5.25-7.769 9.414-14.345 12.491-19.729.046-3.47 1.633-6.58 4.762-9.331 1.538-3.621 5.182-11.377 10.932-23.271 2.182-4.57 5.229-8.569 9.141-11.997l.838.305-7.234-2.783z"/>
  </g>
  <g fill="#181818">
    <path d="M366.393 176.729c-4.621-3.962-10.358-5.941-17.215-5.941-6.854.151-12.594 2.133-17.216 5.941-5.229 4.468-7.845 10.462-7.845 17.978 0 5.23 1.572 10.08 4.722 14.549 4.47 6.398 11.249 9.598 20.339 9.598 10.055 0 17.24-3.834 21.557-11.502 2.387-7.822 3.582-11.959 3.582-12.418-.003-7.666-2.643-13.737-7.924-18.205zm-3.202 26.281c-2.791 4.977-7.463 7.465-14.015 7.465-5.942 0-10.36-2.082-13.254-6.246-2.032-2.944-3.047-6.119-3.047-9.521 0-4.824 1.7-8.709 5.103-11.653 2.996-2.49 6.729-3.787 11.198-3.887 4.417 0 8.15 1.293 11.197 3.887 3.453 2.944 5.18 6.903 5.18 11.881.002.304-.785 2.996-2.362 8.074zM292.962 283.676c-1.271 0-5.155.584-11.655 1.752-6.551 1.117-10.459 1.676-11.729 1.676-2.309 0-4.391-.457-6.247-1.369-3.229-1.579-5.795-4.524-7.692-8.836-.018-.696-.029-1.371-.039-2.02-.123-3.506-.313-6.412-.57-8.723h1.22c.151 0 .735-.076 1.751-.229v-.074c2.489-.611 4.773-1.703 6.855-3.277 1.219-.912 2.36-2.006 3.428-3.275 3.251-3.859 4.876-7.871 4.876-12.035 0-3.453-1.13-6.414-3.39-8.873-.141-.141-.279-.281-.42-.42-.203-.203-.406-.406-.609-.608-.736-.65-1.563-1.261-2.477-1.828-.166-.106-.332-.209-.494-.306-4.469-2.641-9.877-3.809-16.226-3.504-1.624.103-3.198.279-4.722.533-1.381.238-2.702.557-3.962.951-2.793.873-5.307 2.131-7.542 3.771-.621.455-1.206.926-1.751 1.41-1.76 1.6-3.106 3.391-4.037 5.369-1.067 2.284-1.6 4.799-1.6 7.541v.457c.117 1.924.918 3.879 2.399 5.864.439.582.933 1.166 1.485 1.754.362.377.743.746 1.143 1.104 3.304 2.871 7.899 4.738 13.786 5.598.661 0 1.347.025 2.058.076-.245 1.896-.436 4.195-.571 6.895-.046 1.201-.083 2.484-.114 3.848-2.425 5.507-5.929 8.781-10.513 9.824-1.083.254-2.226.381-3.428.381-1.269 0-5.179-.559-11.729-1.676-6.501-1.168-10.384-1.752-11.655-1.752-2.386 0-4.062.814-5.027 2.439-.457.861-.686 1.828-.686 2.893 0 3.201 2.285 5.867 6.855 7.998 4.265 2.033 9.216 3.047 14.854 3.047 11.679 0 20.313-3.273 25.898-9.824l.075.076v.228c.052-.052.101-.076.153-.076l.076.076v-.228c.05 0 .074-.025.074-.076 5.588 6.551 14.22 9.824 25.899 9.824 5.638 0 10.588-1.014 14.854-3.047 4.57-2.131 6.854-4.797 6.854-7.998 0-1.064-.229-2.031-.687-2.893-.96-1.624-2.635-2.438-5.021-2.438zm-38.316-44.256c0-1.98 1.727-2.463 5.18-1.447 1.568.492 2.773 1.125 3.617 1.904.992.896 1.486 1.988 1.486 3.275 0 .711-.025 1.092-.076 1.143-.102.102-.203.279-.306.533-.051 0-.151.127-.304.381-.305.254-.839.381-1.602.381-.151 0-1.549-1.092-4.188-3.275-.445-.375-.853-.719-1.22-1.026-1.721-1.414-2.587-2.035-2.587-1.869z"/>
    <path d="M494.591 70.773c-4.215-9.649-12.439-20.465-24.679-32.45-7.872-7.718-15.77-12.873-23.691-15.463-2.029-.66-4.164-1.193-6.396-1.599-9.142-1.829-19.983-1.651-32.526.533-6.854 2.082-15.717 5.916-26.585 11.502-.413.218-.818.434-1.218.647-.177-.167-.353-.331-.533-.495-4.317-3.859-9.547-6.068-15.69-6.627-6.196-.559-11.426.736-15.692 3.884-.457.355-.863.711-1.22 1.067-.101.05-.176.102-.228.152-.052.051-.077.126-.077.229-.884.718-1.771 1.543-2.666 2.476-2.955-1.904-6.229-3.821-9.824-5.751-1.575-1.067-3.303-2.209-5.182-3.428-1.422-.508-2.869-.965-4.341-1.371-2.896-1.27-8.481-2.488-16.758-3.657-4.978-.71-8.785-.838-11.427-.381-4.164-.101-8.354.077-12.568.533-12.137-.152-23.057.077-32.754.686-9.802-.609-20.924-.838-33.364-.686-4.215-.457-8.405-.634-12.569-.533-2.641-.457-6.449-.33-11.426.381-8.277 1.168-13.864 2.387-16.758 3.657-1.473.406-2.919.863-4.342 1.371-1.879 1.218-3.605 2.361-5.18 3.428-4.824 2.589-9.065 5.154-12.721 7.693-.863.559-1.727 1.118-2.589 1.676-1.778 1.473-3.631 3.021-5.561 4.646-.506.426-1.001.844-1.485 1.257-3.395-1.76-7.139-3.423-11.235-4.989-3.047-1.168-5.942-2.159-8.684-2.971-1.625-.914-3.402-1.879-5.332-2.894-10.867-5.586-19.729-9.42-26.585-11.502-15.641-2.692-28.615-2.336-38.924 1.066-7.922 2.59-15.818 7.745-23.689 15.463C17.85 50.308 9.624 61.124 5.409 70.773 1.803 79 .001 89.588.001 102.537c0 6.957.559 13.101 1.675 18.434 1.27 6.195 3.504 12.543 6.704 19.043 2.234 4.52 7.769 11.122 16.605 19.805 2.59 2.54 5.053 4.774 7.389 6.704 0-.052.025-.103.076-.153 4.368 4.013 8.1 6.704 11.198 8.075.039.048.077.099.114.152-.657 1.437-1.228 2.857-1.714 4.266-.71 2.133-1.346 4.394-1.904 6.78-.051.103-.101.203-.152.305v.687c-.458 2.183-.813 4.492-1.067 6.933-1.015 4.723-1.523 8.887-1.523 12.492 0 .965-.939 8.379-2.818 22.241-1.93 13.863-2.895 25.289-2.895 34.277 0 12.394 1.219 21.965 3.656 28.717 3.301 9.346 9.725 17.293 19.271 23.844 11.478 7.871 29.606 14.955 54.388 21.252.118 1.42.321 3.705.609 6.855.254.965.584 1.854.99 2.666.508 1.93 1.194 3.731 2.057 5.408 3.149 6.145 8.049 9.217 14.701 9.217 7.516 0 15.134-1.017 22.852-3.047.559-.152 1.092-.279 1.6-.381 3.402-.406 7.846-.813 13.33-1.22 7.109-.559 12.188-1.041 15.235-1.446l22.738-.037c11.878 2.123 24.664 3.102 38.353 2.932h33.517c4.77.465 10.559.299 17.365-.496 8.42.179 17.586.269 27.5.269 8.227 0 20.438-2.539 36.64-7.617 4.672-1.066 9.09-2.133 13.254-3.199 30.825-6.043 54.26-12.949 70.308-20.721 4.367-2.131 8.201-4.34 11.501-6.625 9.547-6.551 15.973-14.498 19.272-23.844 2.438-6.752 3.657-16.324 3.657-28.717 0-8.988-.967-20.414-2.896-34.277-1.879-13.863-2.816-21.277-2.816-22.242 0-7.008-1.88-16.225-5.639-27.65-.254-.457-.48-.914-.686-1.374-.507-1.674-1.017-3.427-1.523-5.254-.336-1.081-.666-2.135-.991-3.161 2.29-1.475 4.828-3.493 7.618-6.057.053.051.077.102.077.153 2.336-1.93 4.798-4.164 7.388-6.704 8.836-8.684 14.372-15.285 16.606-19.805 3.199-6.5 5.434-12.848 6.702-19.043 1.117-5.333 1.677-11.477 1.677-18.434 0-12.952-1.803-23.54-5.409-31.767zM53.055 150.907c-1.659-.875-2.992-1.764-4-2.667-2.132-1.879-6.144-4.723-12.035-8.531-3.555-2.285-6.297-4.088-8.226-5.409-1.778-3.504-2.921-6.348-3.428-8.531-.406-1.829-.838-6.018-1.295-12.569-.406-5.535-.609-9.014-.609-10.436 0-7.211 1.168-13.889 3.504-20.033 2.691-7.211 6.932-13.686 12.721-19.424.508-.508 1.041-1.016 1.599-1.523 2.895-2.692 5.459-4.951 7.694-6.78.304-.305.609-.584.914-.837.71-.508 1.472-1.042 2.286-1.6 7.059-4.824 13.533-8.43 19.424-10.817 8.227-2.691 17.393-2.666 27.498.077l2.133.609c1.168 1.015 2.387 2.107 3.656 3.275.914 1.219 2.133 2.768 3.657 4.647 1.675 2.031 3.757 4.443 6.246 7.236 2.195 2.486 4.138 4.631 5.828 6.436-.115.085-.229.174-.343.267-3.554 4.621-7.312 10.461-11.273 17.52-2.668 4.756-4.852 9.06-6.55 12.912-.529 1.196-1.012 2.352-1.448 3.466-1.015 2.589-1.777 4.926-2.285 7.008-.711.254-1.447.559-2.209.914-10.665 4.723-17.901 9.167-21.709 13.33-2.437 2.692-4.722 5.282-6.855 7.77-.66.609-1.294 1.27-1.904 1.981-6.185 9.925-10.515 17.162-12.991 21.709zm68.099 162.4c-13.949-2.998-25.134-6.121-33.554-9.366-11.426-4.521-19.678-10.058-24.756-16.607-5.028-6.5-7.542-14.879-7.542-25.138 0-15.641 3.986-38.364 11.959-68.174.253-.967.533-1.93.837-2.896.196-.735.386-1.474.571-2.207 2.903-10.749 5.734-20.145 8.494-28.185.203-.629.406-1.251.609-1.867.863-2.599 1.727-5.049 2.59-7.351.051-.152.126-.28.229-.381 1.777-2.285 3.758-4.773 5.941-7.465 12.608-13.461 28.693-22.69 48.255-27.689 1.387-.371 2.796-.713 4.228-1.028.406-.102.813-.178 1.218-.228 4.647-1.007 9.484-1.781 14.511-2.324 1.776-.189 3.58-.354 5.409-.495 1.864-.128 3.756-.23 5.674-.305 2.54-.102 5.104-.153 7.694-.153h.114c.27.011.625.062 1.066.153.141.016.293.042.457.076.488.09 1.059.217 1.714.381.102.051.178.076.229.076h.076c.102 0 .203.025.305.076 2.031.508 3.351.762 3.96.762.458 0 .914-.025 1.372-.076.406-.051.813-.127 1.219-.229l2.818-1.676c.152-.152.304-.305.457-.457.051-.051.102-.102.153-.152l.076-.077c0-.05.026-.101.077-.152.436-.589.779-1.173 1.028-1.752.331-.77.496-1.532.496-2.285 0-1.581-.559-3.015-1.676-4.303-.427-.491-.935-.96-1.523-1.41-.417-.315-.875-.619-1.371-.914-2.721-1.595-6.657-2.865-11.807-3.809-.355-.051-.736-.102-1.143-.152-.508-.102-1.041-.203-1.6-.305-.406-.05-.787-.101-1.143-.152-1.682-.228-3.396-.418-5.142-.571-7.65-.61-16.017-.419-25.098.571-.152 0-.305.026-.458.077-1.31.121-2.643.261-3.999.418-1.459.193-2.944.409-4.456.647 1.064-1.696 2.181-3.511 3.351-5.446.91-1.464 1.85-3 2.819-4.608 1.27-2.184 2.615-4.495 4.037-6.932.305-.406 3.732-3.809 10.283-10.207 1.879-1.879 4.063-4.012 6.551-6.399.609-.559 1.193-1.117 1.752-1.676 1.182-.622 2.388-1.231 3.618-1.828.793-.388 1.593-.769 2.4-1.143 1.218-.559 2.437-1.117 3.656-1.676l14.092-5.409c2.539-.863 5.129-1.65 7.77-2.361 1.523-.457 3.072-.889 4.646-1.295l6.55-1.523c.762-.203 1.523-.381 2.285-.534v.077c11.479-2.387 24.63-3.961 39.458-4.723H247.713v.076h5.027v-.076h4.724c14.828.762 27.979 2.336 39.456 4.723v-.077c.762.153 1.523.331 2.285.534l6.553 1.523c1.573.406 3.122.838 4.646 1.295 2.641.711 5.23 1.498 7.77 2.361l7.236 2.78 4.456 1.714c-1.997 4.146-5.957 12.906-11.884 26.28-.727 1.609-1.476 3.285-2.246 5.027-3.746 8.498-7.086 15.251-10.018 20.262-.318.551-.637 1.084-.951 1.599-3.759 3.098-8.304 6.018-13.637 8.76-.607.305-1.218.609-1.828.914l-1.941 1.028c-5.727 3.127-10.461 7.203-14.205 12.227-.204.253-.406.533-.61.837l-3.731 6.094c-.545 1.09-1.092 2.271-1.638 3.542l.037-.039c-.187.43-.377.874-.571 1.333l-2.285 6.17c-.062.186-.125.376-.189.571-1.523 5.078-2.691 8.786-3.504 11.122-1.473 4.112-2.895 7.313-4.266 9.598-2.234 3.757-5.483 7.592-9.75 11.503-1.676 1.523-6.856 4.596-15.538 9.217-1.452.773-2.785 1.51-4 2.209-5.244 3.012-8.277 5.322-9.104 6.932-.779 1.515-1.745 4.65-2.894 9.406l-.381 1.563c-1.016 4.621-2.564 8.049-4.647 10.282-3.993 4.312-7.433 9.123-10.32 14.435l-3.467 7.275c-.355.854-.787 1.739-1.294 2.665-.934 1.728-2.127 3.58-3.58 5.562-2.743 3.859-6.424 8.228-11.045 13.103-.762.762-1.473 1.498-2.133 2.209-.689.688-1.362 1.361-2.019 2.02-.914.934-1.791 1.836-2.628 2.703-1.727 1.729-3.301 3.326-4.723 4.799-3.758 3.859-6.678 6.932-8.76 9.217-2.792 3.047-7.287 6.627-13.482 10.74-7.566 4.775-13.204 8.354-16.911 10.74-3.249 2.105-6.105 4.11-8.569 6.019zm322.173-22.166c-.966 1.271-2.059 2.49-3.275 3.658-5.078 4.978-12.237 9.293-21.479 12.949-5.993 2.336-13.406 4.596-22.243 6.777-7.159 1.221-12.897 2.186-17.216 2.896-3.654.609-17.037 2.029-40.143 4.266-26.053 2.488-39.33 3.759-39.839 3.81h-36.944c-1.726.455-3.834.686-6.32.686-3.606.203-7.796.254-12.568.15-1.372-.051-2.717-.1-4.038-.15-7.719-.354-14.294-1.219-19.729-2.59H192.11c-.886-.401-1.774-.707-2.666-.914-1.485-.367-2.983-.479-4.494-.344-.279.027-.558.064-.838.115-2.808.436-5.651 1.756-8.531 3.961-.305-.104-.61-.152-.914-.152-2.997 1.777-6.958 3.683-11.884 5.713-11.477 4.773-19.347 7.16-23.613 7.16-3.504 0-6.018-1.625-7.541-4.875-.812-3.301-1.219-4.977-1.219-5.027 0-3.303 2.006-6.094 6.018-8.379.254-.151.534-.307.838-.457h-.076l.153-.153c1.13-.818 2.463-1.771 3.999-2.855 4.456-3.192 10.613-7.547 18.472-13.063 1.269-.916 2.539-1.828 3.809-2.744.304-.103.635-.176.99-.228 2.313-.436 4.396-.842 6.246-1.219 6.133-1.313 9.688-2.381 10.665-3.201-.915-2.486-2.971-4.01-6.17-4.57 8.176-6.805 14.879-13.305 20.11-19.5 2.59-3.146 4.823-6.194 6.704-9.141.253-.406.482-.787.685-1.143 2.133-3.504 4.216-6.855 6.247-10.055.305-.508.608-1.017.914-1.523 4.418-7.008 8.455-13.127 12.112-18.357 1.321-1.93 2.615-3.758 3.885-5.483.103-.103.203-.229.305-.382.202-.405.432-.838.686-1.295l1.829-5.483c0-.103.023-.179.075-.229.051-.305.102-.584.152-.838 0-.051.024-.076.075-.076v-.305c.915-4.57 1.551-7.643 1.904-9.217.61-2.641 4.621-5.586 12.036-8.836.102-.051.202-.076.305-.076l12.569-5.637c.253-.152.48-.279.686-.381h.076c.253-.205.432-.33.531-.381.205-.152.406-.305.611-.457.506-.457 1.014-.916 1.522-1.371.05-.103.126-.178.228-.229v.152c.053.457.129.911.229 1.371 0 .051.024.127.075.229.103.609.229 1.193.382 1.753.051.305.128.584.229.838.861 3.301 2.131 5.637 3.809 7.008 1.117.914 2.437 1.371 3.96 1.371 1.372 0 2.54-.508 3.504-1.523.103-.102.204-.205.305-.305l.687-1.066c.051-.102.102-.203.152-.305.203-.609.305-1.244.305-1.904v-1.447c-.254-7.771-.381-13.33-.381-16.682 0-3.149.152-6.044.457-8.686 1.271-2.894 3.099-7.184 5.484-12.873 2.945-7.007 6.398-12.822 10.359-17.443 1.016-1.218 2.133-2.438 3.352-3.656.457-.457.913-.915 1.37-1.371 3.353-3.25 7.313-6.374 11.885-9.369 1.319-.864 2.69-1.727 4.111-2.59.61-.406 1.246-.787 1.903-1.143 2.49-1.421 4.801-2.945 6.935-4.57 3.332-2.546 6.239-5.314 8.722-8.303.877-1.063 1.701-2.155 2.476-3.275 2.571-3.696 4.831-8.254 6.78-13.673.498-1.422.979-2.908 1.446-4.456.913-3 2.134-7.087 3.655-12.263.588-2.025 1.223-4.208 1.904-6.552.406-1.167.838-2.285 1.295-3.351.052-.102.128-.229.229-.381.452-.617.936-1.276 1.448-1.981.128-.181.254-.358.381-.533 3.96-5.332 8.022-8.48 12.188-9.445.861.05 1.879.126 3.047.228.305.457.787 1.32 1.447 2.59 1.879 3.503 5.332 10.003 10.358 19.5 3.453 6.145 6.651 11.502 9.599 16.072.608.965 1.217 1.904 1.827 2.818.052.051.103.127.151.229 1.829 2.793 3.557 5.231 5.181 7.313-2.641-.609-5.077-.965-7.313-1.067-4.469-.152-7.186.838-8.15 2.971-.253.559-.381 1.218-.381 1.98 0 1.778 4.089 4.52 12.266 8.227 4.266 1.931 9.42 4.063 15.463 6.399.405.203 3.809 2.691 10.207 7.465.609.406 1.219.813 1.828 1.219 1.624 2.792 3.123 5.561 4.494 8.302 5.892 11.629 12.44 30.978 19.651 58.045.406 1.473.787 2.92 1.144 4.342 7.211 27.676 10.817 48.953 10.817 63.832-.004 10.255-2.519 18.634-7.546 25.134zm32.602-177.94c-.457 6.551-.889 10.74-1.295 12.569-.507 2.183-1.648 5.027-3.428 8.531-1.93 1.32-4.671 3.124-8.228 5.409-4.933 3.189-8.551 5.703-10.854 7.541-1.459-4.571-3.274-8.659-5.444-12.264-1.88-3.148-4.089-6.068-6.628-8.76-1.676-1.828-3.504-3.555-5.483-5.18-1.066-1.016-3.606-2.869-7.617-5.56-5.027-3.302-9.727-6.018-14.092-8.151-.406-.203-.787-.381-1.144-.533-.192-.542-.485-1.329-.877-2.361-1.299-3.31-3.673-9.15-7.121-17.52-6.298-15.286-10.411-25.696-12.341-31.231-.368-1.312-.773-2.569-1.219-3.771.457-.547.888-1.067 1.296-1.561 1.522-1.879 2.741-3.428 3.655-4.647 1.271-1.168 2.488-2.26 3.656-3.275l2.133-.609c10.105-2.743 19.271-2.768 27.498-.077 3.605 1.473 7.414 3.377 11.427 5.713 2.589 1.524 5.255 3.225 7.999 5.104.812.559 1.572 1.092 2.284 1.6 2.387 1.98 5.255 4.519 8.606 7.617.56.507 1.092 1.016 1.599 1.523 10.818 10.715 16.227 23.867 16.227 39.458 0 1.421-.203 4.9-.609 10.435z"/>
    <path d="M157.526 273.852c.66-.256 1.32-.51 1.98-.762.305-.104.609-.23.914-.381.102-.053.203-.078.305-.078.152-.102.33-.178.533-.229.051-.049.127-.101.229-.152.813-.355 1.625-.762 2.437-1.219l8.608-6.018c.152-.152.33-.304.533-.457.559-.56 1.143-1.144 1.752-1.75.203-.205.431-.406.685-.611.406-.457.813-.912 1.219-1.371.762-.863 1.523-1.752 2.285-2.666l8.76-14.016c.051-.203.126-.382.229-.533.203-.406.406-.813.609-1.219.436-.984.867-1.988 1.295-3.009.722-1.715 1.432-3.479 2.133-5.295.056-.149.107-.303.152-.457 3.278-8.862 5.741-18.614 7.389-29.25 1.066-6.756 1.599-11.707 1.599-14.854 0-21.227-5.993-35.7-17.977-43.419-5.666-3.617-11.963-5.42-18.892-5.408-3.378-.002-6.908.429-10.587 1.295-.152 0-.305.025-.458.076l-1.447.381c-.102 0-.203.025-.305.077-1.416.396-2.851.854-4.303 1.371-.573.192-1.144.395-1.714.609-.606.214-1.215.442-1.829.686-1.625.66-3.225 1.371-4.798 2.133l-.077.076c-5.281 2.54-10.257 5.688-14.93 9.445-7.313 5.74-13.889 12.898-19.729 21.481-1.398 2.051-2.718 4.134-3.96 6.247-1.456 2.495-2.801 5.032-4.038 7.616-6.653 13.813-9.979 28.793-9.979 44.941 0 1.473.609 3.859 1.828 7.16 1.828 4.875 4.393 9.346 7.693 13.406 10.258 12.441 25.62 18.662 46.084 18.662.864 0 1.727-.025 2.59-.076 1.772-.076 3.512-.242 5.218-.494 2.744-.415 5.397-1.063 7.964-1.938zm-20.262-70.842c-1.574-5.078-2.361-7.77-2.361-8.076 0-4.977 1.727-8.936 5.18-11.881 3.047-2.592 6.78-3.886 11.198-3.886 4.468.1 8.201 1.397 11.197 3.886 3.403 2.945 5.104 6.83 5.104 11.654 0 3.402-1.016 6.576-3.047 9.521-2.896 4.164-7.313 6.246-13.254 6.246-6.552.001-11.224-2.488-14.017-7.464z"/>
  </g>
</svg>