<svg xmlns="http://www.w3.org/2000/svg" width="500" height="170">
  <g fill="#E8E3D9">
    <path d="M362.602 105.559l.426.02c2.23.102 4.826.152 7.718.152h.694l-.223-.658c-.143-.428-.266-.896-.354-1.289 0-4.693.783-9.248 2.328-13.533.797-2.1 1.395-4.23 1.774-6.334l.025-.141-.054-.133c-.28-.713-.502-1.562-.653-2.523l-.179-1.11-.705.875c-.541.669-1.36.995-2.508.995-1.619 0-2.582-.663-3.039-2.123-.123-.307-.27-.986-.27-2.48 0-.392.014-.775.039-1.148l.041-.643-.633.118c-.197.037-.393.076-.586.119l-.109.037c-2.217 1.058-4.154 1.925-5.781 2.586-1.166.53-3.77 2.47-7.957 5.935-2.059 1.707-3.705 2.949-4.896 3.693l-.324.203.108.365c.443 1.479.72 3.029.82 4.629.199 1.945.326 4.342.377 7.119l.019.121c.229.852.688 1.598 1.362 2.217l.703.645.131-.942c.238-1.713.834-3.08 1.789-4.084 1.107-1.293 2.379-1.787 3.955-1.511 3.392.574 5.322 3.322 5.908 8.402l.054.421zM378.156 126.372c-2.77-.563-5.928-.797-9.408-.695l-.486.017v.715c0 2.143-1.029 4.307-3.061 6.432-3.025 3.168-3.414 4.25-3.414 4.84v.478l.197.149c2.162 1.646 6.229 3.568 12.092 5.709l.176.064.174-.066c1.746-.67 3.363-1.451 4.805-2.326 4.201-2.574 6.332-5.612 6.332-9.035 0-3.047-2.489-5.157-7.407-6.282z"/>
  </g>
  <g fill="#CFC4AD">
    <path d="M363.266 112.962c3.168-.401 6.217-.578 9.068-.528l.621.012-.121-.609c-.053-.264-.105-.502-.162-.719-.5-1.85-.984-3.865-1.439-5.99l-.084-.396h-.403c-2.875 0-5.455-.051-7.672-.149l-.587-.026.066.581c.1.89.15 1.921.15 3.144v4.758l.563-.078zM339.662 105.73c.777 1.806 1.383 3.537 1.805 5.146l.033.094c1.164 2.375 2.133 4.553 2.879 6.475l.186.478.474-.194c2.305-.953 4.694-1.793 7.104-2.496l.535-.156-.213-.514c-.34-.828-.666-1.832-.953-2.91-.66-6.063-.76-7.246-.76-7.412v-.152c0-.627.049-1.211.145-1.74l.049-.271-.202-.187c-.525-.481-.873-1.033-1.058-1.684-.053-2.779-.182-5.182-.381-7.119-.096-1.527-.35-3.029-.754-4.471 1.197-.781 2.771-1.98 4.686-3.568 4.063-3.359 6.664-5.308 7.718-5.786 1.582-.643 3.479-1.49 5.641-2.519-.004.176-.008.353-.008.532 0 1.346.11 2.279.328 2.815.569 1.823 1.944 2.788 3.979 2.788 1.447 0 2.553-.461 3.285-1.367l.143-.176-.038-.224c-.103-.589-.179-1.225-.224-1.856 0-7.507-.387-13.736-1.147-18.513-.197-1.263-.513-2.522-.937-3.743-.883-2.532-2.27-4.967-4.121-7.236-.922-1.128-1.989-2.248-3.174-3.328-4.998-4.535-10.699-6.833-16.943-6.833-8.034 0-14.771 3.67-20.02 10.909l-.082.184c-.029.126-.063.25-.105.384-1.127 3.755-1.696 7.495-1.696 11.113 0 .919.024 1.864.076 2.805.45 9.288 3.211 19.106 8.2 29.178l3.466 7.082c1.649 3.446 2.008 4.265 2.084 4.472zM374.42 143.075c-5.59-2.041-9.5-3.863-11.631-5.418.016-.242.318-1.179 3.135-4.128 2.215-2.317 3.338-4.715 3.338-7.122v-.742l-.512.012c-2.029.052-4.201.232-6.459.539-2.406.357-4.725.798-6.934 1.313l-5.65 1.811c-.148.012-.295.053-.441.125l-.238.125c-.131.043-.233.088-.319.137-.16.019-.293.064-.399.142l-.494.254c-.156.051-.289.104-.4.155-.205.058-.396.14-.611.277l-.086.033c-.27.107-.51.217-.721.322-2.844 1.395-5.023 2.975-6.477 4.689-1.172 1.33-1.904 2.77-2.174 4.276l-.048.258.187.185c.822.822 3.422 2.031 7.947 3.695 4.772 1.815 7.996 2.698 9.85 2.698h1.236l9.731-.69c3.013-.459 5.76-1.135 8.17-2.004l1.293-.47-1.293-.472z"/>
  </g>
  <path fill="#56483A" d="M185.148 77.326c-.174-1.375-.38-2.729-.613-4.022-.915-5.231-2.562-11.331-4.894-18.126-1.866-5.552-2.881-8.593-3.021-9.05l-.037-.12c-1.437-3.542-3.211-6.488-5.277-8.762-2.771-2.975-7.021-5.932-12.632-8.788-5.625-2.865-10.078-4.369-13.252-4.473l-9.731.003c-6.889.795-12.851 2.151-17.792 4.064-3.468 2.037-6.483 3.71-9.046 5.03-1.708 1.359-3.175 2.878-4.359 4.515-2.478 3.408-4.251 9.664-5.275 18.651v17.14l.018.133c.241.869.363 1.721.363 2.533 0 .254-.023.521-.069.793l-.016.093.019.092c.272 1.306.448 2.906.524 4.773.101 1.31.201 3.173.305 5.706.116 1.783.447 3.738.986 5.824-.037-.019-.073-.037-.109-.056l-1.049-.53.345 1.125c1.013 3.293 2.119 6.508 3.288 9.558 2.129 5.426 4.549 10.521 7.192 15.146 6.117 10.653 13.083 17.924 20.706 21.606l.099.035c6.256 1.527 13.523 2.301 21.6 2.301 3.455 0 7.56-1.936 12.2-5.752l.109-.125c2.532-4.151 5.972-10.494 10.215-18.828.597-1.045 1.23-2.059 1.89-3.022l3.187-4.908-.774-.221c.775-1.099 1.45-2.031 2.024-2.806l.791-1.985c.908-2.406 1.607-4.774 2.079-7.045l.01-.052-.004-20.45z"/>
  <g fill="#171717">
    <path d="M402.156 124.294c-2.518-3.647-5.645-6.594-9.299-8.756-.494-.287-.957-.535-1.402-.752.432-1.431.432-1.533.432-1.636 0-1.416-.518-3.063-1.582-5.03-.973-1.847-1.465-3.537-1.465-5.022 0-2.89.379-5.793 1.125-8.634.77-2.922 1.16-6.553 1.16-10.791 0-4.177-.373-7.915-1.107-11.109-.207-7.537-1.875-14.913-4.953-21.922-4.819-11.077-12.373-17.735-22.396-19.777-6.051-1.935-11.582-2.916-16.44-2.916-9.166 0-16.304 3.478-21.211 10.335-1.009 1.396-1.912 2.891-2.687 4.443-1.908 2.434-3.688 5.453-5.287 8.973-.176.385-.353.763-.537 1.148-3.414 7.765-5.146 14.521-5.143 20.132l.381 3.802c.121 1.414.287 3.205.496 5.374.271 2.943.612 6.588 1.032 10.971 1.979 11.313 4.982 17.791 9.183 19.791.336.725.717 1.531 1.14 2.418.493 1.105.961 2.104 1.389 2.971-.244 2.07-.367 4.564-.367 7.412 0 .322.02.668.061 1.029-.744 1.219-1.395 2.662-1.936 4.291-1.078 3.078-1.729 6.379-1.934 9.84 0 6.6 3.102 11.941 9.217 15.881 8.119 5.26 21.588 7.928 40.035 7.928 13.194 0 23.19-3.981 29.709-11.836 4.373-5.246 6.592-10.735 6.592-16.315-.003-4.096-1.417-8.217-4.206-12.243zM372.254 89.9c-1.586 4.402-2.391 9.072-2.381 13.979.105.533.24 1.041.381 1.455.461 2.144.949 4.177 1.451 6.037.006.019.01.035.014.053-2.525-.018-5.232.146-8.016.478V108.2c0-1.185-.053-2.255-.156-3.181-.635-5.504-2.9-8.623-6.732-9.271-1.896-.338-3.559.293-4.866 1.824-1.087 1.139-1.771 2.692-2.035 4.596-.104.586-.16 1.231-.16 1.918v.151c0 .123 0 .498.779 7.593.252.967.522 1.838.807 2.596-2.103.632-4.188 1.365-6.213 2.185-.726-1.816-1.633-3.844-2.705-6.033-.433-1.645-1.051-3.408-1.828-5.213-.049-.133-.194-.533-2.114-4.543l-3.468-7.088c-4.932-9.951-7.655-19.635-8.102-28.789-.05-.926-.074-1.852-.074-2.753 0-3.521.558-7.164 1.649-10.812.039-.118.072-.24.104-.363 5.039-6.911 11.481-10.415 19.149-10.415 5.988 0 11.464 2.212 16.271 6.573 1.148 1.047 2.183 2.131 3.072 3.222 1.778 2.179 3.108 4.511 3.953 6.932.403 1.163.702 2.364.891 3.57.754 4.727 1.138 10.902 1.14 18.391.049.7.127 1.371.233 1.986.154.975.377 1.849.66 2.599-.372 1.999-.944 4.021-1.704 6.025zm-31.979 46.351c1.367-1.614 3.44-3.108 6.166-4.446.174-.089.367-.175.582-.263.108-.019.229-.063.307-.147.105-.072.229-.123.377-.16.035-.01.07-.021.104-.039.082-.041.187-.082.388-.154l.604-.303c.019-.01.033-.018.05-.029-.009.008-.002.01.03.008.14 0 .232-.023.326-.125.002 0 .033-.02.203-.082l.387-.174c.052 0 .104-.008.152-.023l5.674-1.817c2.144-.5 4.438-.935 6.81-1.289 2.215-.299 4.35-.478 6.346-.526 3.4-.103 6.486.129 9.168.674 4.391 1.004 6.617 2.787 6.617 5.301 0 3.049-1.969 5.803-5.854 8.182-1.39.842-2.948 1.598-4.631 2.242-2.351.848-5.033 1.508-7.938 1.951l-9.642.686h-1.219c-1.705 0-4.9-.887-9.5-2.637-4.832-1.777-6.71-2.762-7.396-3.297.27-1.232.905-2.416 1.889-3.533zM189.535 25.465C176.955 9.933 160.967 1.67 142.016.905c-18.251-.766-34.223 5.406-47.522 18.348-1.836 1.797-3.576 3.689-5.172 5.624-4.332 3.018-8.267 8.716-11.698 16.936-2.286 5.435-4.166 11.616-5.588 18.37-1.169 5.443-1.763 9.528-1.763 12.141 0 .047 0 .157.381 6.024.063 4.349.577 9.905 1.529 16.519 1.673 11.461 4.348 22.029 7.95 31.414 11.15 28.973 29.657 43.664 55.006 43.664 9.348 0 18.112-1.264 26.005-3.744 4.709-1.025 9.303-2.996 13.623-5.842 7.839-4.43 14.858-10.469 20.863-17.947 4.831-6.002 8.776-12.656 11.725-19.771.869-2.059 1.564-3.891 2.072-5.449l-.477-.153.527-.013c1.068-5.135 1.191-6.104 1.191-6.387 0-2.193-.088-3.981-.26-5.318.426-2.319.641-4.631.641-6.868.001-30.8-7.237-55.355-21.514-72.988zm-10.573 84.653c.054.151.178.271.333.313l.151.043-2.444 3.765c-.667.977-1.315 2.014-1.938 3.104-4.218 8.285-7.63 14.578-10.145 18.709-4.43 3.63-8.298 5.472-11.5 5.472-7.974 0-15.144-.76-21.311-2.26-7.42-3.603-14.225-10.729-20.226-21.181-2.619-4.584-5.017-9.635-7.127-15.013-1.029-2.686-2.01-5.504-2.922-8.391.026.012.051.023.077.035.069.031.143.049.218.045.286.025.51-.221.51-.5 0-.098-.027-.188-.075-.264-.669-2.371-1.074-4.572-1.202-6.537-.104-2.535-.204-4.41-.305-5.713-.076-1.861-.252-3.485-.524-4.827.045-.295.068-.585.068-.865 0-.881-.128-1.8-.381-2.733l-.003-17.016c1-8.757 2.712-14.854 5.088-18.121 1.131-1.563 2.535-3.017 4.088-4.265 2.496-1.273 5.529-2.957 8.941-4.969 4.789-1.847 10.668-3.183 17.416-3.965h9.658c3.01.099 7.321 1.567 12.814 4.365 5.506 2.802 9.663 5.688 12.35 8.573 1.982 2.181 3.693 5.028 5.086 8.46l.002-.001c.128.445.677 2.097 3.035 9.116 2.317 6.75 3.951 12.797 4.856 17.979.23 1.28.434 2.616.602 3.911v20.287c-.461 2.205-1.142 4.507-2.023 6.843l-.7 1.803c-.668.9-1.469 2.016-2.404 3.346-.093.13-.116.3-.063.452z"/>
  </g>
</svg>